<svg width="3" height="6" viewBox="0 0 3 6" fill="none" xmlns="http://www.w3.org/2000/svg">
<path d="M0.116017 5.22993C0.0416932 5.3148 -2.38419e-07 5.4294 -2.38419e-07 5.54882C-2.38419e-07 5.66825 0.0416932 5.78285 0.116017 5.86771C0.152515 5.90961 0.196019 5.94288 0.243997 5.96559C0.291976 5.98831 0.343471 6 0.395486 6C0.4475 6 0.498995 5.98831 0.546974 5.96559C0.594953 5.94288 0.638457 5.90961 0.674954 5.86771L2.88417 3.31921C2.95839 3.23416 3 3.11948 3 3C3 2.88052 2.95839 2.76584 2.88417 2.68079L0.674954 0.132291C0.638457 0.0903926 0.594953 0.0571192 0.546974 0.0344076C0.498995 0.011696 0.4475 0 0.395486 0C0.343471 0 0.291976 0.011696 0.243997 0.0344076C0.196019 0.0571192 0.152515 0.0903926 0.116017 0.132291C0.0416932 0.217155 -2.38419e-07 0.331754 -2.38419e-07 0.45118C-2.38419e-07 0.570605 0.0416932 0.685204 0.116017 0.770067L1.9278 3.00098L0.116017 5.22993Z" fill="white"/>
</svg>
