<svg width="23" height="22" viewBox="0 0 23 22" fill="none" xmlns="http://www.w3.org/2000/svg">
<path d="M11.5 0C8.32499 0 5.61457 1.07329 3.36874 3.21988C1.12292 5.36646 0 7.95711 0 10.9918C0 14.0374 1.12292 16.6335 3.36874 18.7801C5.61457 20.9267 8.32499 22 11.5 22C14.676 22 17.3869 20.9267 19.6327 18.7801C21.8776 16.6335 23 14.0374 23 10.9918C23 7.95711 21.8776 5.36646 19.6327 3.21988C17.3869 1.07329 14.676 0 11.5 0ZM6.88172 6.88336C7.75854 6.16813 8.40544 5.79551 8.82243 5.76548C9.83824 5.67266 10.4637 6.33693 10.6989 7.75828C10.934 9.23969 11.1049 10.1901 11.2115 10.6096C11.5219 11.8872 11.848 12.526 12.1897 12.526C12.4573 12.526 12.8638 12.112 13.4093 11.2839C13.9653 10.4659 14.2594 9.83708 14.2918 9.39757C14.3775 8.68234 14.0833 8.32473 13.4093 8.32473C13.1208 8.32473 12.8 8.39616 12.4468 8.53902C13.0885 6.5262 14.3128 5.55027 16.1197 5.61124C17.4564 5.64218 18.0928 6.47024 18.029 8.09542C17.9643 9.32204 17.0765 10.9877 15.3657 13.0924C13.5911 15.29 12.0888 16.3888 10.8588 16.3888C10.0896 16.3888 9.44791 15.7195 8.93382 14.3809L7.87564 10.6861C7.49102 9.34752 7.06879 8.67825 6.60897 8.67825C6.52328 8.67825 6.18627 8.87207 5.59791 9.25971L4.97243 8.509C5.16474 8.35612 5.80117 7.81424 6.88172 6.88336Z" fill="white"/>
</svg>
