<svg width="23" height="22" viewBox="0 0 23 22" fill="none" xmlns="http://www.w3.org/2000/svg">
<path d="M11.5 0C8.32263 0 5.60495 1.07803 3.34696 3.23409C1.11565 5.36559 0 7.96059 0 11.0191C0 14.0531 1.11565 16.6353 3.34696 18.7659C5.60495 20.922 8.32263 22 11.5 22C14.6774 22 17.3817 20.922 19.613 18.7659C21.871 16.6353 23 14.0531 23 11.0191C23 7.98606 21.871 5.39106 19.613 3.23409C17.3817 1.07803 14.6774 0 11.5 0ZM6.89257 6.61965C8.17876 5.41608 9.71457 4.81429 11.5 4.81429C13.2854 4.81429 14.8084 5.41608 16.0688 6.61965C17.3293 7.84779 17.9596 9.31427 17.9596 11.0191C17.9596 12.7239 17.3293 14.1781 16.0688 15.3817C14.8084 16.5853 13.2854 17.1871 11.5 17.1871C9.71457 17.1871 8.17876 16.5853 6.89257 15.3817C5.6321 14.1781 5.00186 12.7239 5.00186 11.0191C5.00186 9.31427 5.6321 7.84779 6.89257 6.61965ZM14.6512 11.5827L13.5479 11.6591C13.9947 12.8872 14.3492 14.1031 14.6112 15.3067C15.8983 14.4542 16.66 13.3134 16.8963 11.8843C16.3704 11.6832 15.622 11.5827 14.6512 11.5827ZM12.7205 9.77869L13.1935 10.7557C13.7708 10.7057 14.191 10.6807 14.454 10.6807C15.5829 10.6807 16.4233 10.7685 16.9749 10.9441C16.9225 9.71592 16.5152 8.65017 15.753 7.74681C15.0185 8.59922 14.0076 9.27652 12.7205 9.77869ZM9.25488 13.8015C8.7566 14.2782 8.38932 14.7299 8.15304 15.1566C9.17628 15.8834 10.2919 16.2469 11.5 16.2469C12.2088 16.2469 12.9177 16.109 13.6265 15.8334C13.233 14.1786 12.8391 12.8745 12.4446 11.9211C11.1851 12.3478 10.1219 12.9746 9.25488 13.8015ZM6.0251 10.9058V11.0191C6.0251 12.3227 6.4848 13.4758 7.40419 14.4784C7.71954 13.9525 8.15256 13.439 8.70324 12.9377C9.64931 12.0344 10.6997 11.3948 11.8544 11.0191L12.0516 10.9823L11.6186 10.154C9.83319 10.6552 8.02156 10.9058 6.18373 10.9058H6.0251ZM6.14372 9.92879H6.18373C7.81101 9.92879 9.46495 9.71546 11.1456 9.2888C10.3843 7.98516 9.71505 6.99491 9.13769 6.31807C7.50946 7.04495 6.51147 8.24852 6.14372 9.92879ZM11.5 5.79134C11.0274 5.79134 10.6206 5.84183 10.2795 5.94281C11.0665 7.02084 11.7358 8.02336 12.2874 8.95038C13.5212 8.49915 14.4663 7.88508 15.1228 7.10817C14.0729 6.23029 12.8653 5.79134 11.5 5.79134Z" fill="white"/>
</svg>
