<svg width="23" height="22" viewBox="0 0 23 22" fill="none" xmlns="http://www.w3.org/2000/svg">
<path d="M19.613 3.20144C19.438 3.03402 19.2598 2.87317 19.0785 2.7189C16.9543 0.9063 14.4281 0 11.5 0C8.57188 0 6.03427 0.9063 3.88716 2.7189C3.70416 2.87317 3.52409 3.03402 3.34696 3.20144C1.11565 5.36125 0 7.96077 0 11C0 14.0383 1.11565 16.6251 3.34696 18.7603C3.8032 19.1967 4.27814 19.589 4.77178 19.9372C6.72189 21.3124 8.96463 22 11.5 22C14.0354 22 16.2695 21.3124 18.2025 19.9372C18.692 19.589 19.1622 19.1967 19.613 18.7603C21.871 16.6251 23 14.0383 23 11C23 7.96077 21.871 5.36125 19.613 3.20144ZM14.1581 4.5151C15.2871 4.5151 16.2456 4.89193 17.0335 5.64558C17.8214 6.39924 18.2154 7.31602 18.2154 8.39592V13.5562C18.2154 14.6361 17.8214 15.5525 17.0335 16.3052C16.2456 17.0589 15.2871 17.4357 14.1581 17.4357H8.76327C7.66095 17.4357 6.71584 17.0589 5.92792 16.3052C5.14001 15.5525 4.74605 14.6361 4.74605 13.5562V8.39592C4.74605 7.31602 5.14001 6.39924 5.92792 5.64558C6.71584 4.89193 7.66095 4.5151 8.76327 4.5151H14.1581ZM16.1274 6.51224C15.5758 5.98459 14.9194 5.72077 14.1581 5.72077H8.76327C8.00203 5.72077 7.34559 5.98459 6.79396 6.51224C6.269 7.03898 6.00652 7.66687 6.00652 8.39592V13.5562C6.00652 14.2844 6.269 14.9123 6.79396 15.4399C7.34559 15.9667 8.00203 16.23 8.76327 16.23H14.1581C14.9194 16.23 15.5758 15.9667 16.1274 15.4399C16.6791 14.9123 16.9549 14.2844 16.9549 13.5562V8.39592C16.9549 7.66687 16.6791 7.03898 16.1274 6.51224ZM14.5126 7.03989C14.6707 6.88861 14.8546 6.81297 15.0642 6.81297C15.2747 6.81297 15.4586 6.88861 15.6158 7.03989C15.773 7.19026 15.8516 7.36568 15.8516 7.56617C15.8516 7.79218 15.773 7.98082 15.6158 8.1321C15.4586 8.28247 15.2747 8.35765 15.0642 8.35765C14.8546 8.35765 14.6707 8.28247 14.5126 8.1321C14.3554 7.98082 14.2767 7.79218 14.2767 7.56617C14.2767 7.36568 14.3554 7.19026 14.5126 7.03989ZM8.21163 10.9945C8.21163 10.116 8.53985 9.36283 9.19628 8.73493C9.827 8.10704 10.6016 7.79309 11.52 7.79309C12.4394 7.79309 13.2268 8.10704 13.8823 8.73493C14.5388 9.36283 14.867 10.116 14.867 10.9945C14.867 11.873 14.5388 12.6139 13.8823 13.2172C13.2268 13.8451 12.4394 14.1591 11.52 14.1591C10.6273 14.1591 9.85272 13.8451 9.19628 13.2172C8.53985 12.6139 8.21163 11.873 8.21163 10.9945ZM11.52 8.92221C10.9426 8.92221 10.4439 9.12315 10.0237 9.52504C9.60358 9.95245 9.3935 10.4423 9.3935 10.9945C9.3935 11.5468 9.60358 12.0239 10.0237 12.4257C10.4439 12.8276 10.9426 13.0286 11.52 13.0286C12.0974 13.0286 12.5961 12.8276 13.0163 12.4257C13.4364 12.0239 13.6465 11.5468 13.6465 10.9945C13.6465 10.4168 13.4364 9.92693 13.0163 9.52504C12.5961 9.12315 12.0974 8.92221 11.52 8.92221Z" fill="white"/>
</svg>
