<svg width="23" height="22" viewBox="0 0 23 22" fill="none" xmlns="http://www.w3.org/2000/svg">
<path d="M11.4807 0C8.30869 0 5.60887 1.0781 3.3813 3.23429C1.1271 5.39048 0 7.98519 0 11.0184C0 14.0526 1.1271 16.635 3.3813 18.7657C5.60887 20.9219 8.30869 22 11.4807 22C14.6518 22 17.3645 20.9219 19.6187 18.7657C21.8729 16.635 23 14.0526 23 11.0184C23 7.98519 21.8729 5.39048 19.6187 3.23429C17.3911 1.0781 14.6785 0 11.4807 0ZM11.2839 7.74729C11.4408 7.92287 11.5587 8.13576 11.6377 8.38596C11.7423 8.61158 11.7946 8.86223 11.7946 9.13789C11.7946 9.48907 11.69 9.84025 11.4807 10.1914C11.2705 10.5426 10.969 10.7933 10.5762 10.9434C11.1003 11.119 11.4803 11.3696 11.7161 11.6953C12.0043 12.0465 12.1484 12.4727 12.1484 12.974C12.1484 13.3252 12.07 13.6263 11.913 13.8774C11.7818 14.1031 11.5982 14.3159 11.3623 14.5161C10.9952 14.7172 10.707 14.8427 10.4977 14.8927C10.0783 14.9928 9.7373 15.0429 9.47478 15.0429H5.4643V7.10725H9.9085C10.249 7.10725 10.4977 7.17003 10.6547 7.29558C10.8649 7.39565 11.0746 7.54622 11.2839 7.74729ZM17.5742 7.4839V8.42417H13.6436V7.4839H17.5742ZM16.945 9.40128C18.1777 9.92804 18.7679 10.9061 18.7156 12.3353L18.6756 12.5605H14.1144C14.1144 12.7361 14.1668 12.9244 14.2714 13.1255C14.3503 13.3256 14.4687 13.4758 14.6266 13.5758C14.7313 13.6768 14.8882 13.7773 15.0974 13.8774L15.6881 13.9525C15.9763 13.9525 16.2512 13.8897 16.5127 13.7642C16.8009 13.614 16.9845 13.4262 17.0635 13.2005L18.3618 13.539C18.1782 13.9648 17.8372 14.3155 17.3388 14.5912C16.867 14.8923 16.2902 15.0429 15.6082 15.0429C15.1897 15.0429 14.7707 14.9551 14.3513 14.7795C13.5647 14.4792 13.0273 13.9652 12.7391 13.2374C12.5812 12.8617 12.5023 12.4859 12.5023 12.1102C12.5023 11.7335 12.5679 11.3573 12.6991 10.9816C13.014 10.2292 13.5514 9.70242 14.3113 9.40128C14.6785 9.22569 15.1241 9.13789 15.6482 9.13789C16.1466 9.13789 16.5788 9.22569 16.945 9.40128ZM17.1419 11.6202C17.1162 11.1945 16.9593 10.8437 16.6711 10.5681C16.3563 10.317 16.002 10.1914 15.6082 10.1914L15.019 10.3047C14.8097 10.4048 14.6656 10.5048 14.5867 10.6049C14.4297 10.705 14.3118 10.8428 14.2329 11.0184L14.0759 11.6202H17.1419ZM9.9085 11.7335C9.82956 11.658 9.71114 11.6202 9.55325 11.6202H7.07648V13.7273H9.47478L9.86856 13.6509L10.2224 13.4257C10.327 13.2501 10.3926 13.1373 10.4193 13.0873C10.4716 13.0118 10.4977 12.8739 10.4977 12.6738C10.4977 12.4982 10.4716 12.3726 10.4193 12.2971C10.3926 12.1725 10.327 12.0597 10.2224 11.9587C10.1434 11.8586 10.0388 11.7836 9.9085 11.7335ZM10.1824 9.40128C10.1824 9.12561 10.104 8.8877 9.94702 8.68755C9.76345 8.51196 9.54089 8.42417 9.27932 8.42417H7.07648V10.4166H9.19943C9.48858 10.4166 9.72493 10.3293 9.9085 10.1546C10.0911 9.97899 10.1824 9.72789 10.1824 9.40128Z" fill="white"/>
</svg>
