<?xml version="1.0" standalone="no"?>
<!DOCTYPE svg PUBLIC "-//W3C//DTD SVG 1.1//EN" "http://www.w3.org/Graphics/SVG/1.1/DTD/svg11.dtd" >
<svg>
<metadata>
Created by FontForge 20090914 at Sat Feb 27 16:11:24 2021
 By www-data
Copyright (c) Olivier Gourvat - Mostardesign Studio, 2012. All rights reserved.
</metadata>
<defs>
<font id="SofiaProBlack" horiz-adv-x="580" >
  <font-face 
    font-family="Sofia Pro Black"
    font-weight="400"
    font-stretch="normal"
    units-per-em="1000"
    panose-1="2 11 0 0 0 0 0 0 0 0"
    ascent="750"
    descent="-250"
    x-height="466"
    cap-height="689"
    bbox="-186 -302.001 1207 1138"
    underline-thickness="50"
    underline-position="-200"
    unicode-range="U+0020-U+FB04"
  />
<missing-glyph horiz-adv-x="635" 
d="M80 0v665h475v-665h-475zM185 431l62 0.000976562c0 24.667 7 44.667 21 60s31.667 23 53 23s40 -6.83301 56 -20.5s24 -31.167 24 -52.5c0 -20 -8 -36.667 -24 -50c-10 -11.333 -21 -18.333 -33 -21c-30 -8.66699 -53 -21.334 -69 -38.001s-24 -40.667 -24 -72v-38h62
v38c0 14.667 4.16699 25.5 12.5 32.5s20.833 12.833 37.5 17.5c28.667 8.66699 52.334 24.667 71.001 48s28 51 28 83c0 40 -13.833 72.5 -41.5 97.5s-60.834 37.5 -99.501 37.5c-38 0 -70.167 -13.333 -96.5 -40s-39.5 -61.667 -39.5 -105zM237 131.001
c0 -12 4.5 -22.167 13.5 -30.5s19.833 -12.5 32.5 -12.5c12 0 22.5 4.16699 31.5 12.5s13.5 18.5 13.5 30.5s-4.5 22.167 -13.5 30.5s-19.5 12.5 -31.5 12.5c-12.667 0 -23.5 -4.16699 -32.5 -12.5s-13.5 -18.5 -13.5 -30.5z" />
    <glyph glyph-name="f_f" unicode="ff" horiz-adv-x="797" 
d="M806 711l0.00195312 -151h-60c-19.333 0 -34.833 -6.5 -46.5 -19.5s-17.834 -32.167 -18.501 -57.5v-17h98v-117h-98v-349h-159v349h-256v-349h-159v349h-87v117h87v17c0 74 19.833 130.5 59.5 169.5s94.5 58.5 164.5 58.5h60v-151h-60
c-19.333 0 -34.833 -6.5 -46.5 -19.5s-17.834 -32.167 -18.501 -57.5v-17h256v17c0 74 19.833 130.5 59.5 169.5s94.5 58.5 164.5 58.5h60z" />
    <glyph glyph-name="fi" unicode="fi" horiz-adv-x="728" 
d="M510 349h-243.999v-349h-159v349h-87v117h87v17c0 74 19.833 130.5 59.5 169.5s94.5 58.5 164.5 58.5h60v-151h-60c-19.333 0 -34.833 -6.5 -46.5 -19.5s-17.834 -32.167 -18.501 -57.5v-17h263h140v-466h-159v349zM493.001 621c0 25.333 9.5 46.666 28.5 63.999
s41.5 26 67.5 26c26.667 0 49.167 -8.66699 67.5 -26s27.5 -38.666 27.5 -63.999s-9.16699 -46.833 -27.5 -64.5s-40.833 -26.5 -67.5 -26.5c-26 0 -48.5 9 -67.5 27s-28.5 39.333 -28.5 64z" />
    <glyph glyph-name="fl" unicode="fl" horiz-adv-x="712" 
d="M493 560h-161.999c-19.333 0 -34.833 -6.5 -46.5 -19.5s-17.834 -32.167 -18.501 -57.5v-17h98v-117h-98v-349h-159v349h-87v117h87v17c0 74 19.833 130.5 59.5 169.5s94.5 58.5 164.5 58.5h321v-711h-159v560z" />
    <glyph glyph-name="f_f_i" unicode="ffi" horiz-adv-x="1143" 
d="M925 0l0.00195312 349h-244v-349h-159v349h-256v-349h-159v349h-87v117h87v17c0 74 19.833 130.5 59.5 169.5s94.5 58.5 164.5 58.5h60v-151h-60c-19.333 0 -34.833 -6.5 -46.5 -19.5s-17.834 -32.167 -18.501 -57.5v-17h256v17c0 74 19.833 130.5 59.5 169.5
s94.5 58.5 164.5 58.5h60v-151h-60c-19.333 0 -34.833 -6.5 -46.5 -19.5s-17.834 -32.167 -18.501 -57.5v-17h403v-466h-159zM908.002 621c0 25.333 9.5 46.666 28.5 63.999s41.5 26 67.5 26c26.667 0 49.167 -8.66699 67.5 -26s27.5 -38.666 27.5 -63.999
s-9.16699 -46.833 -27.5 -64.5s-40.833 -26.5 -67.5 -26.5c-26 0 -48.5 9 -67.5 27s-28.5 39.333 -28.5 64z" />
    <glyph glyph-name="f_f_l" unicode="ffl" horiz-adv-x="1127" 
d="M908 0l0.00195312 560h-162c-19.333 0 -34.833 -6.5 -46.5 -19.5s-17.834 -32.167 -18.501 -57.5v-17h98v-117h-98v-349h-159v349h-256v-349h-159v349h-87v117h87v17c0 74 19.833 130.5 59.5 169.5s94.5 58.5 164.5 58.5h60v-151h-60c-19.333 0 -34.833 -6.5 -46.5 -19.5
s-17.834 -32.167 -18.501 -57.5v-17h256v17c0 74 19.833 130.5 59.5 169.5s94.5 58.5 164.5 58.5h321v-711h-159z" />
    <glyph glyph-name="f_f_j" unicode="ffj" horiz-adv-x="1121" 
d="M778 -237l0.000976562 151h60c19.333 0 34.833 6.5 46.5 19.5s17.834 32.167 18.501 57.5v358h-222v-349h-159v349h-256v-349h-159v349h-87v117h87v17c0 74 19.833 130.5 59.5 169.5s94.5 58.5 164.5 58.5h60v-151h-60c-19.333 0 -34.833 -6.5 -46.5 -19.5
s-17.834 -32.167 -18.501 -57.5v-17h256v17c0 74 19.833 130.5 59.5 169.5s94.5 58.5 164.5 58.5h60v-151h-60c-19.333 0 -34.833 -6.5 -46.5 -19.5s-17.834 -32.167 -18.501 -57.5v-17h381v-475c0 -74 -19.833 -130.5 -59.5 -169.5s-94.5 -58.5 -164.5 -58.5h-60z
M887.001 621c0 25.333 9.5 46.666 28.5 63.999s41.5 26 67.5 26c26.667 0 49.167 -8.66699 67.5 -26s27.5 -38.666 27.5 -63.999s-9.16699 -46.833 -27.5 -64.5s-40.833 -26.5 -67.5 -26.5c-26 0 -48.5 9 -67.5 27s-28.5 39.333 -28.5 64z" />
    <glyph glyph-name="f_j" unicode="fj" horiz-adv-x="706" 
d="M363 -237v151h60c19.333 0 34.833 6.5 46.5 19.5s17.834 32.167 18.501 57.5v358h-222v-349h-159v349h-87v117h87v17c0 74 19.833 130.5 59.5 169.5s94.5 58.5 164.5 58.5h60v-151h-60c-19.333 0 -34.833 -6.5 -46.5 -19.5s-17.834 -32.167 -18.501 -57.5v-17h381v-475
c0 -74 -19.833 -130.5 -59.5 -169.5s-94.5 -58.5 -164.5 -58.5h-60zM472 621c0 25.333 9.5 46.666 28.5 63.999s41.5 26 67.5 26c26.667 0 49.167 -8.66699 67.5 -26s27.5 -38.666 27.5 -63.999s-9.16699 -46.833 -27.5 -64.5s-40.833 -26.5 -67.5 -26.5
c-26 0 -48.5 9 -67.5 27s-28.5 39.333 -28.5 64z" />
    <glyph glyph-name=".notdef" horiz-adv-x="635" 
d="M80 0v665h475v-665h-475zM185 431l62 0.000976562c0 24.667 7 44.667 21 60s31.667 23 53 23s40 -6.83301 56 -20.5s24 -31.167 24 -52.5c0 -20 -8 -36.667 -24 -50c-10 -11.333 -21 -18.333 -33 -21c-30 -8.66699 -53 -21.334 -69 -38.001s-24 -40.667 -24 -72v-38h62
v38c0 14.667 4.16699 25.5 12.5 32.5s20.833 12.833 37.5 17.5c28.667 8.66699 52.334 24.667 71.001 48s28 51 28 83c0 40 -13.833 72.5 -41.5 97.5s-60.834 37.5 -99.501 37.5c-38 0 -70.167 -13.333 -96.5 -40s-39.5 -61.667 -39.5 -105zM237 131.001
c0 -12 4.5 -22.167 13.5 -30.5s19.833 -12.5 32.5 -12.5c12 0 22.5 4.16699 31.5 12.5s13.5 18.5 13.5 30.5s-4.5 22.167 -13.5 30.5s-19.5 12.5 -31.5 12.5c-12.667 0 -23.5 -4.16699 -32.5 -12.5s-13.5 -18.5 -13.5 -30.5z" />
    <glyph glyph-name="space" unicode=" " horiz-adv-x="238" 
 />
    <glyph glyph-name="exclam" unicode="!" horiz-adv-x="295" 
d="M82 231l-18 458h167l-18 -458h-131zM52 84c0 26 9.16699 47.667 27.5 65s40.5 26 66.5 26c26.667 0 49.334 -8.66699 68.001 -26s28 -39 28 -65c0 -26.667 -9.33301 -48.834 -28 -66.501s-41.334 -26.5 -68.001 -26.5c-26 0 -48.167 8.83301 -66.5 26.5
s-27.5 39.834 -27.5 66.501z" />
    <glyph glyph-name="quotedbl" unicode="&#x22;" horiz-adv-x="414" 
d="M164 388h-89l-20 301h129zM339 388h-89l-20 301h129z" />
    <glyph glyph-name="numbersign" unicode="#" horiz-adv-x="751" 
d="M451 420h-100l-53 -165h99zM653 689l-55 -174h119l-27 -95h-119l-53 -165h119l-29 -95h-118l-54 -160h-118l52 160h-100l-53 -160h-118l54 160h-118l27 95h117l52 165h-116l28 95h117l53 174h121l-54 -174h99l55 174h119z" />
    <glyph glyph-name="dollar" unicode="$" horiz-adv-x="584" 
d="M254 696l0.00195312 108.999h77v-110c58 -8 104.833 -30.5 140.5 -67.5s53.5 -85.167 53.5 -144.5h-167c0 42.667 -24 64 -72 64c-22.667 0 -40.5 -5 -53.5 -15s-19.5 -23.333 -19.5 -40c0 -24.667 21.333 -43.334 64 -56.001l79 -25
c127.333 -39.333 191 -109.333 191 -210c0 -62.667 -21 -111.334 -63 -146.001s-93 -55 -153 -61v-120h-77v119c-66.667 6.66699 -119.334 28.834 -158.001 66.501s-58 86.167 -58 145.5h169c1.33301 -20 9 -36.167 23 -48.5s34.667 -18.5 62 -18.5
c23.333 0 43.333 5.33301 60 16s25 26 25 46c0 6 -0.666992 11 -2 15s-7.66602 10.333 -18.999 19s-27.333 16.334 -48 23.001l-81 27c-36.667 10 -67.667 23.333 -93 40s-43.833 34.834 -55.5 54.501s-19.834 38.167 -24.501 55.5s-7 35 -7 53
c0 56.667 19.167 104 57.5 142s88.166 60.333 149.499 67z" />
    <glyph glyph-name="percent" unicode="%" horiz-adv-x="699" 
d="M465 656l-329 -656h94l330 656h-95zM35 535c0 37.333 12.833 69 38.5 95s57.167 39 94.5 39s69 -13.167 95 -39.5s39 -57.833 39 -94.5c0 -37.333 -13 -68.833 -39 -94.5s-57.667 -38.5 -95 -38.5s-68.833 12.833 -94.5 38.5s-38.5 57.167 -38.5 94.5zM121 535
c0 -13.333 4.5 -24.502 13.5 -33.502s20.167 -13.5 33.5 -13.5s24.666 4.5 33.999 13.5s14 20.167 14 33.5c0 12.667 -4.66699 23.834 -14 33.501s-20.666 14.5 -33.999 14.5s-24.5 -4.66699 -33.5 -14s-13.5 -20.666 -13.5 -33.999zM397 123.998
c0 37.333 12.833 69 38.5 95s57.167 39 94.5 39s69 -13 95 -39s39 -57.667 39 -95s-13 -68.833 -39 -94.5s-57.667 -38.5 -95 -38.5s-68.833 12.833 -94.5 38.5s-38.5 57.167 -38.5 94.5zM483 123.998c0 -13.333 4.5 -24.5 13.5 -33.5s20.167 -13.5 33.5 -13.5
s24.666 4.5 33.999 13.5s14 20.167 14 33.5s-4.66699 24.666 -14 33.999s-20.666 14 -33.999 14s-24.5 -4.66699 -33.5 -14s-13.5 -20.666 -13.5 -33.999z" />
    <glyph glyph-name="ampersand" unicode="&#x26;" horiz-adv-x="709" 
d="M267 -10c-65.333 0 -117.667 18.5 -157 55.5s-59 84.833 -59 143.5c0 44 11.333 80.667 34 110s51 48.666 85 57.999c-28.667 5.33301 -52.834 22.333 -72.501 51s-29.5 62.334 -29.5 101.001c0 50 19.5 92.833 58.5 128.5s89.167 55.5 150.5 59.5
c86.667 6 156.667 -22.333 210 -85l-120 -96c-14.667 18 -32 27 -52 27c-22.667 0 -40 -6.33301 -52 -19s-18 -25.667 -18 -39c0 -5.33301 0.5 -10.5 1.5 -15.5s3.66699 -12.333 8 -22s12.5 -17.334 24.5 -23.001s27 -8.5 45 -8.5h90v71h147v-76h86v-117h-86v-83
c0 -47.333 7.33301 -77.5 22 -90.5s42.667 -8.83301 84 12.5v-118c-58.667 -22 -108.167 -27.667 -148.5 -17s-66.166 38 -77.499 82c-15.333 -27.333 -40 -49.166 -74 -65.499s-67.333 -24.5 -100 -24.5zM413.999 284l-94.998 -0.00195312
c-26.667 0 -47.834 -7.16699 -63.501 -21.5s-23.667 -30.333 -24 -48s7.33398 -33.667 23.001 -48s37.167 -21.5 64.5 -21.5c7.33301 0 15.666 1.5 24.999 4.5s19.666 8.33301 30.999 16s20.833 20.334 28.5 38.001s11.167 38.834 10.5 63.501v17z" />
    <glyph glyph-name="quotesingle" unicode="'" horiz-adv-x="239" 
d="M164 388h-89l-20 301h129z" />
    <glyph glyph-name="parenleft" unicode="(" horiz-adv-x="398" 
d="M34 226c0 132 32.499 243.5 97.499 334.5s143.833 136.5 236.5 136.5v-116c-30 0 -61 -17.833 -93 -53.5s-58.5 -81.334 -79.5 -137.001s-31.5 -110.5 -31.5 -164.5c0 -53.333 10.5 -107 31.5 -161s47.333 -98 79 -132s62.834 -51 93.501 -51v-115
c-93.333 0 -172.333 43.833 -237 131.5s-97 196.834 -97 327.501z" />
    <glyph glyph-name="parenright" unicode=")" horiz-adv-x="398" 
d="M364 226c0 -130.667 -32.334 -239.834 -97.001 -327.501s-143.667 -131.5 -237 -131.5v115c30.667 0 61.834 17 93.501 51s58 78 79 132s31.5 107.667 31.5 161c0 54 -10.5 108.833 -31.5 164.5s-47.5 101.334 -79.5 137.001s-63 53.5 -93 53.5v116
c92.667 0 171.5 -45.5 236.5 -136.5s97.5 -202.5 97.5 -334.5z" />
    <glyph glyph-name="asterisk" unicode="*" horiz-adv-x="472" 
d="M162 340l-76 58l82 101l-126 36l31 93l121 -48l-8 131h100l-9 -130l123 47l29 -93l-125 -34l83 -104l-78 -55l-71 108z" />
    <glyph glyph-name="plus" unicode="+" horiz-adv-x="503" 
d="M457 181h-152v-152h-108v152h-151v108h151v151h108v-151h152v-108z" />
    <glyph glyph-name="comma" unicode="," horiz-adv-x="275" 
d="M79 -123l-81.999 40.001c27.333 37.333 47.166 72.5 59.499 105.5s18.5 78.167 18.5 135.5h141c0 -110.667 -45.667 -204.334 -137 -281.001z" />
    <glyph glyph-name="hyphen" unicode="-" horiz-adv-x="471" 
d="M413 175h-355v135h355v-135z" />
    <glyph glyph-name="period" unicode="." horiz-adv-x="288" 
d="M49 84c0 26 9.16699 47.667 27.5 65s40.5 26 66.5 26c26.667 0 49.334 -8.66699 68.001 -26s28 -39 28 -65c0 -26.667 -9.33301 -48.834 -28 -66.501s-41.334 -26.5 -68.001 -26.5c-26 0 -48.167 8.83301 -66.5 26.5s-27.5 39.834 -27.5 66.501z" />
    <glyph glyph-name="slash" unicode="/" horiz-adv-x="501" 
d="M29 0l327 689h116l-327 -689h-116z" />
    <glyph glyph-name="zero" unicode="0" horiz-adv-x="604" 
d="M215 327c0 -54 7.16699 -97.833 21.5 -131.5s36.833 -50.5 67.5 -50.5c56.667 0 85 60.667 85 182c0 122.667 -28.333 184 -85 184c-30.667 0 -53.167 -17 -67.5 -51s-21.5 -78.333 -21.5 -133zM55 327c0 226 83 339 249 339c46 0 85.5 -8.5 118.5 -25.5
s58.333 -41.5 76 -73.5s30.5 -67.5 38.5 -106.5s12 -83.5 12 -133.5c0 -224 -81.667 -336 -245 -336c-166 0 -249 112 -249 336z" />
    <glyph glyph-name="one" unicode="1" horiz-adv-x="396" 
d="M36 531l278 140v-671h-163v446l-115 -52v137z" />
    <glyph glyph-name="two" unicode="2" horiz-adv-x="568" 
d="M509 144v-143.999h-461v90l271 314c20 22.667 30 42.667 30 60c0 14 -5.5 26.333 -16.5 37s-28.5 16 -52.5 16c-26.667 0 -46 -7.83301 -58 -23.5s-20.333 -37.5 -25 -65.5l-144 22c10.667 67.333 36.667 120.166 78 158.499s95 57.5 161 57.5
c59.333 0 110.333 -19 153 -57s64 -86.333 64 -145c0 -59.333 -22.667 -114 -68 -164l-145 -156h213z" />
    <glyph glyph-name="three" unicode="3" horiz-adv-x="549" 
d="M243 278l-66.999 -0.00292969v123h67c15.333 0 28.166 3 38.499 9s17.5 13.833 21.5 23.5s6.5 17.5 7.5 23.5s1.5 11.667 1.5 17c0 10.667 -5.83301 23.167 -17.5 37.5s-28.5 21.5 -50.5 21.5c-33.333 0 -63 -13.667 -89 -41l-94 77c20.667 31.333 49.667 56 87 74
s78.333 25.667 123 23c58 -2.66699 106 -22.167 144 -58.5s56.333 -78.5 55 -126.5c0 -53.333 -28.667 -95.666 -86 -126.999c36 -13.333 64.167 -34 84.5 -62s30.5 -60 30.5 -96c0 -63.333 -24.667 -113.166 -74 -149.499s-109 -54.5 -179 -54.5
c-48 0 -90.833 10.667 -128.5 32s-65.5 51 -83.5 89l102 90c8 -18 21.333 -34.5 40 -49.5s42 -22.5 70 -22.5c31.333 0 55 7.33301 71 22s24 32.334 24 53.001c0 20 -8.33301 37 -25 51s-41 21 -73 21z" />
    <glyph glyph-name="four" unicode="4" horiz-adv-x="630" 
d="M582 283v-131h-78v-152h-162v152h-323l283 504h202v-373h78zM342 502l-117 -219h117v219z" />
    <glyph glyph-name="five" unicode="5" horiz-adv-x="604" 
d="M400 239c0 28.667 -10.166 51.166 -30.499 67.499s-46.5 24.5 -78.5 24.5c-62 0 -116 -23.333 -162 -70l-69 39l52 356h398v-139h-272l-14 -89c35.333 24 75.666 36 120.999 36c59.333 0 109.666 -20.667 150.999 -62s62 -95.666 62 -162.999
c0 -72 -25.5 -131.5 -76.5 -178.5s-118.833 -70.5 -203.5 -70.5c-44.667 0 -88.667 11.5 -132 34.5s-78.666 53.167 -105.999 90.5l124 90c36 -42.667 74 -64 114 -64c34 0 62.833 10.333 86.5 31s35.5 43 35.5 67z" />
    <glyph glyph-name="six" unicode="6" horiz-adv-x="598" 
d="M345 421c20 0 40.9971 -3.66602 62.9971 -10.999s44 -18.333 66 -33s40.167 -36.167 54.5 -64.5s21.5 -60.833 21.5 -97.5c0 -66 -22 -119.833 -66 -161.5s-105.667 -62.5 -185 -62.5c-63.333 0 -116.833 20.667 -160.5 62s-70.167 97 -79.5 167
c-6 33.333 -8.33301 67.666 -7 102.999s4.33301 69.833 9 103.5s14.167 65.167 28.5 94.5s31.5 55 51.5 77s46.333 39.167 79 51.5s69.334 17.833 110.001 16.5c46.667 -2 87.334 -12.167 122.001 -30.5s63.334 -50.833 86.001 -97.5l-130 -62c-16 34 -43.667 51 -83 51
c-23.333 0 -43.333 -5.83301 -60 -17.5s-29.167 -27.167 -37.5 -46.5s-14.5 -38.333 -18.5 -57s-6 -38 -6 -58c4 16 18.167 32.167 42.5 48.5s57.5 24.5 99.5 24.5zM225.997 212.001c0 -22 7.49805 -40.667 22.498 -56s34.833 -23 59.5 -23s44.834 7.66699 60.501 23
s23.5 34 23.5 56c0 19.333 -7.66699 36.833 -23 52.5s-35.666 23.5 -60.999 23.5c-23.333 0 -42.833 -7.83301 -58.5 -23.5s-23.5 -33.167 -23.5 -52.5z" />
    <glyph glyph-name="seven" unicode="7" horiz-adv-x="549" 
d="M40 511v145h496l-262 -656h-180l205 511h-259z" />
    <glyph glyph-name="eight" unicode="8" horiz-adv-x="611" 
d="M211 220c0 -24.667 8.83008 -45.166 26.4971 -61.499s40.834 -24.5 69.501 -24.5s51.667 8.16699 69 24.5s26 36.833 26 61.5c0 22 -8.66699 41.5 -26 58.5s-38.666 25.5 -63.999 25.5h-8c-27.333 0 -49.666 -8.33301 -66.999 -25s-26 -36.334 -26 -59.001z
M89.9971 487.001c0 51.333 21.332 94.0029 63.999 128.003s93.667 51 153 51c58.667 0 108.334 -16.833 149.001 -50.5s61 -76.5 61 -128.5c0 -24.667 -5.16699 -48.334 -15.5 -71.001s-24.5 -38.334 -42.5 -47.001c29.333 -9.33301 54.333 -30.333 75 -63
s31 -66.667 31 -102c0 -62.667 -25 -113.834 -75 -153.501s-111 -59.5 -183 -59.5s-133.167 19.833 -183.5 59.5s-75.5 90.834 -75.5 153.501c0 37.333 9 71.333 27 102s43 51.667 75 63c-18 11.333 -32.5 28.166 -43.5 50.499s-16.5 44.833 -16.5 67.5zM239.996 481.004
c0 -17.333 6.16699 -31.666 18.5 -42.999s28.5 -17 48.5 -17c19.333 0 35 5.66699 47 17s18 25.666 18 42.999c0 14.667 -5.83301 28 -17.5 40s-26.167 18 -43.5 18h-6c-18.667 0 -34.167 -5.83301 -46.5 -17.5s-18.5 -25.167 -18.5 -40.5z" />
    <glyph glyph-name="nine" unicode="9" horiz-adv-x="598" 
d="M252 236c-20 0 -40.9971 3.66602 -62.9971 10.999s-44 18.333 -66 33s-40.167 36.167 -54.5 64.5s-21.5 60.833 -21.5 97.5c0 66 22 119.833 66 161.5s105.667 62.5 185 62.5c63.333 0 116.833 -20.667 160.5 -62s70.167 -97 79.5 -167
c6 -33.333 8.33301 -67.666 7 -102.999s-4.33301 -69.833 -9 -103.5s-14.167 -65.167 -28.5 -94.5s-31.5 -55 -51.5 -77s-46.333 -39.167 -79 -51.5s-69.334 -17.833 -110.001 -16.5c-46.667 2 -87.334 12.167 -122.001 30.5s-63.334 50.833 -86.001 97.5l130 62
c16 -34 43.667 -51 83 -51c23.333 0 43.333 5.83301 60 17.5s29.167 27.167 37.5 46.5s14.5 38.333 18.5 57s6 38 6 58c-4 -16 -18.167 -32.167 -42.5 -48.5s-57.5 -24.5 -99.5 -24.5zM371.003 444.999c0 22 -7.49805 40.667 -22.498 56s-34.833 23 -59.5 23
s-44.834 -7.66699 -60.501 -23s-23.5 -34 -23.5 -56c0 -19.333 7.66699 -36.833 23 -52.5s35.666 -23.5 60.999 -23.5c23.333 0 42.833 7.83301 58.5 23.5s23.5 33.167 23.5 52.5z" />
    <glyph glyph-name="colon" unicode=":" horiz-adv-x="309" 
d="M60 84c0 26 9.16699 47.667 27.5 65s40.5 26 66.5 26s48.167 -8.66699 66.5 -26s27.5 -39 27.5 -65c0 -26.667 -9.16699 -48.834 -27.5 -66.501s-40.5 -26.5 -66.5 -26.5s-48.167 8.83301 -66.5 26.5s-27.5 39.834 -27.5 66.501zM60 384
c0 26.667 9.16699 48.834 27.5 66.501s40.5 26.5 66.5 26.5s48.167 -8.83301 66.5 -26.5s27.5 -39.834 27.5 -66.501c0 -26 -9.16699 -47.667 -27.5 -65s-40.5 -26 -66.5 -26s-48.167 8.66699 -66.5 26s-27.5 39 -27.5 65z" />
    <glyph glyph-name="semicolon" unicode=";" horiz-adv-x="300" 
d="M61 384c0 26.667 9.16699 48.834 27.5 66.501s40.5 26.5 66.5 26.5s48.167 -8.83301 66.5 -26.5s27.5 -39.834 27.5 -66.501c0 -26 -9.16699 -47.667 -27.5 -65s-40.5 -26 -66.5 -26s-48.167 8.66699 -66.5 26s-27.5 39 -27.5 65zM92 -123l-81.999 40.001
c27.333 37.333 47.166 72.5 59.499 105.5s18.5 78.167 18.5 135.5h141c0 -110.667 -45.667 -204.334 -137 -281.001z" />
    <glyph glyph-name="less" unicode="&#x3c;" horiz-adv-x="616" 
d="M543 60l-500 192v122l500 191v-115l-353 -138l353 -136v-116z" />
    <glyph glyph-name="equal" unicode="=" horiz-adv-x="592" 
d="M66 165v102h460v-102h-460zM526 471v-102h-460v102h460z" />
    <glyph glyph-name="greater" unicode="&#x3e;" horiz-adv-x="616" 
d="M573 252l-500 -192v116l353 136l-353 138v115l500 -191v-122z" />
    <glyph glyph-name="question" unicode="?" horiz-adv-x="496" 
d="M280 231l-143.002 -0.000976562v12c0 23.333 0.833008 42.333 2.5 57s5.83398 30.667 12.501 48s17.334 32.5 32.001 45.5s33.667 24.5 57 34.5l37 16c22.667 9.33301 34 26 34 50c0 17.333 -6 30.666 -18 39.999s-28 14 -48 14c-17.333 0 -32.333 -6 -45 -18
s-19 -27.333 -19 -46h-144c0 69.333 19 122.5 57 159.5s89.333 55.5 154 55.5c63.333 0 114.333 -17.667 153 -53s58 -82.666 58 -141.999c0 -47.333 -11.333 -87 -34 -119s-54 -55.333 -94 -70c-20 -7.33301 -33.667 -17.166 -41 -29.499s-11 -30.5 -11 -54.5z
M115.998 83.999c0 26 9.16699 47.667 27.5 65s40.5 26 66.5 26c26.667 0 49.334 -8.66699 68.001 -26s28 -39 28 -65c0 -26.667 -9.33301 -48.834 -28 -66.501s-41.334 -26.5 -68.001 -26.5c-26 0 -48.167 8.83301 -66.5 26.5s-27.5 39.834 -27.5 66.501z" />
    <glyph glyph-name="at" unicode="@" horiz-adv-x="963" 
d="M577 150l-0.00292969 125c0 31.333 -10.833 57.833 -32.5 79.5s-47.834 32.5 -78.501 32.5c-30 0 -56 -10.833 -78 -32.5s-33 -48.167 -33 -79.5c0 -29.333 11 -55 33 -77s48 -33 78 -33c28.667 0 52.334 5.33301 71.001 16v-98c-17.333 -8.66699 -41 -13 -71 -13
c-57.333 0 -106.166 20 -146.499 60s-60.5 88.333 -60.5 145c0 58 20.167 107 60.5 147s89.166 60 146.499 60c56.667 0 105 -19.167 145 -57.5s61 -84.833 63 -139.5v-140c0 -20 5.66699 -35.167 17 -45.5s24.333 -15.5 39 -15.5c19.333 0 36 6.83301 50 20.5
s24.333 31.834 31 54.501s11.5 44.5 14.5 65.5s4.5 42.167 4.5 63.5c0 92.667 -34.667 170.167 -104 232.5s-152.666 93.5 -249.999 93.5c-94 0 -173.5 -33.5 -238.5 -100.5s-97.5 -148.167 -97.5 -243.5c0 -94.667 32.333 -174.667 97 -240s144.334 -98 239.001 -98h61v-97
h-61c-121.333 0 -223.666 42 -306.999 126s-125 187 -125 309s41.833 225.833 125.5 311.5s185.834 128.5 306.501 128.5c80.667 0 155.334 -18.167 224.001 -54.5s123.667 -87 165 -152s62 -136.833 62 -215.5c0 -32 -3.5 -64.333 -10.5 -97s-17.833 -64.334 -32.5 -95.001
s-35.334 -55.667 -62.001 -75s-57.334 -29 -92.001 -29c-44 0 -80.5 12.667 -109.5 38s-43.5 65.333 -43.5 120z" />
    <glyph glyph-name="A" unicode="A" horiz-adv-x="667" 
d="M501 0l-58 158h-217l-58 -158h-179l254 689h182l253 -689h-177zM333 529l-62 -227h129z" />
    <glyph glyph-name="B" unicode="B" horiz-adv-x="644" 
d="M570 504c0 -26 -7.66699 -52.665 -23 -79.998s-40 -46 -74 -56c43.333 -6.66699 76.333 -26.334 99 -59.001s34 -67.667 34 -105c0 -56.667 -18.333 -104.834 -55 -144.501s-94 -59.5 -172 -59.5h-302v689h282c64 0 115.167 -17 153.5 -51s57.5 -78.667 57.5 -134z
M245 423.002l90 0.000976562c17.333 0 31.333 5.16699 42 15.5s16 24.166 16 41.499c0 42 -18.667 63 -56 63h-92v-120zM351 286.003h-106v-140h107c24.667 0 43.667 7 57 21s20 30.667 20 50c0 18 -6.5 34 -19.5 48s-32.5 21 -58.5 21z" />
    <glyph glyph-name="C" unicode="C" horiz-adv-x="707" 
d="M545 245l137.001 -96.002c-32 -48.667 -73.833 -87.167 -125.5 -115.5s-107.5 -42.5 -167.5 -42.5c-96.667 0 -179.334 34.5 -248.001 103.5s-103 152.167 -103 249.5c0 98 34.167 181.5 102.5 250.5s151.166 103.5 248.499 103.5
c60.667 0 116.834 -14.167 168.501 -42.5s93.5 -66.833 125.5 -115.5l-139 -97c-16 26.667 -37.833 47.834 -65.5 63.501s-57.5 23.5 -89.5 23.5c-50.667 0 -93.667 -18.167 -129 -54.5s-53 -80.166 -53 -131.499s17.667 -95 53 -131s78.333 -54 129 -54
c32.667 0 62.667 7.66699 90 23s49.333 36.333 66 63z" />
    <glyph glyph-name="D" unicode="D" horiz-adv-x="705" 
d="M245 540v-391h105c46 0 81.833 18.833 107.5 56.5s38.5 83.5 38.5 137.5c0 54.667 -12.833 101.167 -38.5 139.5s-61.5 57.5 -107.5 57.5h-105zM77 0v689h273c96.667 0 173 -32.5 229 -97.5s84 -147.833 84 -248.5c0 -100 -27.833 -182.167 -83.5 -246.5
s-132.167 -96.5 -229.5 -96.5h-273z" />
    <glyph glyph-name="E" unicode="E" horiz-adv-x="581" 
d="M533 0h-456v689h447v-146h-280v-132h246v-143h-246v-122h289v-146z" />
    <glyph glyph-name="F" unicode="F" horiz-adv-x="545" 
d="M246 0h-169v689h443v-146h-274v-132h217v-144h-217v-267z" />
    <glyph glyph-name="G" unicode="G" horiz-adv-x="756" 
d="M662 576l-124.002 -104.998c-39.333 48 -87.666 72 -144.999 72c-52 0 -96 -19.333 -132 -58s-54 -85.667 -54 -141c0 -54.667 18 -101.834 54 -141.501s80 -59.5 132 -59.5c90.667 0 143.334 30.667 158.001 92h-193v134h375c0 -126.667 -30.667 -221.334 -92 -284.001
s-144 -94 -248 -94c-99.333 0 -183.333 34.5 -252 103.5s-103 152.167 -103 249.5c0 98 34.333 181.5 103 250.5s152.667 103.5 252 103.5c54.667 0 105.5 -10.833 152.5 -32.5s85.833 -51.5 116.5 -89.5z" />
    <glyph glyph-name="H" unicode="H" horiz-adv-x="701" 
d="M454 417v272h170v-689h-170v268h-210v-268h-167v689h167v-272h210z" />
    <glyph glyph-name="I" unicode="I" horiz-adv-x="321" 
d="M77 0v689h167v-689h-167z" />
    <glyph glyph-name="J" unicode="J" horiz-adv-x="323" 
d="M-97 -211l15.001 150c22.667 -8 54.667 -12 96 -12c21.333 0 37.166 7.33301 47.499 22s15.5 34 15.5 58v682h169v-682c0 -70 -18.833 -127 -56.5 -171s-96.167 -66 -175.5 -66c-36.667 0 -73.667 6.33301 -111 19z" />
    <glyph glyph-name="K" unicode="K" horiz-adv-x="633" 
d="M331 349l322 -349h-229l-180 210v-210h-167v689h167v-197l137 197h209z" />
    <glyph glyph-name="L" unicode="L" horiz-adv-x="518" 
d="M494 0h-417v689h169v-543h248v-146z" />
    <glyph glyph-name="M" unicode="M" horiz-adv-x="913" 
d="M457 270l191 419h141l84 -689h-172l-42 371l-139 -291h-126l-140 291l-43 -371h-172l85 689h139z" />
    <glyph glyph-name="N" unicode="N" horiz-adv-x="678" 
d="M434 689h167v-689h-146l-211 376v-376h-167v689h151l206 -371v371z" />
    <glyph glyph-name="O" unicode="O" horiz-adv-x="779" 
d="M38 344c0 98 34.1689 181.5 102.502 250.5s151.166 103.5 248.499 103.5c98 0 181.167 -34.5 249.5 -103.5s102.5 -152.5 102.5 -250.5c0 -97.333 -34.167 -180.5 -102.5 -249.5s-151.5 -103.5 -249.5 -103.5c-96.667 0 -179.334 34.5 -248.001 103.5
s-103 152.167 -103 249.5zM207.002 344c0 -51.333 17.667 -95 53 -131s78.333 -54 129 -54c51.333 0 94.833 18 130.5 54s53.5 79.667 53.5 131s-18 95.166 -54 131.499s-79.333 54.5 -130 54.5s-93.667 -18.167 -129 -54.5s-53 -80.166 -53 -131.499z" />
    <glyph glyph-name="P" unicode="P" horiz-adv-x="618" 
d="M244 0h-167v689h285c76 0 134.333 -22.667 175 -68s61 -99.333 61 -162c0 -63.333 -20.333 -117.333 -61 -162s-99 -67 -175 -67h-118v-230zM354 543l-110 0.000976562v-169h110c25.333 0 44.166 8.33301 56.499 25s18.5 36.667 18.5 60s-6.16699 43.166 -18.5 59.499
s-31.166 24.5 -56.499 24.5z" />
    <glyph glyph-name="Q" unicode="Q" horiz-adv-x="786" 
d="M604 59l64 -107.999l-116 -69l-72 119c-27.333 -6.66699 -56.333 -10 -87 -10c-99.333 0 -183.333 34.5 -252 103.5s-103 152.167 -103 249.5c0 98 34.333 181.5 103 250.5s152.667 103.5 252 103.5s183.5 -34.333 252.5 -103s103.5 -152.334 103.5 -251.001
c0 -56.667 -13 -110 -39 -160s-61.333 -91.667 -106 -125zM458 300.001l61.0029 -99.999c40.667 37.333 61 85.333 61 144c0 54.667 -18.333 101.167 -55 139.5s-80.667 57.5 -132 57.5c-52.667 0 -96.834 -19 -132.501 -57s-53.5 -84.667 -53.5 -140
c0 -43.333 12.167 -81.833 36.5 -115.5s56.166 -56.834 95.499 -69.501c11.333 -4.66699 28.666 -8 51.999 -10l-49 83z" />
    <glyph glyph-name="R" unicode="R" horiz-adv-x="642" 
d="M244 0h-167.001v689h285c76 0 134.333 -22.667 175 -68s61 -99.333 61 -162c0 -52 -14.167 -98.5 -42.5 -139.5s-69.166 -68.167 -122.499 -81.5l168 -238h-194l-148 230h-15v-230zM353.999 543l-110 0.000976562v-169h110c25.333 0 44.166 8.33301 56.499 25
s18.5 36.667 18.5 60s-6.16699 43.166 -18.5 59.499s-31.166 24.5 -56.499 24.5z" />
    <glyph glyph-name="S" unicode="S" horiz-adv-x="586" 
d="M40 205l169 -0.000976562c1.33301 -20 9 -36.167 23 -48.5s34.667 -18.5 62 -18.5c23.333 0 43.333 5.33301 60 16s25 26 25 46c0 6 -0.666992 11 -2 15s-7.66602 10.333 -18.999 19s-27.333 16.334 -48 23.001l-81 27c-36.667 10 -67.667 23.333 -93 40
s-43.833 34.834 -55.5 54.501s-19.834 38.167 -24.501 55.5s-7 35 -7 53c0 62.667 22.667 113.5 68 152.5s103 58.5 173 58.5s127 -19.167 171 -57.5s66 -90.833 66 -157.5h-167c0 42.667 -24 64 -72 64c-22.667 0 -40.5 -5 -53.5 -15s-19.5 -23.333 -19.5 -40
c0 -24.667 21.333 -43.334 64 -56.001l79 -25c127.333 -39.333 191 -109.333 191 -210c0 -48 -13.667 -88.5 -41 -121.5s-59.333 -56 -96 -69s-76 -19.5 -118 -19.5c-77.333 0 -139 19.5 -185 58.5s-69 90.833 -69 155.5z" />
    <glyph glyph-name="T" unicode="T" horiz-adv-x="577" 
d="M205 543h-178v146h523v-146h-178v-543h-167v543z" />
    <glyph glyph-name="U" unicode="U" horiz-adv-x="682" 
d="M341 -9c-74 0 -137.833 24.167 -191.5 72.5s-80.5 110.833 -80.5 187.5v438h168v-438c0 -30 10.5 -54.667 31.5 -74s45.167 -29 72.5 -29s51.5 9.66699 72.5 29s31.5 44 31.5 74v438h168v-438c0 -76.667 -26.833 -139.167 -80.5 -187.5s-117.5 -72.5 -191.5 -72.5z" />
    <glyph glyph-name="V" unicode="V" horiz-adv-x="592" 
d="M222 0l-210 689h174l110 -420l108 420h176l-211 -689h-147z" />
    <glyph glyph-name="W" unicode="W" horiz-adv-x="883" 
d="M511 590l77 -293l120 392h182l-234 -689h-129l-87 335l-84 -335h-130l-232 689h181l119 -392l78 293h139z" />
    <glyph glyph-name="X" unicode="X" horiz-adv-x="677" 
d="M456 689h200l-218 -323l238 -366h-197l-140 233l-141 -233h-196l237 366l-218 323h202l116 -191z" />
    <glyph glyph-name="Y" unicode="Y" horiz-adv-x="663" 
d="M415 0h-168v310l-269 379h199l153 -250l156 250h198l-269 -382v-307z" />
    <glyph glyph-name="Z" unicode="Z" horiz-adv-x="602" 
d="M41 123l295 421h-282v145h501v-123l-299 -420h299v-146h-514v123z" />
    <glyph glyph-name="bracketleft" unicode="[" horiz-adv-x="342" 
d="M68 -230v919h243v-108h-114v-700h114v-111h-243z" />
    <glyph glyph-name="backslash" unicode="\" horiz-adv-x="501" 
d="M145 689l327 -689h-116l-327 689h116z" />
    <glyph glyph-name="bracketright" unicode="]" horiz-adv-x="342" 
d="M31 689h243v-919h-243v111h114v700h-114v108z" />
    <glyph glyph-name="underscore" unicode="_" horiz-adv-x="762" 
d="M705 -141h-648v107h648v-107z" />
    <glyph glyph-name="grave" unicode="`" horiz-adv-x="547" 
d="M129 723h148l93 -174h-103z" />
    <glyph glyph-name="a" unicode="a" horiz-adv-x="608" 
d="M389 416l-0.000976562 49.999h159v-466h-159v53c-29.333 -41.333 -72.333 -62 -129 -62c-60.667 0 -113.667 22.333 -159 67s-68 103.334 -68 176.001s22.667 131.5 68 176.5s98.333 67.5 159 67.5c24.667 0 48.834 -5.33301 72.501 -16s42.5 -26 56.5 -46z
M194.999 232.999c0 -26.667 9.5 -49.5 28.5 -68.5s41.833 -28.5 68.5 -28.5s49.5 9.5 68.5 28.5s28.5 41.833 28.5 68.5s-9.5 49.5 -28.5 68.5s-41.833 28.5 -68.5 28.5s-49.5 -9.5 -68.5 -28.5s-28.5 -41.833 -28.5 -68.5z" />
    <glyph glyph-name="b" unicode="b" horiz-adv-x="609" 
d="M219 711v-287.999c33.333 36.667 76.333 55 129 55c60.667 0 113.667 -22.5 159 -67.5s68 -103.833 68 -176.5s-22.667 -131.334 -68 -176.001s-98.333 -67 -159 -67c-28.667 0 -55.667 6.33301 -81 19s-44.333 31.667 -57 57v-67h-150v711h159zM413 233.001
c0 26.667 -9.5 49.5 -28.5 68.5s-41.833 28.5 -68.5 28.5s-49.5 -9.5 -68.5 -28.5s-28.5 -41.833 -28.5 -68.5s9.5 -49.5 28.5 -68.5s41.833 -28.5 68.5 -28.5s49.5 9.5 68.5 28.5s28.5 41.833 28.5 68.5z" />
    <glyph glyph-name="c" unicode="c" horiz-adv-x="526" 
d="M365 180l133.001 -74c-51.333 -76.667 -120 -115 -206 -115c-72 0 -133.167 22.5 -183.5 67.5s-75.5 103.5 -75.5 175.5s25.333 130.667 76 176s111.667 68 183 68c85.333 0 153.666 -38.333 204.999 -115l-130 -78c-18.667 30.667 -46 46 -82 46
c-26.667 0 -49.5 -9.5 -68.5 -28.5s-28.5 -41.833 -28.5 -68.5s9.5 -49.5 28.5 -68.5s41.833 -28.5 68.5 -28.5c33.333 0 60 14.333 80 43z" />
    <glyph glyph-name="d" unicode="d" horiz-adv-x="608" 
d="M389 423v287.999h159v-711h-150v67c-12.667 -25.333 -31.667 -44.333 -57 -57s-52.333 -19 -81 -19c-60.667 0 -113.667 22.333 -159 67s-68 103.334 -68 176.001s22.667 131.5 68 176.5s98.333 67.5 159 67.5c52.667 0 95.667 -18.333 129 -55zM195 232.999
c0 -26.667 9.5 -49.5 28.5 -68.5s41.833 -28.5 68.5 -28.5s49.5 9.5 68.5 28.5s28.5 41.833 28.5 68.5s-9.5 49.5 -28.5 68.5s-41.833 28.5 -68.5 28.5s-49.5 -9.5 -68.5 -28.5s-28.5 -41.833 -28.5 -68.5z" />
    <glyph glyph-name="e" unicode="e" horiz-adv-x="550" 
d="M523 240c0 -8 -0.998047 -25 -2.99805 -51h-334c2.66699 -21.333 14.5 -38.5 35.5 -51.5s44.833 -19.5 71.5 -19.5c37.333 0 67 13 89 39c7.33301 -6 26.166 -19.667 56.499 -41s48.166 -34 53.499 -38c-44 -58 -114.333 -87 -211 -87
c-68.667 0 -127.167 22.833 -175.5 68.5s-72.5 104.5 -72.5 176.5c0 71.333 24.167 129.5 72.5 174.5s106.833 67.5 175.5 67.5s126.167 -21.833 172.5 -65.5s69.5 -101.167 69.5 -172.5zM186.002 278h186.001c-6.66699 26 -19.334 44 -38.001 54s-37 15 -55 15
c-10.667 0 -21.5 -1.33301 -32.5 -4s-23 -9.66699 -36 -21s-21.167 -26 -24.5 -44z" />
    <glyph glyph-name="f" unicode="f" horiz-adv-x="382" 
d="M391 711l0.000976562 -151h-60c-19.333 0 -34.833 -6.5 -46.5 -19.5s-17.834 -32.167 -18.501 -57.5v-17h98v-117h-98v-349h-159v349h-87v117h87v17c0 74 19.833 130.5 59.5 169.5s94.5 58.5 164.5 58.5h60z" />
    <glyph glyph-name="g" unicode="g" horiz-adv-x="608" 
d="M195 233c0 -26.667 9.5 -49.5 28.5 -68.5s41.833 -28.5 68.5 -28.5s49.5 9.5 68.5 28.5s28.5 41.833 28.5 68.5s-9.5 49.5 -28.5 68.5s-41.833 28.5 -68.5 28.5s-49.5 -9.5 -68.5 -28.5s-28.5 -41.833 -28.5 -68.5zM43 -84l134.001 54.001
c8 -18.667 21.167 -33.667 39.5 -45s39.5 -17 63.5 -17c39.333 0 69.666 12.667 90.999 38s32 62.666 32 111.999c-25.333 -44.667 -73 -67 -143 -67c-60.667 0 -113.667 22.333 -159 67s-68 103.334 -68 176.001s22.667 131.5 68 176.5s98.333 67.5 159 67.5
c24.667 0 48.834 -5.33301 72.501 -16s42.5 -26 56.5 -46v50h159v-407c0 -96.667 -23.167 -170.167 -69.5 -220.5s-112.5 -75.5 -198.5 -75.5c-54 0 -102.333 14.167 -145 42.5s-73.334 65.166 -92.001 110.499z" />
    <glyph glyph-name="h" unicode="h" horiz-adv-x="590" 
d="M219 245v-244.999h-159v711h159v-318c7.33301 26.667 24.833 47.5 52.5 62.5s53.834 22.5 78.501 22.5c61.333 0 107.666 -19.833 138.999 -59.5s47 -96.5 47 -170.5v-248h-159v243c0 25.333 -8 45.166 -24 59.499s-33.333 21.5 -52 21.5
c-21.333 0 -40.333 -6.5 -57 -19.5s-25 -32.833 -25 -59.5z" />
    <glyph glyph-name="i" unicode="i" horiz-adv-x="279" 
d="M60 466v-466h159v466h-159zM43 621c0 25.333 9.5 46.666 28.5 63.999s41.5 26 67.5 26c26.667 0 49.167 -8.66699 67.5 -26s27.5 -38.666 27.5 -63.999s-9.16699 -46.833 -27.5 -64.5s-40.833 -26.5 -67.5 -26.5c-26 0 -48.5 9 -67.5 27s-28.5 39.333 -28.5 64z" />
    <glyph glyph-name="j" unicode="j" horiz-adv-x="279" 
d="M-65 -237l-0.000976562 151h60c19.333 0 34.833 6.5 46.5 19.5s17.834 32.167 18.501 57.5v17v458h159v-458v-17c0 -74 -19.833 -130.5 -59.5 -169.5s-94.5 -58.5 -164.5 -58.5h-60zM43.999 621c0 25.333 9.5 46.666 28.5 63.999s41.5 26 67.5 26
c26.667 0 49.167 -8.66699 67.5 -26s27.5 -38.666 27.5 -63.999s-9.16699 -46.833 -27.5 -64.5s-40.833 -26.5 -67.5 -26.5c-26 0 -48.5 9 -67.5 27s-28.5 39.333 -28.5 64z" />
    <glyph glyph-name="k" unicode="k" horiz-adv-x="538" 
d="M352 0l-133 168v-168h-159v711h159v-358l91 113h195l-172 -207l209 -259h-190z" />
    <glyph glyph-name="l" unicode="l" horiz-adv-x="279" 
d="M60 0v711h159v-711h-159z" />
    <glyph glyph-name="m" unicode="m" horiz-adv-x="884" 
d="M525 245l0.000976562 -244.999h-160v243c0 28 -7.66699 48.5 -23 61.5s-33 19.5 -53 19.5s-36.667 -6.16699 -50 -18.5s-20 -32.5 -20 -60.5v-245h-159v466h159v-73c7.33301 27.333 23 48.333 47 63s48 22 72 22c85.333 0 141 -33 167 -99
c16.667 33.333 38 58.166 64 74.499s51 24.5 75 24.5c67.333 0 115.166 -19.167 143.499 -57.5s42.5 -95.833 42.5 -172.5v-248h-159v243c0 28 -7.66699 48.5 -23 61.5s-33 19.5 -53 19.5s-36.667 -6.16699 -50 -18.5s-20 -32.5 -20 -60.5z" />
    <glyph glyph-name="n" unicode="n" horiz-adv-x="590" 
d="M219 245v-245h-159v466h159v-73c7.33301 26.667 24.833 47.5 52.5 62.5s53.834 22.5 78.501 22.5c61.333 0 107.666 -19.833 138.999 -59.5s47 -96.5 47 -170.5v-248h-159v243c0 28 -7.66699 48.5 -23 61.5s-33 19.5 -53 19.5c-21.333 0 -40.333 -6.33301 -57 -19
s-25 -32.667 -25 -60z" />
    <glyph glyph-name="o" unicode="o" horiz-adv-x="563" 
d="M280 -9c-68 0 -126.167 22.667 -174.5 68s-72.5 103.666 -72.5 174.999c0 72 24.167 130.667 72.5 176s106.5 68 174.5 68c68.667 0 127.5 -22.667 176.5 -68s73.5 -104 73.5 -176c0 -71.333 -24.5 -129.666 -73.5 -174.999s-107.833 -68 -176.5 -68zM183 234
c0 -26.667 9.5 -49.5 28.5 -68.5s41.833 -28.5 68.5 -28.5s49.5 9.5 68.5 28.5s28.5 41.833 28.5 68.5s-9.5 49.5 -28.5 68.5s-41.833 28.5 -68.5 28.5s-49.5 -9.5 -68.5 -28.5s-28.5 -41.833 -28.5 -68.5z" />
    <glyph glyph-name="p" unicode="p" horiz-adv-x="609" 
d="M219 43l-0.000976562 -272.999h-159v696h150v-67c12.667 26 31.834 45.667 57.501 59s52.5 20 80.5 20c60.667 0 113.667 -22.333 159 -67s68 -103.334 68 -176.001s-22.667 -131.5 -68 -176.5s-98.333 -67.5 -159 -67.5c-54.667 0 -97.667 17.333 -129 52z
M412.999 236.001c0 26.667 -9.5 49.5 -28.5 68.5s-41.833 28.5 -68.5 28.5c-26 0 -48.667 -10 -68 -30s-29 -43.333 -29 -70c0 -26 9.5 -48.167 28.5 -66.5s41.833 -27.5 68.5 -27.5s49.5 9.5 68.5 28.5s28.5 41.833 28.5 68.5z" />
    <glyph glyph-name="q" unicode="q" horiz-adv-x="608" 
d="M389 -230l-0.000976562 272.999c-31.333 -34.667 -74.333 -52 -129 -52c-60.667 0 -113.667 22.5 -159 67.5s-68 103.833 -68 176.5s22.667 131.334 68 176.001s98.333 67 159 67c28 0 54.833 -6.66699 80.5 -20s44.834 -33 57.501 -59v67h150v-696h-159z
M194.999 235.999c0 -26.667 9.5 -49.5 28.5 -68.5s41.833 -28.5 68.5 -28.5s49.5 9.16699 68.5 27.5s28.5 40.5 28.5 66.5c0 26.667 -9.66699 50 -29 70s-42 30 -68 30c-26.667 0 -49.5 -9.5 -68.5 -28.5s-28.5 -41.833 -28.5 -68.5z" />
    <glyph glyph-name="r" unicode="r" horiz-adv-x="429" 
d="M219 153v-153h-159v466h151v-115c11.333 42 30.5 73.667 57.5 95s56.833 32 89.5 32c27.333 0 50.333 -4.33301 69 -13l-39 -150c-22 8 -46 12 -72 12c-32.667 0 -57 -12.5 -73 -37.5s-24 -70.5 -24 -136.5z" />
    <glyph glyph-name="s" unicode="s" horiz-adv-x="481" 
d="M244 166l-59.002 15.999c-27.333 7.33301 -50.833 17 -70.5 29s-34.167 23 -43.5 33s-16.5 22.333 -21.5 37s-7.66699 25.334 -8 32.001s-0.5 15.334 -0.5 26.001c0 36 18.833 68.167 56.5 96.5s82.167 42.5 133.5 42.5c26 0 50.5 -2.83301 73.5 -8.5
s44.667 -14.5 65 -26.5s36.333 -28.833 48 -50.5s17.5 -46.834 17.5 -75.501h-149c0 28 -15.667 42 -47 42c-26 0 -39 -8.66699 -39 -26c0 -14.667 11.667 -24.667 35 -30l83 -23c28 -7.33301 51.5 -17.5 70.5 -30.5s32.333 -26.833 40 -41.5s12.834 -27.334 15.501 -38.001
s4 -21 4 -31c0 -48 -21.333 -84.667 -64 -110s-91.667 -38 -147 -38c-53.333 0 -100.5 14.833 -141.5 44.5s-61.5 69.834 -61.5 120.501h149c0 -12 4.5 -23 13.5 -33s22.5 -15 40.5 -15c13.333 0 24.833 2.83301 34.5 8.5s14.5 13.167 14.5 22.5
c0 6.66699 -2.66699 11.667 -8 15s-16.666 7.33301 -33.999 12z" />
    <glyph glyph-name="t" unicode="t" horiz-adv-x="378" 
d="M262 633v-167h98v-117h-98v-349h-157v349h-85v117h85v167h157z" />
    <glyph glyph-name="u" unicode="u" horiz-adv-x="590" 
d="M371 221l-0.00292969 245h159v-466h-159v73c-7.33301 -26.667 -24.666 -47 -51.999 -61s-53.666 -21 -78.999 -21c-61.333 0 -107.666 19.833 -138.999 59.5s-47 96.5 -47 170.5v245h159v-240c0 -28 7.66699 -48.5 23 -61.5s33 -19.5 53 -19.5
c22 0 41.167 5.83301 57.5 17.5s24.5 31.167 24.5 58.5z" />
    <glyph glyph-name="v" unicode="v" horiz-adv-x="529" 
d="M332 0h-136l-198 466h171l96 -265l94 265h172z" />
    <glyph glyph-name="w" unicode="w" horiz-adv-x="759" 
d="M582 466h170l-160 -466h-135l-78 279l-74 -279h-135l-165 466h170l70 -257l71 257h125l71 -257z" />
    <glyph glyph-name="x" unicode="x" horiz-adv-x="544" 
d="M2 0l184 252l-155 214h183l60 -88l57 88h182l-154 -214l182 -252h-182l-87 128l-87 -128h-183z" />
    <glyph glyph-name="y" unicode="y" horiz-adv-x="518" 
d="M348 466h169l-288 -696h-167l117 292l-183 404h174l91 -226z" />
    <glyph glyph-name="z" unicode="z" horiz-adv-x="512" 
d="M53 322v144h412v-116l-200 -206h200v-144h-425v114l197 208h-184z" />
    <glyph glyph-name="braceleft" unicode="{" horiz-adv-x="414" 
d="M27 187v85c15.333 0 29.333 5.33301 42 16s19 25.667 19 45v154c-0.666992 60 18.833 108.667 58.5 146s88.167 56 145.5 56h93v-108h-80c-30.667 0 -53 -9.5 -67 -28.5s-21 -43.167 -21 -72.5v-136c0 -32.667 -9.83301 -59 -29.5 -79s-40.167 -32 -61.5 -36
c21.333 -3.33301 41.833 -15 61.5 -35s29.5 -46.333 29.5 -79v-136c0 -29.333 7 -53.5 21 -72.5s36.333 -28.5 67 -28.5h80v-108h-93c-57.333 0 -105.833 18.667 -145.5 56s-59.167 86 -58.5 146v154c0 19.333 -6.33301 34.333 -19 45s-26.667 16 -42 16z" />
    <glyph glyph-name="bar" unicode="|" horiz-adv-x="213" 
d="M68 -126v931h77v-931h-77z" />
    <glyph glyph-name="braceright" unicode="}" horiz-adv-x="414" 
d="M387 272v-85c-15.333 0 -29.333 -5.33301 -42 -16s-19 -25.667 -19 -45v-154c0.666992 -60 -18.833 -108.667 -58.5 -146s-88.167 -56 -145.5 -56h-93v108h80c30.667 0 53 9.5 67 28.5s21 43.167 21 72.5v136c0 32.667 9.83301 59 29.5 79s40.167 31.667 61.5 35
c-21.333 4 -41.833 16 -61.5 36s-29.5 46.333 -29.5 79v136c0 29.333 -7 53.5 -21 72.5s-36.333 28.5 -67 28.5h-80v108h93c57.333 0 105.833 -18.667 145.5 -56s59.167 -86 58.5 -146v-154c0 -19.333 6.33301 -34.333 19 -45s26.667 -16 42 -16z" />
    <glyph glyph-name="exclamdown" unicode="&#xa1;" horiz-adv-x="279" 
d="M56 -229l18 458h131l18 -458h-167zM44 385c0 26.667 9.16699 48.834 27.5 66.501s40.5 26.5 66.5 26.5c26.667 0 49.334 -8.83301 68.001 -26.5s28 -39.834 28 -66.501c0 -26 -9.33301 -47.667 -28 -65s-41.334 -26 -68.001 -26c-26 0 -48.167 8.66699 -66.5 26
s-27.5 39 -27.5 65z" />
    <glyph glyph-name="cent" unicode="&#xa2;" horiz-adv-x="540" 
d="M245 473v125.001h77v-122c73.333 -7.33301 133 -45 179 -113l-130 -78c-18.667 30.667 -46 46 -82 46c-26.667 0 -49.5 -9.5 -68.5 -28.5s-28.5 -41.833 -28.5 -68.5s9.5 -49.5 28.5 -68.5s41.833 -28.5 68.5 -28.5c33.333 0 60 14.333 80 43l133 -74
c-46.667 -68.667 -106.667 -106.334 -180 -113.001v-119h-77v122c-60 10 -109.667 36.333 -149 79s-59 95.667 -59 159c0 62.667 19.667 115.5 59 158.5s89 69.833 149 80.5z" />
    <glyph glyph-name="sterling" unicode="&#xa3;" horiz-adv-x="702" 
d="M410 296l-100 0.000976562v-163h167c11.333 0 18.833 3.5 22.5 10.5s5.5 17.167 5.5 30.5v50h156v-86c0 -38.667 -13.833 -71.334 -41.5 -98.001s-59.834 -40 -96.501 -40h-485v133h112v163h-78v64h78v118c0 66.667 19.833 120 59.5 160s91.834 60 156.501 60
c159.333 0 239 -80.333 239 -241h-158c0 54 -23.667 81 -71 81c-20 0 -36 -7.33301 -48 -22s-18 -32.667 -18 -54v-102h100v-64z" />
    <glyph glyph-name="currency" unicode="&#xa4;" horiz-adv-x="616" 
d="M231 339c0 -21.333 7.5 -39.5 22.5 -54.5s33.167 -22.5 54.5 -22.5c22 0 40.5 7.5 55.5 22.5s22.5 33.167 22.5 54.5c0 22 -7.5 40.5 -22.5 55.5s-33.5 22.5 -55.5 22.5c-21.333 0 -39.5 -7.5 -54.5 -22.5s-22.5 -33.5 -22.5 -55.5zM201 164l-70.999 -72.001l-69 69
l71 72c-19.333 30.667 -29 66 -29 106c0 39.333 10 75 30 107l-72 72l69 69l72 -72c33.333 20 68.666 30 105.999 30c39.333 0 75 -10 107 -30l71 72l69 -69l-72 -73c20.667 -34.667 31 -70 31 -106c0 -39.333 -10 -74.666 -30 -105.999l71 -72l-69 -69l-71 72
c-32 -20 -67.667 -30 -107 -30s-75 10 -107 30z" />
    <glyph glyph-name="yen" unicode="&#xa5;" horiz-adv-x="766" 
d="M736 689l-254 -362h131v-70h-145v-99h145v-69h-145v-89h-170v89h-145v69h145v99h-145v70h132l-255 362h199l153 -250l156 250h198z" />
    <glyph glyph-name="brokenbar" unicode="&#xa6;" horiz-adv-x="217" 
d="M70 256h77v-382h-77v382zM147 805v-379h-77v379h77z" />
    <glyph glyph-name="section" unicode="&#xa7;" horiz-adv-x="556" 
d="M320 202l0.000976562 -135.999c-14.667 -3.33301 -30.667 -5 -48 -5c-61.333 0 -113.166 20 -155.499 60s-63.5 92.333 -63.5 157v204c0 64 21.167 116 63.5 156s94.166 60 155.499 60c52 0 99.333 -15 142 -45s68.334 -74 77.001 -132l-131 -39
c-6.66699 28 -18.334 48 -35.001 60s-34.334 18 -53.001 18c-22 0 -40.833 -7.33301 -56.5 -22s-23.5 -33.334 -23.5 -56.001v-204c0 -26 8.5 -45.5 25.5 -58.5s38.167 -19.5 63.5 -19.5c16 0 29 0.666992 39 2zM236.001 288.001l-0.000976562 135.999
c14.667 3.33301 30.667 5 48 5c61.333 0 113.166 -20 155.499 -60s63.5 -92.333 63.5 -157v-204c0 -64 -21.167 -116 -63.5 -156s-94.166 -60 -155.499 -60c-52 0 -99.333 15 -142 45s-68.334 74 -77.001 132l131 39c6.66699 -28 18.334 -48 35.001 -60
s34.334 -18 53.001 -18c22 0 40.833 7.33301 56.5 22s23.5 33.334 23.5 56.001v204c0 26 -8.5 45.5 -25.5 58.5s-38.167 19.5 -63.5 19.5c-16 0 -29 -0.666992 -39 -2z" />
    <glyph glyph-name="dieresis" unicode="&#xa8;" 
d="M120 641c0 20 7.49805 37 22.498 51s33.167 21 54.5 21c20.667 0 38.334 -7 53.001 -21s22 -31 22 -51c0 -20.667 -7.16699 -38 -21.5 -52s-32.166 -21 -53.499 -21s-39.5 7 -54.5 21s-22.5 31.333 -22.5 52zM307.998 641c0 20 7.66699 37 23 51s33.666 21 54.999 21
c20.667 0 38.167 -7 52.5 -21s21.5 -31 21.5 -51c0 -20.667 -7.16699 -38 -21.5 -52s-31.833 -21 -52.5 -21c-21.333 0 -39.666 7 -54.999 21s-23 31.333 -23 52z" />
    <glyph glyph-name="copyright" unicode="&#xa9;" horiz-adv-x="792" 
d="M543 245l-67 44.999c-22.667 -30.667 -49.667 -46 -81 -46c-26 0 -47.333 9.33301 -64 28s-25 41.334 -25 68.001c0 28 8.33301 51.333 25 70s38 28 64 28c30 0 56.667 -15.333 80 -46l66 46c-35.333 52.667 -84 79 -146 79c-48.667 0 -89.667 -17.167 -123 -51.5
s-50 -76.166 -50 -125.499c0 -48.667 16.667 -90.334 50 -125.001s74.333 -52 123 -52c29.333 0 57.333 7.5 84 22.5s48 34.833 64 59.5zM47 342.999c0 98 33.833 181.5 101.5 250.5s150.167 103.5 247.5 103.5s180 -34.5 248 -103.5s102 -152.5 102 -250.5
s-34 -181.333 -102 -250s-150.667 -103 -248 -103s-179.833 34.333 -247.5 103s-101.5 152 -101.5 250zM125 342.999c0 -76 26.333 -140.667 79 -194s116.667 -80 192 -80s139.333 26.667 192 80s79 118 79 194s-26.333 140.833 -79 194.5s-116.667 80.5 -192 80.5
s-139.333 -26.833 -192 -80.5s-79 -118.5 -79 -194.5z" />
    <glyph glyph-name="ordfeminine" unicode="&#xaa;" horiz-adv-x="473" 
d="M315 316v33c-26.667 -26.667 -58.334 -40 -95.001 -40c-46.667 0 -86.5 16.167 -119.5 48.5s-49.5 74.5 -49.5 126.5s16.333 94 49 126s72.667 48 120 48c36.667 0 68.334 -12.667 95.001 -38v31h86v-335h-86zM315 485c0 26.667 -9.16699 47.833 -27.5 63.5
s-39.166 23.5 -62.499 23.5c-24.667 0 -45.334 -8.16699 -62.001 -24.5s-25 -37.166 -25 -62.499c0 -26 8.33301 -47.5 25 -64.5s37.334 -25.5 62.001 -25.5c25.333 0 46.666 8.16699 63.999 24.5s26 38.166 26 65.499zM66 197.999v68h335v-68h-335z" />
    <glyph glyph-name="guillemotleft" unicode="&#xab;" horiz-adv-x="528" 
d="M36 233l138 207h119l-138 -207l138 -207h-119zM231 233l138 207h119l-138 -207l138 -207h-119z" />
    <glyph glyph-name="logicalnot" unicode="&#xac;" horiz-adv-x="620" 
d="M64 245v134h485v-281h-135v147h-350z" />
    <glyph glyph-name="registered" unicode="&#xae;" horiz-adv-x="792" 
d="M358 438l56.002 0.00195312c9.33301 0 17.166 -4.33301 23.499 -13s9.5 -17.334 9.5 -26.001c0 -10.667 -3.33301 -20.334 -10 -29.001s-15.334 -13 -26.001 -13h-53v81zM539.002 174.002l-84.002 113.001c24.667 8 43.834 22.167 57.501 42.5s20.5 43.5 20.5 69.5
c0 31.333 -10.167 58.166 -30.5 80.499s-49.166 33.5 -86.499 33.5h-142v-339h84v109h7l73 -109h101zM47 343.003c0 98 33.833 181.5 101.5 250.5s150.167 103.5 247.5 103.5s180 -34.5 248 -103.5s102 -152.5 102 -250.5s-34 -181.333 -102 -250s-150.667 -103 -248 -103
s-179.833 34.333 -247.5 103s-101.5 152 -101.5 250zM125 343.003c0 -76 26.333 -140.667 79 -194s116.667 -80 192 -80s139.333 26.667 192 80s79 118 79 194s-26.333 140.833 -79 194.5s-116.667 80.5 -192 80.5s-139.333 -26.833 -192 -80.5s-79 -118.5 -79 -194.5z" />
    <glyph glyph-name="macron" unicode="&#xaf;" horiz-adv-x="528" 
d="M408 579h-288v87h288v-87z" />
    <glyph glyph-name="degree" unicode="&#xb0;" horiz-adv-x="368" 
d="M40 529c0 39.333 14 73.166 42 101.499s61.667 42.5 101 42.5c40 0 74.167 -14.167 102.5 -42.5s42.5 -62.166 42.5 -101.499c0 -40 -14.167 -74.167 -42.5 -102.5s-62.5 -42.5 -102.5 -42.5c-39.333 0 -73 14.167 -101 42.5s-42 62.5 -42 102.5zM122 529
c0 -18 5.83301 -33 17.5 -45s26.167 -18 43.5 -18c18 0 33 6 45 18s18 27 18 45c0 17.333 -6 32 -18 44s-27 18 -45 18c-16.667 0 -31 -6 -43 -18s-18 -26.667 -18 -44z" />
    <glyph glyph-name="plusminus" unicode="&#xb1;" horiz-adv-x="544" 
d="M479 109v-110h-414v110h414zM479 298h-153v-142h-108v142h-153v108h153v140h108v-140h153v-108z" />
    <glyph glyph-name="twosuperior" unicode="&#xb2;" horiz-adv-x="343" 
d="M29 546l166.001 186.999c8.66699 12.667 10 24.334 4 35.001s-16.333 16 -31 16c-23.333 0 -37 -13.333 -41 -40l-98 14c13.333 84 62.333 126 147 126c36 0 67 -11.5 93 -34.5s39 -52.167 39 -87.5c-0.666992 -38 -14.334 -70.667 -41.001 -98l-85 -88h128v-91h-281v61z
" />
    <glyph glyph-name="threesuperior" unicode="&#xb3;" horiz-adv-x="337" 
d="M145 652l-41.998 -0.00292969v74h42c30 0 45 12.333 45 37c0 8 -3.66699 15.167 -11 21.5s-18.333 9.5 -33 9.5c-25.333 0 -45.333 -8.33301 -60 -25l-55 57c27.333 38.667 71.666 58 132.999 58c36 0 66.5 -11.167 91.5 -33.5s37.167 -48.166 36.5 -77.499
c0 -32 -18.667 -57.333 -56 -76c46.667 -17.333 71 -46.666 73 -87.999s-12.333 -73.166 -43 -95.499s-68.334 -33.5 -113.001 -33.5c-69.333 0 -115 22.667 -137 68l54 54c18 -24.667 44.333 -37 79 -37c20 0 35 4.5 45 13.5s15 20.167 15 33.5
c0 12 -6.33301 21.667 -19 29s-27.667 11 -45 11z" />
    <glyph glyph-name="acute" unicode="&#xb4;" horiz-adv-x="547" 
d="M222 723h148l-138 -174h-103z" />
    <glyph glyph-name="mu" unicode="&#xb5;" horiz-adv-x="598" 
d="M68 -190l0.000976562 656h159v-243c0 -28 7.66699 -48.5 23 -61.5s33 -19.5 53 -19.5c21.333 0 40.333 6.33301 57 19s25 32.667 25 60v245h159v-466h-159v73c-7.33301 -26.667 -24.833 -47.5 -52.5 -62.5s-53.834 -22.5 -78.501 -22.5c-16 0 -32.333 1.66699 -49 5v-183
h-137z" />
    <glyph glyph-name="paragraph" unicode="&#xb6;" horiz-adv-x="747" 
d="M351 689l-0.000976562 -735h-111v301c-57.333 3.33301 -106.166 26 -146.499 68s-60.5 91.667 -60.5 149c0 60 21 111.167 63 153.5s93.333 63.5 154 63.5h101zM567.999 581l-39.999 -0.000976562v-658c0 -36 -13 -67.833 -39 -95.5s-58.667 -41.5 -98 -41.5h-153v97h142
c13.333 0 23.666 4.33301 30.999 13s11 19.667 11 33v760h153c38.667 0 71.167 -13.667 97.5 -41s39.5 -59.333 39.5 -96v-86h-98v73c0 12.667 -4.5 22.834 -13.5 30.501s-19.833 11.5 -32.5 11.5z" />
    <glyph glyph-name="periodcentered" unicode="&#xb7;" horiz-adv-x="287" 
d="M49 387c0 26 9.16699 47.667 27.5 65s40.5 26 66.5 26s48.333 -8.66699 67 -26s28 -39 28 -65c0 -26.667 -9.33301 -48.667 -28 -66s-41 -26 -67 -26c-26.667 0 -49 8.66699 -67 26s-27 39.333 -27 66z" />
    <glyph glyph-name="cedilla" unicode="&#xb8;" horiz-adv-x="534" 
d="M296 -86l-53.9971 108.999h67l54 -83c7.33301 -13.333 11 -30.333 11 -51c0 -29.333 -10.333 -54.166 -31 -74.499s-45 -30.5 -73 -30.5c-30.667 0 -56.834 11 -78.501 33s-31.834 54 -30.501 96l70 -4c-2.66699 -28 5.66602 -45.333 24.999 -52
c16 -5.33301 28.667 -1 38 13c8 11.333 8.66699 26 2 44z" />
    <glyph glyph-name="onesuperior" unicode="&#xb9;" horiz-adv-x="243" 
d="M20 799l176 91v-405h-106v259l-70 -32v87z" />
    <glyph glyph-name="ordmasculine" unicode="&#xba;" horiz-adv-x="460" 
d="M229 309c-48.667 0 -89.834 16.333 -123.501 49s-50.5 75 -50.5 127c0 51.333 16.833 93 50.5 125s74.834 48 123.501 48c49.333 0 91 -16 125 -48s51 -73.667 51 -125c0 -52 -17.167 -94.333 -51.5 -127s-75.833 -49 -124.5 -49zM229 395c25.333 0 46.5 8.33301 63.5 25
s25.5 38.334 25.5 65.001c0 26 -8.5 47 -25.5 63s-38.167 24 -63.5 24s-46.5 -8 -63.5 -24s-25.5 -37 -25.5 -63c0 -26.667 8.5 -48.334 25.5 -65.001s38.167 -25 63.5 -25zM62 198v68h335v-68h-335z" />
    <glyph glyph-name="guillemotright" unicode="&#xbb;" horiz-adv-x="528" 
d="M492 233l-138 -207h-119l138 207l-138 207h119zM297 233l-138 -207h-119l138 207l-138 207h119z" />
    <glyph glyph-name="onequarter" unicode="&#xbc;" horiz-adv-x="830" 
d="M643 302v-122h-62zM793 180h-45v214h-141l-161 -301h197v-93h105v93h45v87zM38 576l176 91v-405h-106v259l-70 -32v87zM655 667h-93l-452 -676h94z" />
    <glyph glyph-name="onehalf" unicode="&#xbd;" horiz-adv-x="835" 
d="M37 576l176 91v-405h-106v259l-70 -32v87zM654 667h-93l-452 -676h94zM677 248l-166.001 -187.001v-61h281v91h-128l85 88c26.667 27.333 40.334 60 41.001 98c0 35.333 -13 64.5 -39 87.5s-57 34.5 -93 34.5c-84.667 0 -133.667 -42 -147 -126l98 -14
c4 26.667 17.667 40 41 40c14.667 0 25 -5.16699 31 -15.5s4.66699 -22.166 -4 -35.499z" />
    <glyph glyph-name="threequarters" unicode="&#xbe;" horiz-adv-x="922" 
d="M735 180v122l-62 -122h62zM840 180h45v-87h-45v-93h-105v93h-197l161 301h141v-214zM654 667h93l-451 -676h-94zM165 429l-41.998 -0.00292969v74h42c30 0 45 12.333 45 37c0 8 -3.66699 15.167 -11 21.5s-18.333 9.5 -33 9.5c-25.333 0 -45.333 -8.33301 -60 -25l-55 57
c27.333 38.667 71.666 58 132.999 58c36 0 66.5 -11.167 91.5 -33.5s37.167 -48.166 36.5 -77.499c0 -32 -18.667 -57.333 -56 -76c46.667 -17.333 71 -46.666 73 -87.999s-12.333 -73.166 -43 -95.499s-68.334 -33.5 -113.001 -33.5c-69.333 0 -115 22.667 -137 68l54 54
c18 -24.667 44.333 -37 79 -37c20 0 35 4.5 45 13.5s15 20.167 15 33.5c0 12.667 -6.33301 22.5 -19 29.5s-27.667 10.5 -45 10.5z" />
    <glyph glyph-name="questiondown" unicode="&#xbf;" horiz-adv-x="487" 
d="M212 233l143.002 0.000976562v-12c0 -23.333 -0.833008 -42.333 -2.5 -57s-5.83398 -30.667 -12.501 -48s-17.334 -32.5 -32.001 -45.5s-33.667 -24.5 -57 -34.5l-37 -16c-22.667 -9.33301 -34 -26 -34 -50c0 -17.333 6 -30.666 18 -39.999s28 -14 48 -14
c17.333 0 32.333 6 45 18s19 27.333 19 46h144c0 -69.333 -19 -122.5 -57 -159.5s-89.333 -55.5 -154 -55.5c-63.333 0 -114.333 17.667 -153 53s-58 82.666 -58 141.999c0 47.333 11.333 87 34 119s54 55.333 94 70c20 7.33301 33.667 17.166 41 29.499s11 30.5 11 54.5z
M376.002 385.001c0 -26 -9.16699 -47.667 -27.5 -65s-40.5 -26 -66.5 -26c-26.667 0 -49.334 8.66699 -68.001 26s-28 39 -28 65c0 26.667 9.33301 48.834 28 66.501s41.334 26.5 68.001 26.5c26 0 48.167 -8.83301 66.5 -26.5s27.5 -39.834 27.5 -66.501z" />
    <glyph glyph-name="Agrave" unicode="&#xc0;" horiz-adv-x="667" 
d="M501 0l-58 158h-217l-58 -158h-179l254 689h182l253 -689h-177zM333 529l-62 -227h129zM167 923h148l93 -174h-103z" />
    <glyph glyph-name="Aacute" unicode="&#xc1;" horiz-adv-x="667" 
d="M443 158l58 -158h177l-253 689h-182l-254 -689h179l58 158h217zM271 302l62 227l67 -227h-129zM336 923h148l-138 -174h-103z" />
    <glyph glyph-name="Acircumflex" unicode="&#xc2;" horiz-adv-x="667" 
d="M501 0l-58 158h-217l-58 -158h-179l254 689h182l253 -689h-177zM333 529l-62 -227h129zM146 757l109 173h156l110 -173h-108l-80 89l-80 -89h-107z" />
    <glyph glyph-name="Atilde" unicode="&#xc3;" horiz-adv-x="667" 
d="M501 0l-58 158h-217l-58 -158h-179l254 689h182l253 -689h-177zM333 529l-62 -227h129zM290 797c-5.33301 0 -10.833 -3.66699 -16.5 -11s-8.83398 -18 -9.50098 -32h-75c2 44.667 13.167 77.5 33.5 98.5s42.833 31.5 67.5 31.5c15.333 0 32 -6.83301 50 -20.5
s30.333 -20.5 37 -20.5c5.33301 0 10.833 3.33301 16.5 10s8.83398 17 9.50098 31h75c-2 -44 -13.167 -76.333 -33.5 -97s-42.833 -31 -67.5 -31c-14.667 0 -31.167 6.83301 -49.5 20.5s-30.833 20.5 -37.5 20.5z" />
    <glyph glyph-name="Adieresis" unicode="&#xc4;" horiz-adv-x="667" 
d="M443 158l58 -158h177l-253 689h-182l-254 -689h179l58 158h217zM271 302l62 227l67 -227h-129zM163 841c0 20 7.49805 37 22.498 51s33.167 21 54.5 21c20.667 0 38.334 -7 53.001 -21s22 -31 22 -51c0 -20.667 -7.16699 -38 -21.5 -52s-32.166 -21 -53.499 -21
s-39.5 7 -54.5 21s-22.5 31.333 -22.5 52zM350.998 841c0 20 7.66699 37 23 51s33.666 21 54.999 21c20.667 0 38.167 -7 52.5 -21s21.5 -31 21.5 -51c0 -20.667 -7.16699 -38 -21.5 -52s-31.833 -21 -52.5 -21c-21.333 0 -39.666 7 -54.999 21s-23 31.333 -23 52z" />
    <glyph glyph-name="Aring" unicode="&#xc5;" horiz-adv-x="667" 
d="M443 158l58 -158h177l-253 689h-182l-254 -689h179l58 158h217zM271 302l62 227l67 -227h-129zM206 873c0 36 12.167 66.5 36.5 91.5s54.166 37.5 89.499 37.5c36 0 66.333 -12.5 91 -37.5s37 -55.5 37 -91.5c0 -35.333 -12.333 -65.333 -37 -90s-55 -37 -91 -37
c-35.333 0 -65.166 12.333 -89.499 37s-36.5 54.667 -36.5 90zM268 873c0 -18.667 6.16699 -34.167 18.5 -46.5s27.5 -18.5 45.5 -18.5c18.667 0 34.5 6.16699 47.5 18.5s19.5 27.833 19.5 46.5s-6.5 34.667 -19.5 48s-28.833 20 -47.5 20c-18 0 -33.167 -6.5 -45.5 -19.5
s-18.5 -29.167 -18.5 -48.5z" />
    <glyph glyph-name="AE" unicode="&#xc6;" horiz-adv-x="936" 
d="M429 296v188l-96 -188h96zM-28 0l435 689h472v-146h-281v-132h246v-141h-246v-124h289v-146h-457v1l-1 -1v152h-160l-95 -152h-202z" />
    <glyph glyph-name="Ccedilla" unicode="&#xc7;" horiz-adv-x="708" 
d="M367 -86l-40.9971 82.9971c-82.667 14.667 -151.334 54.667 -206.001 120s-82 141 -82 227c0 98 34.167 181.5 102.5 250.5s151.166 103.5 248.499 103.5c60.667 0 116.834 -14.167 168.501 -42.5s93.5 -66.833 125.5 -115.5l-139 -97
c-16 26.667 -37.833 47.834 -65.5 63.501s-57.5 23.5 -89.5 23.5c-50.667 0 -93.667 -18.167 -129 -54.5s-53 -80.166 -53 -131.499s17.667 -95 53 -131s78.333 -54 129 -54c32.667 0 62.667 7.66699 90 23s49.333 36.333 66 63l137 -96
c-31.333 -46.667 -71.666 -84.167 -120.999 -112.5s-103 -43.5 -161 -45.5l34 -51c7.33301 -13.333 11 -30.333 11 -51c0 -29.333 -10.333 -54.166 -31 -74.499s-45 -30.5 -73 -30.5c-30.667 0 -56.834 11 -78.501 33s-31.834 54 -30.501 96l70 -4
c-2.66699 -28 5.66602 -45.333 24.999 -52c16 -5.33301 28.667 -1 38 13c8 11.333 8.66699 26 2 44z" />
    <glyph glyph-name="Egrave" unicode="&#xc8;" horiz-adv-x="581" 
d="M533 0h-456v689h447v-146h-280v-132h246v-143h-246v-122h289v-146zM131 923h148l93 -174h-103z" />
    <glyph glyph-name="Eacute" unicode="&#xc9;" horiz-adv-x="581" 
d="M77 0h456v146h-289v122h246v143h-246v132h280v146h-447v-689zM302 923h148l-138 -174h-103z" />
    <glyph glyph-name="Ecircumflex" unicode="&#xca;" horiz-adv-x="581" 
d="M533 0h-456v689h447v-146h-280v-132h246v-143h-246v-122h289v-146zM98 757l109 173h156l110 -173h-108l-80 89l-80 -89h-107z" />
    <glyph glyph-name="Edieresis" unicode="&#xcb;" horiz-adv-x="581" 
d="M77 0h456v146h-289v122h246v143h-246v132h280v146h-447v-689zM115 841c0 20 7.49805 37 22.498 51s33.167 21 54.5 21c20.667 0 38.334 -7 53.001 -21s22 -31 22 -51c0 -20.667 -7.16699 -38 -21.5 -52s-32.166 -21 -53.499 -21s-39.5 7 -54.5 21s-22.5 31.333 -22.5 52z
M302.998 841c0 20 7.66699 37 23 51s33.666 21 54.999 21c20.667 0 38.167 -7 52.5 -21s21.5 -31 21.5 -51c0 -20.667 -7.16699 -38 -21.5 -52s-31.833 -21 -52.5 -21c-21.333 0 -39.666 7 -54.999 21s-23 31.333 -23 52z" />
    <glyph glyph-name="Igrave" unicode="&#xcc;" horiz-adv-x="321" 
d="M77 0v689h167v-689h-167zM4 923h148l93 -174h-103z" />
    <glyph glyph-name="Iacute" unicode="&#xcd;" horiz-adv-x="321" 
d="M77 689v-689h167v689h-167zM169 923h148l-138 -174h-103z" />
    <glyph glyph-name="Icircumflex" unicode="&#xce;" horiz-adv-x="321" 
d="M77 0v689h167v-689h-167zM-27 757l109 173h156l110 -173h-108l-80 89l-80 -89h-107z" />
    <glyph glyph-name="Idieresis" unicode="&#xcf;" horiz-adv-x="321" 
d="M77 689v-689h167v689h-167zM-9 841c0 20 7.49805 37 22.498 51s33.167 21 54.5 21c20.667 0 38.334 -7 53.001 -21s22 -31 22 -51c0 -20.667 -7.16699 -38 -21.5 -52s-32.166 -21 -53.499 -21s-39.5 7 -54.5 21s-22.5 31.333 -22.5 52zM178.998 841
c0 20 7.66699 37 23 51s33.666 21 54.999 21c20.667 0 38.167 -7 52.5 -21s21.5 -31 21.5 -51c0 -20.667 -7.16699 -38 -21.5 -52s-31.833 -21 -52.5 -21c-21.333 0 -39.666 7 -54.999 21s-23 31.333 -23 52z" />
    <glyph glyph-name="Eth" unicode="&#xd0;" horiz-adv-x="722" 
d="M368 282h-106v-133h105c46 0 81.833 18.833 107.5 56.5s38.5 83.5 38.5 137.5c0 54.667 -12.833 101.167 -38.5 139.5s-61.5 57.5 -107.5 57.5h-105v-157h106v-101zM94 282h-94v101h94v306h273c96.667 0 173 -32.5 229 -97.5s84 -147.833 84 -248.5
c0 -100 -27.833 -182.167 -83.5 -246.5s-132.167 -96.5 -229.5 -96.5h-273v282z" />
    <glyph glyph-name="Ntilde" unicode="&#xd1;" horiz-adv-x="678" 
d="M434 689h167v-689h-146l-211 376v-376h-167v689h151l206 -371v371zM295 797c-5.33301 0 -10.832 -3.66699 -16.499 -11s-8.83398 -18 -9.50098 -32h-75c2 44.667 13.167 77.5 33.5 98.5s42.833 31.5 67.5 31.5c15.333 0 32 -6.83301 50 -20.5s30.333 -20.5 37 -20.5
c5.33301 0 10.833 3.33301 16.5 10s8.83398 17 9.50098 31h75c-2 -44 -13.167 -76.333 -33.5 -97s-42.833 -31 -67.5 -31c-14.667 0 -31.334 6.83301 -50.001 20.5s-31 20.5 -37 20.5z" />
    <glyph glyph-name="Ograve" unicode="&#xd2;" horiz-adv-x="779" 
d="M38 344c0 98 34.1689 181.5 102.502 250.5s151.166 103.5 248.499 103.5c98 0 181.167 -34.5 249.5 -103.5s102.5 -152.5 102.5 -250.5c0 -97.333 -34.167 -180.5 -102.5 -249.5s-151.5 -103.5 -249.5 -103.5c-96.667 0 -179.334 34.5 -248.001 103.5
s-103 152.167 -103 249.5zM207.002 344c0 -51.333 17.667 -95 53 -131s78.333 -54 129 -54c51.333 0 94.833 18 130.5 54s53.5 79.667 53.5 131s-18 95.166 -54 131.499s-79.333 54.5 -130 54.5s-93.667 -18.167 -129 -54.5s-53 -80.166 -53 -131.499zM183.002 923h148
l93 -174h-103z" />
    <glyph glyph-name="Oacute" unicode="&#xd3;" horiz-adv-x="779" 
d="M38 344c0 -97.333 34.3311 -180.5 102.998 -249.5s151.334 -103.5 248.001 -103.5c98 0 181.167 34.5 249.5 103.5s102.5 152.167 102.5 249.5c0 98 -34.167 181.5 -102.5 250.5s-151.5 103.5 -249.5 103.5c-97.333 0 -180.166 -34.5 -248.499 -103.5
s-102.5 -152.5 -102.5 -250.5zM206.998 344c0 51.333 17.667 95.166 53 131.499s78.333 54.5 129 54.5s94 -18.167 130 -54.5s54 -80.166 54 -131.499s-17.833 -95 -53.5 -131s-79.167 -54 -130.5 -54c-50.667 0 -93.667 18 -129 54s-53 79.667 -53 131zM435.998 923h148
l-138 -174h-103z" />
    <glyph glyph-name="Ocircumflex" unicode="&#xd4;" horiz-adv-x="779" 
d="M38 344c0 98 34.1689 181.5 102.502 250.5s151.166 103.5 248.499 103.5c98 0 181.167 -34.5 249.5 -103.5s102.5 -152.5 102.5 -250.5c0 -97.333 -34.167 -180.5 -102.5 -249.5s-151.5 -103.5 -249.5 -103.5c-96.667 0 -179.334 34.5 -248.001 103.5
s-103 152.167 -103 249.5zM207.002 344c0 -51.333 17.667 -95 53 -131s78.333 -54 129 -54c51.333 0 94.833 18 130.5 54s53.5 79.667 53.5 131s-18 95.166 -54 131.499s-79.333 54.5 -130 54.5s-93.667 -18.167 -129 -54.5s-53 -80.166 -53 -131.499zM202.002 757l109 173
h156l110 -173h-108l-80 89l-80 -89h-107z" />
    <glyph glyph-name="Otilde" unicode="&#xd5;" horiz-adv-x="779" 
d="M38 344c0 98 34.1689 181.5 102.502 250.5s151.166 103.5 248.499 103.5c98 0 181.167 -34.5 249.5 -103.5s102.5 -152.5 102.5 -250.5c0 -97.333 -34.167 -180.5 -102.5 -249.5s-151.5 -103.5 -249.5 -103.5c-96.667 0 -179.334 34.5 -248.001 103.5
s-103 152.167 -103 249.5zM207.002 344c0 -51.333 17.667 -95 53 -131s78.333 -54 129 -54c51.333 0 94.833 18 130.5 54s53.5 79.667 53.5 131s-18 95.166 -54 131.499s-79.333 54.5 -130 54.5s-93.667 -18.167 -129 -54.5s-53 -80.166 -53 -131.499zM346.002 797
c-5.33301 0 -10.832 -3.66699 -16.499 -11s-8.83398 -18 -9.50098 -32h-75c2 44.667 13.167 77.5 33.5 98.5s42.833 31.5 67.5 31.5c15.333 0 32 -6.83301 50 -20.5s30.333 -20.5 37 -20.5c5.33301 0 10.833 3.33301 16.5 10s8.83398 17 9.50098 31h75
c-2 -44 -13.167 -76.333 -33.5 -97s-42.833 -31 -67.5 -31c-14 0 -30.333 6.83301 -49 20.5s-31.334 20.5 -38.001 20.5z" />
    <glyph glyph-name="Odieresis" unicode="&#xd6;" horiz-adv-x="779" 
d="M38 344c0 -97.333 34.3311 -180.5 102.998 -249.5s151.334 -103.5 248.001 -103.5c98 0 181.167 34.5 249.5 103.5s102.5 152.167 102.5 249.5c0 98 -34.167 181.5 -102.5 250.5s-151.5 103.5 -249.5 103.5c-97.333 0 -180.166 -34.5 -248.499 -103.5
s-102.5 -152.5 -102.5 -250.5zM206.998 344c0 51.333 17.667 95.166 53 131.499s78.333 54.5 129 54.5s94 -18.167 130 -54.5s54 -80.166 54 -131.499s-17.833 -95 -53.5 -131s-79.167 -54 -130.5 -54c-50.667 0 -93.667 18 -129 54s-53 79.667 -53 131zM218.998 841
c0 20 7.49805 37 22.498 51s33.167 21 54.5 21c20.667 0 38.334 -7 53.001 -21s22 -31 22 -51c0 -20.667 -7.16699 -38 -21.5 -52s-32.166 -21 -53.499 -21s-39.5 7 -54.5 21s-22.5 31.333 -22.5 52zM406.996 841c0 20 7.66699 37 23 51s33.666 21 54.999 21
c20.667 0 38.167 -7 52.5 -21s21.5 -31 21.5 -51c0 -20.667 -7.16699 -38 -21.5 -52s-31.833 -21 -52.5 -21c-21.333 0 -39.666 7 -54.999 21s-23 31.333 -23 52z" />
    <glyph glyph-name="multiply" unicode="&#xd7;" horiz-adv-x="486" 
d="M432 368l-114 -115l114 -112l-76 -77l-114 113l-112 -110l-76 77l111 109l-112 113l76 77l113 -113l114 114z" />
    <glyph glyph-name="Oslash" unicode="&#xd8;" horiz-adv-x="778" 
d="M388 158c50.667 0 94 18.168 130 54.501s54 80.166 54 131.499c0 38 -11 72.667 -33 104l-253 -259c30.667 -20.667 64.667 -31 102 -31zM206 344.001c0 -40 10.999 -76.333 32.999 -109l255 261c-29.333 23.333 -64.666 35 -105.999 35
c-50.667 0 -93.667 -18.167 -129 -54.5s-53 -80.5 -53 -132.5zM169.999 68.001l15.002 14.999l-96 -98l-47 47l80 82c-56.667 67.333 -85 144 -85 230c0 98 34.167 181.5 102.5 250.5s151.166 103.5 248.499 103.5c85.333 0 159.666 -27 222.999 -81l79 81l47 -46l-80 -82
c55.333 -67.333 83 -142.666 83 -225.999c0 -97.333 -34.167 -180.5 -102.5 -249.5s-151.5 -103.5 -249.5 -103.5c-82 0 -154.667 25.667 -218 77z" />
    <glyph glyph-name="Ugrave" unicode="&#xd9;" horiz-adv-x="682" 
d="M341 -9c-74 0 -137.833 24.167 -191.5 72.5s-80.5 110.833 -80.5 187.5v438h168v-438c0 -30 10.5 -54.667 31.5 -74s45.167 -29 72.5 -29s51.5 9.66699 72.5 29s31.5 44 31.5 74v438h168v-438c0 -76.667 -26.833 -139.167 -80.5 -187.5s-117.5 -72.5 -191.5 -72.5z
M171 923h148l93 -174h-103z" />
    <glyph glyph-name="Uacute" unicode="&#xda;" horiz-adv-x="682" 
d="M341 -9c74 0 137.833 24.167 191.5 72.5s80.5 110.833 80.5 187.5v438h-168v-438c0 -30 -10.5 -54.667 -31.5 -74s-45.167 -29 -72.5 -29s-51.5 9.66699 -72.5 29s-31.5 44 -31.5 74v438h-168v-438c0 -76.667 26.833 -139.167 80.5 -187.5s117.5 -72.5 191.5 -72.5z
M369 923h148l-138 -174h-103z" />
    <glyph glyph-name="Ucircumflex" unicode="&#xdb;" horiz-adv-x="682" 
d="M341 -9c-74 0 -137.833 24.167 -191.5 72.5s-80.5 110.833 -80.5 187.5v438h168v-438c0 -30 10.5 -54.667 31.5 -74s45.167 -29 72.5 -29s51.5 9.66699 72.5 29s31.5 44 31.5 74v438h168v-438c0 -76.667 -26.833 -139.167 -80.5 -187.5s-117.5 -72.5 -191.5 -72.5z
M153 757l109 173h156l110 -173h-108l-80 89l-80 -89h-107z" />
    <glyph glyph-name="Udieresis" unicode="&#xdc;" horiz-adv-x="682" 
d="M341 -9c74 0 137.833 24.167 191.5 72.5s80.5 110.833 80.5 187.5v438h-168v-438c0 -30 -10.5 -54.667 -31.5 -74s-45.167 -29 -72.5 -29s-51.5 9.66699 -72.5 29s-31.5 44 -31.5 74v438h-168v-438c0 -76.667 26.833 -139.167 80.5 -187.5s117.5 -72.5 191.5 -72.5z
M171 841c0 20 7.49805 37 22.498 51s33.167 21 54.5 21c20.667 0 38.334 -7 53.001 -21s22 -31 22 -51c0 -20.667 -7.16699 -38 -21.5 -52s-32.166 -21 -53.499 -21s-39.5 7 -54.5 21s-22.5 31.333 -22.5 52zM358.998 841c0 20 7.66699 37 23 51s33.666 21 54.999 21
c20.667 0 38.167 -7 52.5 -21s21.5 -31 21.5 -51c0 -20.667 -7.16699 -38 -21.5 -52s-31.833 -21 -52.5 -21c-21.333 0 -39.666 7 -54.999 21s-23 31.333 -23 52z" />
    <glyph glyph-name="Yacute" unicode="&#xdd;" horiz-adv-x="663" 
d="M415 0h-168v310l-269 379h199l153 -250l156 250h198l-269 -382v-307zM355 923h148l-138 -174h-103z" />
    <glyph glyph-name="Thorn" unicode="&#xde;" horiz-adv-x="575" 
d="M324 118l-80 0.000976562v-118h-167v689h167v-111h80c64.667 0 118.834 -20.833 162.501 -62.5s65.5 -96.834 65.5 -165.501s-21.833 -124.5 -65.5 -167.5s-97.834 -64.5 -162.501 -64.5zM389 347.001c0 28.667 -7.33301 51.333 -22 68s-34 25 -58 25h-65v-184h65
c24 0 43.333 8.16699 58 24.5s22 38.5 22 66.5z" />
    <glyph glyph-name="germandbls" unicode="&#xdf;" horiz-adv-x="591" 
d="M252 1l36.999 141.003c16.667 -2 30 -3 40 -3c22.667 0 41.667 8.5 57 25.5s23 36.167 23 57.5c0 6.66699 -1 14 -3 22s-5.83301 17.333 -11.5 28s-15 19.5 -28 26.5s-28.833 10.5 -47.5 10.5h-37v135h21c16 0 28.167 5 36.5 15s12.5 23.333 12.5 40
c0 12 -5.16699 23.667 -15.5 35s-27.166 17 -50.499 17c-44.667 0 -67 -32 -67 -96v-455h-159v455c0 161.333 73.667 242 221 242c65.333 0 118.333 -18 159 -54s61 -76.667 61 -122c0 -72.667 -22.667 -117.334 -68 -134.001c36.667 -8.66699 66.667 -28.834 90 -60.501
s35 -67.834 35 -108.501c0 -67.333 -19.167 -122 -57.5 -164s-95.833 -63 -172.5 -63c-28.667 0 -54 3.33301 -76 10z" />
    <glyph glyph-name="agrave" unicode="&#xe0;" horiz-adv-x="608" 
d="M389 416l-0.000976562 49.999h159v-466h-159v53c-29.333 -41.333 -72.333 -62 -129 -62c-60.667 0 -113.667 22.333 -159 67s-68 103.334 -68 176.001s22.667 131.5 68 176.5s98.333 67.5 159 67.5c24.667 0 48.834 -5.33301 72.501 -16s42.5 -26 56.5 -46z
M194.999 232.999c0 -26.667 9.5 -49.5 28.5 -68.5s41.833 -28.5 68.5 -28.5s49.5 9.5 68.5 28.5s28.5 41.833 28.5 68.5s-9.5 49.5 -28.5 68.5s-41.833 28.5 -68.5 28.5s-49.5 -9.5 -68.5 -28.5s-28.5 -41.833 -28.5 -68.5zM150.999 722.999h148l93 -174h-103z" />
    <glyph glyph-name="aacute" unicode="&#xe1;" horiz-adv-x="608" 
d="M389 466l0.000976562 -49.999c-14 20 -32.833 35.333 -56.5 46s-47.834 16 -72.501 16c-60.667 0 -113.667 -22.5 -159 -67.5s-68 -103.833 -68 -176.5s22.667 -131.334 68 -176.001s98.333 -67 159 -67c56.667 0 99.667 20.667 129 62v-53h159v466h-159z
M195.001 233.001c0 26.667 9.5 49.5 28.5 68.5s41.833 28.5 68.5 28.5s49.5 -9.5 68.5 -28.5s28.5 -41.833 28.5 -68.5s-9.5 -49.5 -28.5 -68.5s-41.833 -28.5 -68.5 -28.5s-49.5 9.5 -68.5 28.5s-28.5 41.833 -28.5 68.5zM320.001 723.001h148l-138 -174h-103z" />
    <glyph glyph-name="acircumflex" unicode="&#xe2;" horiz-adv-x="608" 
d="M389 416l-0.000976562 49.999h159v-466h-159v53c-29.333 -41.333 -72.333 -62 -129 -62c-60.667 0 -113.667 22.333 -159 67s-68 103.334 -68 176.001s22.667 131.5 68 176.5s98.333 67.5 159 67.5c24.667 0 48.834 -5.33301 72.501 -16s42.5 -26 56.5 -46z
M194.999 232.999c0 -26.667 9.5 -49.5 28.5 -68.5s41.833 -28.5 68.5 -28.5s49.5 9.5 68.5 28.5s28.5 41.833 28.5 68.5s-9.5 49.5 -28.5 68.5s-41.833 28.5 -68.5 28.5s-49.5 -9.5 -68.5 -28.5s-28.5 -41.833 -28.5 -68.5zM117.999 556.999l109 173h156l110 -173h-108
l-80 89l-80 -89h-107z" />
    <glyph glyph-name="atilde" unicode="&#xe3;" horiz-adv-x="608" 
d="M389 416l-0.000976562 49.999h159v-466h-159v53c-29.333 -41.333 -72.333 -62 -129 -62c-60.667 0 -113.667 22.333 -159 67s-68 103.334 -68 176.001s22.667 131.5 68 176.5s98.333 67.5 159 67.5c24.667 0 48.834 -5.33301 72.501 -16s42.5 -26 56.5 -46z
M194.999 232.999c0 -26.667 9.5 -49.5 28.5 -68.5s41.833 -28.5 68.5 -28.5s49.5 9.5 68.5 28.5s28.5 41.833 28.5 68.5s-9.5 49.5 -28.5 68.5s-41.833 28.5 -68.5 28.5s-49.5 -9.5 -68.5 -28.5s-28.5 -41.833 -28.5 -68.5zM261.999 596.999
c-5.33301 0 -10.832 -3.66699 -16.499 -11s-8.83398 -18 -9.50098 -32h-75c2 44.667 13.167 77.5 33.5 98.5s42.833 31.5 67.5 31.5c15.333 0 32 -6.83301 50 -20.5s30.333 -20.5 37 -20.5c5.33301 0 10.833 3.33301 16.5 10s8.83398 17 9.50098 31h75
c-2 -44 -13.167 -76.333 -33.5 -97s-42.833 -31 -67.5 -31c-14 0 -30.333 6.83301 -49 20.5s-31.334 20.5 -38.001 20.5z" />
    <glyph glyph-name="adieresis" unicode="&#xe4;" horiz-adv-x="608" 
d="M389 466l0.000976562 -49.999c-14 20 -32.833 35.333 -56.5 46s-47.834 16 -72.501 16c-60.667 0 -113.667 -22.5 -159 -67.5s-68 -103.833 -68 -176.5s22.667 -131.334 68 -176.001s98.333 -67 159 -67c56.667 0 99.667 20.667 129 62v-53h159v466h-159z
M195.001 233.001c0 26.667 9.5 49.5 28.5 68.5s41.833 28.5 68.5 28.5s49.5 -9.5 68.5 -28.5s28.5 -41.833 28.5 -68.5s-9.5 -49.5 -28.5 -68.5s-41.833 -28.5 -68.5 -28.5s-49.5 9.5 -68.5 28.5s-28.5 41.833 -28.5 68.5zM135.001 641.001c0 20 7.49805 37 22.498 51
s33.167 21 54.5 21c20.667 0 38.334 -7 53.001 -21s22 -31 22 -51c0 -20.667 -7.16699 -38 -21.5 -52s-32.166 -21 -53.499 -21s-39.5 7 -54.5 21s-22.5 31.333 -22.5 52zM322.999 641.001c0 20 7.66699 37 23 51s33.666 21 54.999 21c20.667 0 38.167 -7 52.5 -21
s21.5 -31 21.5 -51c0 -20.667 -7.16699 -38 -21.5 -52s-31.833 -21 -52.5 -21c-21.333 0 -39.666 7 -54.999 21s-23 31.333 -23 52z" />
    <glyph glyph-name="aring" unicode="&#xe5;" horiz-adv-x="608" 
d="M389 466l0.000976562 -49.999c-14 20 -32.833 35.333 -56.5 46s-47.834 16 -72.501 16c-60.667 0 -113.667 -22.5 -159 -67.5s-68 -103.833 -68 -176.5s22.667 -131.334 68 -176.001s98.333 -67 159 -67c56.667 0 99.667 20.667 129 62v-53h159v466h-159z
M195.001 233.001c0 26.667 9.5 49.5 28.5 68.5s41.833 28.5 68.5 28.5s49.5 -9.5 68.5 -28.5s28.5 -41.833 28.5 -68.5s-9.5 -49.5 -28.5 -68.5s-41.833 -28.5 -68.5 -28.5s-49.5 9.5 -68.5 28.5s-28.5 41.833 -28.5 68.5zM178.001 673.001c0 36 12.167 66.5 36.5 91.5
s54.166 37.5 89.499 37.5c36 0 66.333 -12.5 91 -37.5s37 -55.5 37 -91.5c0 -35.333 -12.333 -65.333 -37 -90s-55 -37 -91 -37c-35.333 0 -65.166 12.333 -89.499 37s-36.5 54.667 -36.5 90zM240.001 673.001c0 -18.667 6.16699 -34.167 18.5 -46.5s27.5 -18.5 45.5 -18.5
c18.667 0 34.5 6.16699 47.5 18.5s19.5 27.833 19.5 46.5s-6.5 34.667 -19.5 48s-28.833 20 -47.5 20c-18 0 -33.167 -6.5 -45.5 -19.5s-18.5 -29.167 -18.5 -48.5z" />
    <glyph glyph-name="ae" unicode="&#xe6;" horiz-adv-x="984" 
d="M957 240c0 -8 -0.999023 -25.001 -2.99902 -51.001h-334c2.66699 -21.333 14.5 -38.5 35.5 -51.5s44.833 -19.5 71.5 -19.5c37.333 0 67 13 89 39c7.33301 -6 26.166 -19.667 56.499 -41s48.166 -34 53.499 -38c-44 -58 -114.333 -87 -211 -87c-65.333 0 -121 20 -167 60
v-51h-159v53c-29.333 -41.333 -72.333 -62 -129 -62c-60.667 0 -113.667 22.333 -159 67s-68 103.334 -68 176.001s22.667 131.5 68 176.5s98.333 67.5 159 67.5c24.667 0 48.834 -5.33301 72.501 -16s42.5 -26 56.5 -46v50h159v-47c45.333 39.333 101 59 167 59
c68.667 0 126.167 -21.833 172.5 -65.5s69.5 -101.167 69.5 -172.5zM195.001 232.999c0 -26.667 9.5 -49.5 28.5 -68.5s41.833 -28.5 68.5 -28.5s49.5 9.5 68.5 28.5s28.5 41.833 28.5 68.5s-9.5 49.5 -28.5 68.5s-41.833 28.5 -68.5 28.5s-49.5 -9.5 -68.5 -28.5
s-28.5 -41.833 -28.5 -68.5zM620.001 277.999h186.001c-6.66699 26 -19.334 44 -38.001 54s-37 15 -55 15c-10.667 0 -21.5 -1.33301 -32.5 -4s-23 -9.66699 -36 -21s-21.167 -26 -24.5 -44z" />
    <glyph glyph-name="ccedilla" unicode="&#xe7;" horiz-adv-x="526" 
d="M305 -8l36.0039 -52.0029c7.33301 -12 11 -29 11 -51c0 -29.333 -10.333 -54.166 -31 -74.499s-45 -30.5 -73 -30.5c-30.667 0 -56.834 11 -78.501 33s-31.834 54 -30.501 96l70 -4c-2.66699 -28 5.66602 -45.333 24.999 -52c16 -5.33301 28.667 -1 38 13
c8 11.333 8.66699 26 2 44l-43 84c-57.333 12 -104.666 39 -141.999 81s-56 93.667 -56 155c0 72 25.333 130.667 76 176s111.667 68 183 68c85.333 0 153.666 -38.333 204.999 -115l-139 -84c-14.667 28 -40.334 42 -77.001 42c-23.333 0 -43.5 -8.66699 -60.5 -26
s-25.5 -37.666 -25.5 -60.999s8.5 -43.666 25.5 -60.999s37.167 -26 60.5 -26c36 0 61 12.667 75 38l142 -79c-48 -72 -112.333 -110 -193 -114z" />
    <glyph glyph-name="egrave" unicode="&#xe8;" horiz-adv-x="550" 
d="M102 723h148l93 -174h-103zM523 240c0 -8 -0.998047 -25 -2.99805 -51h-334c2.66699 -21.333 14.5 -38.5 35.5 -51.5s44.833 -19.5 71.5 -19.5c37.333 0 67 13 89 39c7.33301 -6 26.166 -19.667 56.499 -41s48.166 -34 53.499 -38c-44 -58 -114.333 -87 -211 -87
c-68.667 0 -127.167 22.833 -175.5 68.5s-72.5 104.5 -72.5 176.5c0 71.333 24.167 129.5 72.5 174.5s106.833 67.5 175.5 67.5s126.167 -21.833 172.5 -65.5s69.5 -101.167 69.5 -172.5zM186.002 278h186.001c-6.66699 26 -19.334 44 -38.001 54s-37 15 -55 15
c-10.667 0 -21.5 -1.33301 -32.5 -4s-23 -9.66699 -36 -21s-21.167 -26 -24.5 -44z" />
    <glyph glyph-name="eacute" unicode="&#xe9;" horiz-adv-x="550" 
d="M315 723h148l-138 -174h-103zM523 240c0 71.333 -23.1689 128.833 -69.502 172.5s-103.833 65.5 -172.5 65.5s-127.167 -22.5 -175.5 -67.5s-72.5 -103.167 -72.5 -174.5c0 -72 24.167 -130.833 72.5 -176.5s106.833 -68.5 175.5 -68.5c96.667 0 167 29 211 87
c-5.33301 4 -23.166 16.667 -53.499 38s-49.166 35 -56.499 41c-22 -26 -51.667 -39 -89 -39c-26.667 0 -50.5 6.5 -71.5 19.5s-32.833 30.167 -35.5 51.5h334c2 26 3 43 3 51zM185.998 278c5.33301 26 17.4971 44 36.4971 54s37.833 15 56.5 15
c10.667 0 21.334 -1.33301 32.001 -4s22.334 -9.66699 35.001 -21s21.334 -26 26.001 -44h-186z" />
    <glyph glyph-name="ecircumflex" unicode="&#xea;" horiz-adv-x="550" 
d="M91 557l109 173h156l110 -173h-108l-80 89l-80 -89h-107zM523 240c0 -8 -0.998047 -25 -2.99805 -51h-334c2.66699 -21.333 14.5 -38.5 35.5 -51.5s44.833 -19.5 71.5 -19.5c37.333 0 67 13 89 39c7.33301 -6 26.166 -19.667 56.499 -41s48.166 -34 53.499 -38
c-44 -58 -114.333 -87 -211 -87c-68.667 0 -127.167 22.833 -175.5 68.5s-72.5 104.5 -72.5 176.5c0 71.333 24.167 129.5 72.5 174.5s106.833 67.5 175.5 67.5s126.167 -21.833 172.5 -65.5s69.5 -101.167 69.5 -172.5zM186.002 278h186.001
c-6.66699 26 -19.334 44 -38.001 54s-37 15 -55 15c-10.667 0 -21.5 -1.33301 -32.5 -4s-23 -9.66699 -36 -21s-21.167 -26 -24.5 -44z" />
    <glyph glyph-name="edieresis" unicode="&#xeb;" horiz-adv-x="550" 
d="M108 641c0 20 7.49805 37 22.498 51s33.167 21 54.5 21c20.667 0 38.334 -7 53.001 -21s22 -31 22 -51c0 -20.667 -7.16699 -38 -21.5 -52s-32.166 -21 -53.499 -21s-39.5 7 -54.5 21s-22.5 31.333 -22.5 52zM295.998 641c0 20 7.66699 37 23 51s33.666 21 54.999 21
c20.667 0 38.167 -7 52.5 -21s21.5 -31 21.5 -51c0 -20.667 -7.16699 -38 -21.5 -52s-31.833 -21 -52.5 -21c-21.333 0 -39.666 7 -54.999 21s-23 31.333 -23 52zM522.998 240c0 71.333 -23.1689 128.833 -69.502 172.5s-103.833 65.5 -172.5 65.5
s-127.167 -22.5 -175.5 -67.5s-72.5 -103.167 -72.5 -174.5c0 -72 24.167 -130.833 72.5 -176.5s106.833 -68.5 175.5 -68.5c96.667 0 167 29 211 87c-5.33301 4 -23.166 16.667 -53.499 38s-49.166 35 -56.499 41c-22 -26 -51.667 -39 -89 -39
c-26.667 0 -50.5 6.5 -71.5 19.5s-32.833 30.167 -35.5 51.5h334c2 26 3 43 3 51zM185.996 278c5.33301 26 17.4971 44 36.4971 54s37.833 15 56.5 15c10.667 0 21.334 -1.33301 32.001 -4s22.334 -9.66699 35.001 -21s21.334 -26 26.001 -44h-186z" />
    <glyph glyph-name="igrave" unicode="&#xec;" horiz-adv-x="277" 
d="M60 467h157v-467h-157v467zM-24 723h148l93 -174h-103z" />
    <glyph glyph-name="iacute" unicode="&#xed;" horiz-adv-x="277" 
d="M217 467h-157v-467h157v467zM154 723h148l-138 -174h-103z" />
    <glyph glyph-name="icircumflex" unicode="&#xee;" horiz-adv-x="277" 
d="M60 467h157v-467h-157v467zM-50 557l109 173h156l110 -173h-108l-80 89l-80 -89h-107z" />
    <glyph glyph-name="idieresis" unicode="&#xef;" horiz-adv-x="277" 
d="M217 467h-157v-467h157v467zM-32 641c0 20 7.49805 37 22.498 51s33.167 21 54.5 21c20.667 0 38.334 -7 53.001 -21s22 -31 22 -51c0 -20.667 -7.16699 -38 -21.5 -52s-32.166 -21 -53.499 -21s-39.5 7 -54.5 21s-22.5 31.333 -22.5 52zM155.998 641
c0 20 7.66699 37 23 51s33.666 21 54.999 21c20.667 0 38.167 -7 52.5 -21s21.5 -31 21.5 -51c0 -20.667 -7.16699 -38 -21.5 -52s-31.833 -21 -52.5 -21c-21.333 0 -39.666 7 -54.999 21s-23 31.333 -23 52z" />
    <glyph glyph-name="eth" unicode="&#xf0;" horiz-adv-x="552" 
d="M275 147c24 0 44.167 7.83301 60.5 23.5s24.5 36.5 24.5 62.5c0 24.667 -8.16699 44.667 -24.5 60s-36.5 23 -60.5 23c-23.333 0 -43.166 -7.66699 -59.499 -23s-24.5 -35.333 -24.5 -60c0 -26 8.16699 -46.833 24.5 -62.5s36.166 -23.5 59.499 -23.5zM413 615
l-80.999 -34.001l140 -203c30.667 -44 46 -92.333 46 -145c0 -72 -23.5 -130.333 -70.5 -175s-104.5 -67 -172.5 -67c-67.333 0 -124.333 22.333 -171 67s-70 103 -70 175c0 56.667 15.833 105.334 47.5 146.001s73.5 67 125.5 79c21.333 4 42.666 6.33301 63.999 7l-52 71
l-85 -33l-27 49l81 31l-74 106h145l42 -62l78 34z" />
    <glyph glyph-name="ntilde" unicode="&#xf1;" horiz-adv-x="590" 
d="M219 245v-245h-159v466h159v-73c7.33301 26.667 24.833 47.5 52.5 62.5s53.834 22.5 78.501 22.5c61.333 0 107.666 -19.833 138.999 -59.5s47 -96.5 47 -170.5v-248h-159v243c0 28 -7.66699 48.5 -23 61.5s-33 19.5 -53 19.5c-21.333 0 -40.333 -6.33301 -57 -19
s-25 -32.667 -25 -60zM252 597c-5.33301 0 -10.832 -3.66699 -16.499 -11s-8.83398 -18 -9.50098 -32h-75c2 44.667 13.167 77.5 33.5 98.5s42.833 31.5 67.5 31.5c15.333 0 32 -6.83301 50 -20.5s30.333 -20.5 37 -20.5c5.33301 0 10.833 3.33301 16.5 10
s8.83398 17 9.50098 31h75c-2 -44 -13.167 -76.333 -33.5 -97s-42.833 -31 -67.5 -31c-14 0 -30.333 6.83301 -49 20.5s-31.334 20.5 -38.001 20.5z" />
    <glyph glyph-name="ograve" unicode="&#xf2;" horiz-adv-x="563" 
d="M280 -9c-68 0 -126.167 22.667 -174.5 68s-72.5 103.666 -72.5 174.999c0 72 24.167 130.667 72.5 176s106.5 68 174.5 68c68.667 0 127.5 -22.667 176.5 -68s73.5 -104 73.5 -176c0 -71.333 -24.5 -129.666 -73.5 -174.999s-107.833 -68 -176.5 -68zM183 234
c0 -26.667 9.5 -49.5 28.5 -68.5s41.833 -28.5 68.5 -28.5s49.5 9.5 68.5 28.5s28.5 41.833 28.5 68.5s-9.5 49.5 -28.5 68.5s-41.833 28.5 -68.5 28.5s-49.5 -9.5 -68.5 -28.5s-28.5 -41.833 -28.5 -68.5zM85 723h148l93 -174h-103z" />
    <glyph glyph-name="oacute" unicode="&#xf3;" horiz-adv-x="563" 
d="M280 -9c68.667 0 127.5 22.667 176.5 68s73.5 103.666 73.5 174.999c0 72 -24.5 130.667 -73.5 176s-107.833 68 -176.5 68c-68 0 -126.167 -22.667 -174.5 -68s-72.5 -104 -72.5 -176c0 -71.333 24.167 -129.666 72.5 -174.999s106.5 -68 174.5 -68zM183 234
c0 26.667 9.5 49.5 28.5 68.5s41.833 28.5 68.5 28.5s49.5 -9.5 68.5 -28.5s28.5 -41.833 28.5 -68.5s-9.5 -49.5 -28.5 -68.5s-41.833 -28.5 -68.5 -28.5s-49.5 9.5 -68.5 28.5s-28.5 41.833 -28.5 68.5zM311 723h148l-138 -174h-103z" />
    <glyph glyph-name="ocircumflex" unicode="&#xf4;" horiz-adv-x="563" 
d="M280 -9c-68 0 -126.167 22.667 -174.5 68s-72.5 103.666 -72.5 174.999c0 72 24.167 130.667 72.5 176s106.5 68 174.5 68c68.667 0 127.5 -22.667 176.5 -68s73.5 -104 73.5 -176c0 -71.333 -24.5 -129.666 -73.5 -174.999s-107.833 -68 -176.5 -68zM183 234
c0 -26.667 9.5 -49.5 28.5 -68.5s41.833 -28.5 68.5 -28.5s49.5 9.5 68.5 28.5s28.5 41.833 28.5 68.5s-9.5 49.5 -28.5 68.5s-41.833 28.5 -68.5 28.5s-49.5 -9.5 -68.5 -28.5s-28.5 -41.833 -28.5 -68.5zM94 557l109 173h156l110 -173h-108l-80 89l-80 -89h-107z" />
    <glyph glyph-name="otilde" unicode="&#xf5;" horiz-adv-x="563" 
d="M280 -9c-68 0 -126.167 22.667 -174.5 68s-72.5 103.666 -72.5 174.999c0 72 24.167 130.667 72.5 176s106.5 68 174.5 68c68.667 0 127.5 -22.667 176.5 -68s73.5 -104 73.5 -176c0 -71.333 -24.5 -129.666 -73.5 -174.999s-107.833 -68 -176.5 -68zM183 234
c0 -26.667 9.5 -49.5 28.5 -68.5s41.833 -28.5 68.5 -28.5s49.5 9.5 68.5 28.5s28.5 41.833 28.5 68.5s-9.5 49.5 -28.5 68.5s-41.833 28.5 -68.5 28.5s-49.5 -9.5 -68.5 -28.5s-28.5 -41.833 -28.5 -68.5zM238 597c-5.33301 0 -10.832 -3.66699 -16.499 -11
s-8.83398 -18 -9.50098 -32h-75c2 44.667 13.167 77.5 33.5 98.5s42.833 31.5 67.5 31.5c15.333 0 32 -6.83301 50 -20.5s30.333 -20.5 37 -20.5c5.33301 0 10.833 3.33301 16.5 10s8.83398 17 9.50098 31h75c-2 -44 -13.167 -76.333 -33.5 -97s-42.833 -31 -67.5 -31
c-14 0 -30.333 6.83301 -49 20.5s-31.334 20.5 -38.001 20.5z" />
    <glyph glyph-name="odieresis" unicode="&#xf6;" horiz-adv-x="563" 
d="M280 -9c68.667 0 127.5 22.667 176.5 68s73.5 103.666 73.5 174.999c0 72 -24.5 130.667 -73.5 176s-107.833 68 -176.5 68c-68 0 -126.167 -22.667 -174.5 -68s-72.5 -104 -72.5 -176c0 -71.333 24.167 -129.666 72.5 -174.999s106.5 -68 174.5 -68zM183 234
c0 26.667 9.5 49.5 28.5 68.5s41.833 28.5 68.5 28.5s49.5 -9.5 68.5 -28.5s28.5 -41.833 28.5 -68.5s-9.5 -49.5 -28.5 -68.5s-41.833 -28.5 -68.5 -28.5s-49.5 9.5 -68.5 28.5s-28.5 41.833 -28.5 68.5zM112 641c0 20 7.49805 37 22.498 51s33.167 21 54.5 21
c20.667 0 38.334 -7 53.001 -21s22 -31 22 -51c0 -20.667 -7.16699 -38 -21.5 -52s-32.166 -21 -53.499 -21s-39.5 7 -54.5 21s-22.5 31.333 -22.5 52zM299.998 641c0 20 7.66699 37 23 51s33.666 21 54.999 21c20.667 0 38.167 -7 52.5 -21s21.5 -31 21.5 -51
c0 -20.667 -7.16699 -38 -21.5 -52s-31.833 -21 -52.5 -21c-21.333 0 -39.666 7 -54.999 21s-23 31.333 -23 52z" />
    <glyph glyph-name="divide" unicode="&#xf7;" horiz-adv-x="621" 
d="M226 73c0 23.333 8 42.5 24 57.5s35.667 22.5 59 22.5s43.166 -7.5 59.499 -22.5s24.5 -34.167 24.5 -57.5s-8.16699 -42.833 -24.5 -58.5s-36.166 -23.5 -59.499 -23.5s-43 7.83301 -59 23.5s-24 35.167 -24 58.5zM226 460c0 22.667 8 41.667 24 57s35.667 23 59 23
s43.166 -7.66699 59.499 -23s24.5 -34.333 24.5 -57c0 -24 -8.16699 -43.5 -24.5 -58.5s-36.166 -22.5 -59.499 -22.5s-43 7.5 -59 22.5s-24 34.5 -24 58.5zM571 218h-521v102h521v-102z" />
    <glyph glyph-name="oslash" unicode="&#xf8;" horiz-adv-x="563" 
d="M132 37l-55 -56.001l-41 41l53 54c-37.333 44 -56 96.667 -56 158c0 72 24.167 130.667 72.5 176s106.5 68 174.5 68c56.667 0 107.667 -16.333 153 -49l51 52l41 -40l-50 -51c36.667 -44 55 -96 55 -156c0 -71.333 -24.5 -129.666 -73.5 -174.999
s-107.833 -68 -176.5 -68c-56 0 -105.333 15.333 -148 46zM183 233.999c0 -18.667 4.33301 -34.667 13 -48l130 133c-16 8 -31.333 12 -46 12c-26.667 0 -49.5 -9.5 -68.5 -28.5s-28.5 -41.833 -28.5 -68.5zM280 136.999c26.667 0 49.5 9.49902 68.5 28.499
s28.5 41.833 28.5 68.5c0 14.667 -3.66699 29.334 -11 44.001l-128 -132c13.333 -6 27.333 -9 42 -9z" />
    <glyph glyph-name="ugrave" unicode="&#xf9;" horiz-adv-x="590" 
d="M125 723h148l93 -174h-103zM371 221l-0.00292969 245h159v-466h-159v73c-7.33301 -26.667 -24.666 -47 -51.999 -61s-53.666 -21 -78.999 -21c-61.333 0 -107.666 19.833 -138.999 59.5s-47 96.5 -47 170.5v245h159v-240c0 -28 7.66699 -48.5 23 -61.5s33 -19.5 53 -19.5
c22 0 41.167 5.83301 57.5 17.5s24.5 31.167 24.5 58.5z" />
    <glyph glyph-name="uacute" unicode="&#xfa;" horiz-adv-x="590" 
d="M324 723h148l-138 -174h-103zM371 221l-0.00292969 245h159v-466h-159v73c-7.33301 -26.667 -24.666 -47 -51.999 -61s-53.666 -21 -78.999 -21c-61.333 0 -107.666 19.833 -138.999 59.5s-47 96.5 -47 170.5v245h159v-240c0 -28 7.66699 -48.5 23 -61.5
s33 -19.5 53 -19.5c22 0 41.167 5.83301 57.5 17.5s24.5 31.167 24.5 58.5z" />
    <glyph glyph-name="ucircumflex" unicode="&#xfb;" horiz-adv-x="590" 
d="M102 557l109 173h156l110 -173h-108l-80 89l-80 -89h-107zM371 221l-0.00292969 245h159v-466h-159v73c-7.33301 -26.667 -24.666 -47 -51.999 -61s-53.666 -21 -78.999 -21c-61.333 0 -107.666 19.833 -138.999 59.5s-47 96.5 -47 170.5v245h159v-240
c0 -28 7.66699 -48.5 23 -61.5s33 -19.5 53 -19.5c22 0 41.167 5.83301 57.5 17.5s24.5 31.167 24.5 58.5z" />
    <glyph glyph-name="udieresis" unicode="&#xfc;" horiz-adv-x="590" 
d="M132 641c0 20 7.49805 37 22.498 51s33.167 21 54.5 21c20.667 0 38.334 -7 53.001 -21s22 -31 22 -51c0 -20.667 -7.16699 -38 -21.5 -52s-32.166 -21 -53.499 -21s-39.5 7 -54.5 21s-22.5 31.333 -22.5 52zM319.998 641c0 20 7.66699 37 23 51s33.666 21 54.999 21
c20.667 0 38.167 -7 52.5 -21s21.5 -31 21.5 -51c0 -20.667 -7.16699 -38 -21.5 -52s-31.833 -21 -52.5 -21c-21.333 0 -39.666 7 -54.999 21s-23 31.333 -23 52zM370.998 221l-0.00292969 245h159v-466h-159v73c-7.33301 -26.667 -24.666 -47 -51.999 -61
s-53.666 -21 -78.999 -21c-61.333 0 -107.666 19.833 -138.999 59.5s-47 96.5 -47 170.5v245h159v-240c0 -28 7.66699 -48.5 23 -61.5s33 -19.5 53 -19.5c22 0 41.167 5.83301 57.5 17.5s24.5 31.167 24.5 58.5z" />
    <glyph glyph-name="yacute" unicode="&#xfd;" horiz-adv-x="518" 
d="M517 466h-169l-87 -226l-91 226h-174l183 -404l-117 -292h167zM276 723h148l-138 -174h-103z" />
    <glyph glyph-name="thorn" unicode="&#xfe;" horiz-adv-x="609" 
d="M219 711v-287.999c33.333 36.667 76.333 55 129 55c60.667 0 113.667 -22.5 159 -67.5s68 -103.833 68 -176.5s-22.667 -131.334 -68 -176.001s-98.333 -67 -159 -67c-28.667 0 -55.667 6.33301 -81 19s-44.333 31.667 -57 57v-297h-150v941h159zM413 233.001
c0 26.667 -9.5 49.5 -28.5 68.5s-41.833 28.5 -68.5 28.5s-49.5 -9.5 -68.5 -28.5s-28.5 -41.833 -28.5 -68.5s9.5 -49.5 28.5 -68.5s41.833 -28.5 68.5 -28.5s49.5 9.5 68.5 28.5s28.5 41.833 28.5 68.5z" />
    <glyph glyph-name="ydieresis" unicode="&#xff;" horiz-adv-x="518" 
d="M517 466h-169l-87 -226l-91 226h-174l183 -404l-117 -292h167zM89 641c0 20 7.49805 37 22.498 51s33.167 21 54.5 21c20.667 0 38.334 -7 53.001 -21s22 -31 22 -51c0 -20.667 -7.16699 -38 -21.5 -52s-32.166 -21 -53.499 -21s-39.5 7 -54.5 21s-22.5 31.333 -22.5 52z
M276.998 641c0 20 7.66699 37 23 51s33.666 21 54.999 21c20.667 0 38.167 -7 52.5 -21s21.5 -31 21.5 -51c0 -20.667 -7.16699 -38 -21.5 -52s-31.833 -21 -52.5 -21c-21.333 0 -39.666 7 -54.999 21s-23 31.333 -23 52z" />
    <glyph glyph-name="Amacron" unicode="&#x100;" horiz-adv-x="667" 
d="M501 0l-58 158h-217l-58 -158h-179l254 689h182l253 -689h-177zM333 529l-62 -227h129zM477 779h-288v87h288v-87z" />
    <glyph glyph-name="amacron" unicode="&#x101;" horiz-adv-x="608" 
d="M389 416l-0.000976562 49.999h159v-466h-159v53c-29.333 -41.333 -72.333 -62 -129 -62c-60.667 0 -113.667 22.333 -159 67s-68 103.334 -68 176.001s22.667 131.5 68 176.5s98.333 67.5 159 67.5c24.667 0 48.834 -5.33301 72.501 -16s42.5 -26 56.5 -46z
M194.999 232.999c0 -26.667 9.5 -49.5 28.5 -68.5s41.833 -28.5 68.5 -28.5s49.5 9.5 68.5 28.5s28.5 41.833 28.5 68.5s-9.5 49.5 -28.5 68.5s-41.833 28.5 -68.5 28.5s-49.5 -9.5 -68.5 -28.5s-28.5 -41.833 -28.5 -68.5zM448.999 578.999h-288v87h288v-87z" />
    <glyph glyph-name="Abreve" unicode="&#x102;" horiz-adv-x="667" 
d="M443 158l58 -158h177l-253 689h-182l-254 -689h179l58 158h217zM271 302l62 227l67 -227h-129zM197 896l89 -0.000976562c0 -17.333 3.5 -30 10.5 -38s19.167 -12 36.5 -12c30 0 45 16.667 45 50h91c0 -39.333 -12.667 -71.166 -38 -95.499s-58 -36.5 -98 -36.5
c-43.333 0 -76.833 13 -100.5 39s-35.5 57 -35.5 93z" />
    <glyph glyph-name="abreve" unicode="&#x103;" horiz-adv-x="608" 
d="M389 466l0.000976562 -49.999c-14 20 -32.833 35.333 -56.5 46s-47.834 16 -72.501 16c-60.667 0 -113.667 -22.5 -159 -67.5s-68 -103.833 -68 -176.5s22.667 -131.334 68 -176.001s98.333 -67 159 -67c56.667 0 99.667 20.667 129 62v-53h159v466h-159z
M195.001 233.001c0 26.667 9.5 49.5 28.5 68.5s41.833 28.5 68.5 28.5s49.5 -9.5 68.5 -28.5s28.5 -41.833 28.5 -68.5s-9.5 -49.5 -28.5 -68.5s-41.833 -28.5 -68.5 -28.5s-49.5 9.5 -68.5 28.5s-28.5 41.833 -28.5 68.5zM169.001 696.001l89 -0.000976562
c0 -17.333 3.5 -30 10.5 -38s19.167 -12 36.5 -12c30 0 45 16.667 45 50h91c0 -39.333 -12.667 -71.166 -38 -95.499s-58 -36.5 -98 -36.5c-43.333 0 -76.833 13 -100.5 39s-35.5 57 -35.5 93z" />
    <glyph glyph-name="Aogonek" unicode="&#x104;" horiz-adv-x="667" 
d="M333 529l-62 -227h129zM678 0l-43.999 -85.999c-9.33301 -25.333 -5.33301 -43.333 12 -54c14.667 -8.66699 28.334 -7 41.001 5c10 10 14 24.667 12 44l70 4c1.33301 -42 -8.83398 -74 -30.501 -96s-47.834 -33 -78.501 -33c-28 0 -52.333 10.167 -73 30.5
s-31 45.166 -31 74.499c0 20.667 3.66699 37.667 11 51l40 60h-106l-58 158h-217l-58 -158h-179l254 689h182z" />
    <glyph glyph-name="aogonek" unicode="&#x105;" horiz-adv-x="608" 
d="M548 0l-44 -86c-9.33301 -25.333 -5.33301 -43.333 12 -54c14.667 -8.66699 28.334 -7 41.001 5c10 10 14 24.667 12 44l70 4c1.33301 -42 -8.83398 -74 -30.501 -96s-47.834 -33 -78.501 -33c-28 0 -52.333 10.167 -73 30.5s-31 45.166 -31 74.499
c0 20.667 3.66699 37.667 11 51l40 60h-88v53c-29.333 -41.333 -72.333 -62 -129 -62c-60.667 0 -113.667 22.333 -159 67s-68 103.334 -68 176.001s22.667 131.5 68 176.5s98.333 67.5 159 67.5c24.667 0 48.834 -5.33301 72.501 -16s42.5 -26 56.5 -46v50h159v-466z
M195 233c0 -26.667 9.5 -49.5 28.5 -68.5s41.833 -28.5 68.5 -28.5s49.5 9.5 68.5 28.5s28.5 41.833 28.5 68.5s-9.5 49.5 -28.5 68.5s-41.833 28.5 -68.5 28.5s-49.5 -9.5 -68.5 -28.5s-28.5 -41.833 -28.5 -68.5z" />
    <glyph glyph-name="Cacute" unicode="&#x106;" horiz-adv-x="707" 
d="M682 149l-137.001 96.002c-16.667 -26.667 -38.667 -47.667 -66 -63s-57.333 -23 -90 -23c-50.667 0 -93.667 18 -129 54s-53 79.667 -53 131s17.667 95.166 53 131.499s78.333 54.5 129 54.5c32 0 61.833 -7.83301 89.5 -23.5s49.5 -36.834 65.5 -63.501l25 17.5
l47.5 33l51.5 36c12.667 9 17.667 12.5 15 10.5c-32 48.667 -73.833 87.167 -125.5 115.5s-107.834 42.5 -168.501 42.5c-97.333 0 -180.166 -34.5 -248.499 -103.5s-102.5 -152.5 -102.5 -250.5c0 -97.333 34.333 -180.5 103 -249.5s151.334 -103.5 248.001 -103.5
c60 0 115.833 14.167 167.5 42.5s93.5 66.833 125.5 115.5zM418.999 946.002h148l-138 -174h-103z" />
    <glyph glyph-name="cacute" unicode="&#x107;" horiz-adv-x="526" 
d="M195 234c0 -23.333 8.50195 -43.668 25.502 -61.001s37.167 -26 60.5 -26c36 0 61 12.667 75 38l142 -79c-51.333 -76.667 -120 -115 -206 -115c-72 0 -133.167 22.5 -183.5 67.5s-75.5 103.5 -75.5 175.5s25.333 130.667 76 176s111.667 68 183 68
c85.333 0 153.666 -38.333 204.999 -115l-139 -84c-14.667 28 -40.334 42 -77.001 42c-23.333 0 -43.5 -8.66699 -60.5 -26s-25.5 -37.666 -25.5 -60.999zM319.002 722.998h148l-138 -174h-103z" />
    <glyph glyph-name="Ccircumflex" unicode="&#x108;" horiz-adv-x="707" 
d="M545 245l137.001 -96.002c-32 -48.667 -73.833 -87.167 -125.5 -115.5s-107.5 -42.5 -167.5 -42.5c-96.667 0 -179.334 34.5 -248.001 103.5s-103 152.167 -103 249.5c0 98 34.167 181.5 102.5 250.5s151.166 103.5 248.499 103.5
c60.667 0 116.834 -14.167 168.501 -42.5s93.5 -66.833 125.5 -115.5l-139 -97c-16 26.667 -37.833 47.834 -65.5 63.501s-57.5 23.5 -89.5 23.5c-50.667 0 -93.667 -18.167 -129 -54.5s-53 -80.166 -53 -131.499s17.667 -95 53 -131s78.333 -54 129 -54
c32.667 0 62.667 7.66699 90 23s49.333 36.333 66 63zM200.001 779.998l109 173h156l110 -173h-108l-80 89l-80 -89h-107z" />
    <glyph glyph-name="ccircumflex" unicode="&#x109;" horiz-adv-x="526" 
d="M195 234c0 -23.333 8.50195 -43.668 25.502 -61.001s37.167 -26 60.5 -26c36 0 61 12.667 75 38l142 -79c-51.333 -76.667 -120 -115 -206 -115c-72 0 -133.167 22.5 -183.5 67.5s-75.5 103.5 -75.5 175.5s25.333 130.667 76 176s111.667 68 183 68
c85.333 0 153.666 -38.333 204.999 -115l-139 -84c-14.667 28 -40.334 42 -77.001 42c-23.333 0 -43.5 -8.66699 -60.5 -26s-25.5 -37.666 -25.5 -60.999zM96.002 556.998l109 173h156l110 -173h-108l-80 89l-80 -89h-107z" />
    <glyph glyph-name="Cdotaccent" unicode="&#x10a;" horiz-adv-x="707" 
d="M682 149l-137.001 96.002c-16.667 -26.667 -38.667 -47.667 -66 -63s-57.333 -23 -90 -23c-50.667 0 -93.667 18 -129 54s-53 79.667 -53 131s17.667 95.166 53 131.499s78.333 54.5 129 54.5c32 0 61.833 -7.83301 89.5 -23.5s49.5 -36.834 65.5 -63.501l25 17.5
l47.5 33l51.5 36c12.667 9 17.667 12.5 15 10.5c-32 48.667 -73.833 87.167 -125.5 115.5s-107.834 42.5 -168.501 42.5c-97.333 0 -180.166 -34.5 -248.499 -103.5s-102.5 -152.5 -102.5 -250.5c0 -97.333 34.333 -180.5 103 -249.5s151.334 -103.5 248.001 -103.5
c60 0 115.833 14.167 167.5 42.5s93.5 66.833 125.5 115.5zM277.999 870.002c0 22.667 8 41.666 24 56.999s35.667 23 59 23s43 -7.66699 59 -23s24 -34.333 24 -57c0 -23.333 -8 -42.666 -24 -57.999s-35.667 -23 -59 -23c-24 0 -43.833 7.5 -59.5 22.5
s-23.5 34.5 -23.5 58.5z" />
    <glyph glyph-name="cdotaccent" unicode="&#x10b;" horiz-adv-x="526" 
d="M195 234c0 -23.333 8.50195 -43.668 25.502 -61.001s37.167 -26 60.5 -26c36 0 61 12.667 75 38l142 -79c-51.333 -76.667 -120 -115 -206 -115c-72 0 -133.167 22.5 -183.5 67.5s-75.5 103.5 -75.5 175.5s25.333 130.667 76 176s111.667 68 183 68
c85.333 0 153.666 -38.333 204.999 -115l-139 -84c-14.667 28 -40.334 42 -77.001 42c-23.333 0 -43.5 -8.66699 -60.5 -26s-25.5 -37.666 -25.5 -60.999zM197.002 646.998c0 22.667 8 41.666 24 56.999s35.667 23 59 23s43 -7.66699 59 -23s24 -34.333 24 -57
c0 -23.333 -8 -42.666 -24 -57.999s-35.667 -23 -59 -23c-24 0 -43.833 7.5 -59.5 22.5s-23.5 34.5 -23.5 58.5z" />
    <glyph glyph-name="Ccaron" unicode="&#x10c;" horiz-adv-x="707" 
d="M682 149l-137.001 96.002c-16.667 -26.667 -38.667 -47.667 -66 -63s-57.333 -23 -90 -23c-50.667 0 -93.667 18 -129 54s-53 79.667 -53 131s17.667 95.166 53 131.499s78.333 54.5 129 54.5c32 0 61.833 -7.83301 89.5 -23.5s49.5 -36.834 65.5 -63.501l25 17.5
l47.5 33l51.5 36c12.667 9 17.667 12.5 15 10.5c-32 48.667 -73.833 87.167 -125.5 115.5s-107.834 42.5 -168.501 42.5c-97.333 0 -180.166 -34.5 -248.499 -103.5s-102.5 -152.5 -102.5 -250.5c0 -97.333 34.333 -180.5 103 -249.5s151.334 -103.5 248.001 -103.5
c60 0 115.833 14.167 167.5 42.5s93.5 66.833 125.5 115.5zM468.999 773.002h-156l-109 173h107l80 -90l80 90h108z" />
    <glyph glyph-name="ccaron" unicode="&#x10d;" horiz-adv-x="526" 
d="M195 234c0 -23.333 8.50195 -43.668 25.502 -61.001s37.167 -26 60.5 -26c36 0 61 12.667 75 38l142 -79c-51.333 -76.667 -120 -115 -206 -115c-72 0 -133.167 22.5 -183.5 67.5s-75.5 103.5 -75.5 175.5s25.333 130.667 76 176s111.667 68 183 68
c85.333 0 153.666 -38.333 204.999 -115l-139 -84c-14.667 28 -40.334 42 -77.001 42c-23.333 0 -43.5 -8.66699 -60.5 -26s-25.5 -37.666 -25.5 -60.999zM352.002 549.998h-156l-109 173h107l80 -90l80 90h108z" />
    <glyph glyph-name="Dcaron" unicode="&#x10e;" horiz-adv-x="705" 
d="M245 149v391h105c46 0 81.833 -19.167 107.5 -57.5s38.5 -84.833 38.5 -139.5c0 -54 -12.833 -99.833 -38.5 -137.5s-61.5 -56.5 -107.5 -56.5h-105zM77 689v-689h273c97.333 0 173.833 32.167 229.5 96.5s83.5 146.5 83.5 246.5c0 100.667 -28 183.5 -84 248.5
s-132.333 97.5 -229 97.5h-273zM440 750h-156l-109 173h107l80 -90l80 90h108z" />
    <glyph glyph-name="dcaron" unicode="&#x10f;" horiz-adv-x="608" 
d="M647 465l-72 41c22.667 31.333 38.667 61.833 48 91.5s14.333 67.5 15 113.5h128c-11.333 -107.333 -51 -189.333 -119 -246zM389 711v-287.999c-33.333 36.667 -76.333 55 -129 55c-60.667 0 -113.667 -22.5 -159 -67.5s-68 -103.833 -68 -176.5
s22.667 -131.334 68 -176.001s98.333 -67 159 -67c28.667 0 55.667 6.33301 81 19s44.333 31.667 57 57v-67h150v711h-159zM195 233.001c0 26.667 9.5 49.5 28.5 68.5s41.833 28.5 68.5 28.5s49.5 -9.5 68.5 -28.5s28.5 -41.833 28.5 -68.5s-9.5 -49.5 -28.5 -68.5
s-41.833 -28.5 -68.5 -28.5s-49.5 9.5 -68.5 28.5s-28.5 41.833 -28.5 68.5z" />
    <glyph glyph-name="Dcroat" unicode="&#x110;" horiz-adv-x="722" 
d="M368 282h-106v-133h105c46 0 81.833 18.833 107.5 56.5s38.5 83.5 38.5 137.5c0 54.667 -12.833 101.167 -38.5 139.5s-61.5 57.5 -107.5 57.5h-105v-157h106v-101zM94 282h-94v101h94v306h273c96.667 0 173 -32.5 229 -97.5s84 -147.833 84 -248.5
c0 -100 -27.833 -182.167 -83.5 -246.5s-132.167 -96.5 -229.5 -96.5h-273v282z" />
    <glyph glyph-name="dcroat" unicode="&#x111;" horiz-adv-x="608" 
d="M389 543l-132 -0.000976562v80h132v88h159v-88h66v-80h-66v-543h-150v67c-12.667 -25.333 -31.667 -44.333 -57 -57s-52.333 -19 -81 -19c-60.667 0 -113.667 22.333 -159 67s-68 103.334 -68 176.001s22.667 131.5 68 176.5s98.333 67.5 159 67.5
c52.667 0 95.667 -18.333 129 -55v120zM195 232.999c0 -26.667 9.5 -49.5 28.5 -68.5s41.833 -28.5 68.5 -28.5s49.5 9.5 68.5 28.5s28.5 41.833 28.5 68.5s-9.5 49.5 -28.5 68.5s-41.833 28.5 -68.5 28.5s-49.5 -9.5 -68.5 -28.5s-28.5 -41.833 -28.5 -68.5z" />
    <glyph glyph-name="Emacron" unicode="&#x112;" horiz-adv-x="581" 
d="M533 0h-456v689h447v-146h-280v-132h246v-143h-246v-122h289v-146zM429 779h-288v87h288v-87z" />
    <glyph glyph-name="emacron" unicode="&#x113;" horiz-adv-x="550" 
d="M422 579h-288v87h288v-87zM523 240c0 -8 -0.998047 -25 -2.99805 -51h-334c2.66699 -21.333 14.5 -38.5 35.5 -51.5s44.833 -19.5 71.5 -19.5c37.333 0 67 13 89 39c7.33301 -6 26.166 -19.667 56.499 -41s48.166 -34 53.499 -38c-44 -58 -114.333 -87 -211 -87
c-68.667 0 -127.167 22.833 -175.5 68.5s-72.5 104.5 -72.5 176.5c0 71.333 24.167 129.5 72.5 174.5s106.833 67.5 175.5 67.5s126.167 -21.833 172.5 -65.5s69.5 -101.167 69.5 -172.5zM186.002 278h186.001c-6.66699 26 -19.334 44 -38.001 54s-37 15 -55 15
c-10.667 0 -21.5 -1.33301 -32.5 -4s-23 -9.66699 -36 -21s-21.167 -26 -24.5 -44z" />
    <glyph glyph-name="Ebreve" unicode="&#x114;" horiz-adv-x="581" 
d="M77 0h456v146h-289v122h246v143h-246v132h280v146h-447v-689zM149 896l89 -0.000976562c0 -17.333 3.5 -30 10.5 -38s19.167 -12 36.5 -12c30 0 45 16.667 45 50h91c0 -39.333 -12.667 -71.166 -38 -95.499s-58 -36.5 -98 -36.5c-43.333 0 -76.833 13 -100.5 39
s-35.5 57 -35.5 93z" />
    <glyph glyph-name="ebreve" unicode="&#x115;" horiz-adv-x="550" 
d="M142 696l89 -0.000976562c0 -17.333 3.5 -30 10.5 -38s19.167 -12 36.5 -12c30 0 45 16.667 45 50h91c0 -39.333 -12.667 -71.166 -38 -95.499s-58 -36.5 -98 -36.5c-43.333 0 -76.833 13 -100.5 39s-35.5 57 -35.5 93zM523 239.999
c0 71.333 -23.1689 128.833 -69.502 172.5s-103.833 65.5 -172.5 65.5s-127.167 -22.5 -175.5 -67.5s-72.5 -103.167 -72.5 -174.5c0 -72 24.167 -130.833 72.5 -176.5s106.833 -68.5 175.5 -68.5c96.667 0 167 29 211 87c-5.33301 4 -23.166 16.667 -53.499 38
s-49.166 35 -56.499 41c-22 -26 -51.667 -39 -89 -39c-26.667 0 -50.5 6.5 -71.5 19.5s-32.833 30.167 -35.5 51.5h334c2 26 3 43 3 51zM185.998 277.999c5.33301 26 17.4971 44 36.4971 54s37.833 15 56.5 15c10.667 0 21.334 -1.33301 32.001 -4
s22.334 -9.66699 35.001 -21s21.334 -26 26.001 -44h-186z" />
    <glyph glyph-name="Edotaccent" unicode="&#x116;" horiz-adv-x="581" 
d="M77 0h456v146h-289v122h246v143h-246v132h280v146h-447v-689zM202 847c0 22.667 8 41.666 24 56.999s35.667 23 59 23s43 -7.66699 59 -23s24 -34.333 24 -57c0 -23.333 -8 -42.666 -24 -57.999s-35.667 -23 -59 -23c-24 0 -43.833 7.5 -59.5 22.5s-23.5 34.5 -23.5 58.5
z" />
    <glyph glyph-name="edotaccent" unicode="&#x117;" horiz-adv-x="550" 
d="M195 647c0 22.667 8 41.666 24 56.999s35.667 23 59 23s43 -7.66699 59 -23s24 -34.333 24 -57c0 -23.333 -8 -42.666 -24 -57.999s-35.667 -23 -59 -23c-24 0 -43.833 7.5 -59.5 22.5s-23.5 34.5 -23.5 58.5zM523 239.999c0 71.333 -23.1689 128.833 -69.502 172.5
s-103.833 65.5 -172.5 65.5s-127.167 -22.5 -175.5 -67.5s-72.5 -103.167 -72.5 -174.5c0 -72 24.167 -130.833 72.5 -176.5s106.833 -68.5 175.5 -68.5c96.667 0 167 29 211 87c-5.33301 4 -23.166 16.667 -53.499 38s-49.166 35 -56.499 41c-22 -26 -51.667 -39 -89 -39
c-26.667 0 -50.5 6.5 -71.5 19.5s-32.833 30.167 -35.5 51.5h334c2 26 3 43 3 51zM185.998 277.999c5.33301 26 17.4971 44 36.4971 54s37.833 15 56.5 15c10.667 0 21.334 -1.33301 32.001 -4s22.334 -9.66699 35.001 -21s21.334 -26 26.001 -44h-186z" />
    <glyph glyph-name="Eogonek" unicode="&#x118;" horiz-adv-x="581" 
d="M533 146l0.000976562 -145.999l-44 -86c-9.33301 -25.333 -5.33301 -43.333 12 -54c14.667 -8.66699 28.334 -7 41.001 5c10 10 14 24.667 12 44l70 4c1.33301 -42 -8.83398 -74 -30.501 -96s-47.834 -33 -78.501 -33c-28 0 -52.333 10.167 -73 30.5
s-31 45.166 -31 74.499c0 20.667 3.66699 37.667 11 51l40 60h-385v689h447v-146h-280v-132h246v-143h-246v-122h289z" />
    <glyph glyph-name="eogonek" unicode="&#x119;" horiz-adv-x="551" 
d="M283 -9c-68.667 0 -127.497 22.834 -176.497 68.501s-73.5 104.5 -73.5 176.5c0 71.333 24.167 129.5 72.5 174.5s106.833 67.5 175.5 67.5s126.167 -21.833 172.5 -65.5s69.5 -101.167 69.5 -172.5c0 -8 -1 -25 -3 -51h-334c2.66699 -21.333 14.5 -38.5 35.5 -51.5
s44.833 -19.5 71.5 -19.5c37.333 0 67 13 89 39c7.33301 -6 26.166 -19.667 56.499 -41s48.166 -34 53.499 -38c-3.33301 -4 -13.5 -15 -30.5 -33s-33.333 -37.667 -49 -59s-29.167 -45.333 -40.5 -72c-9.33301 -25.333 -5.33301 -43.333 12 -54
c14.667 -8.66699 28.334 -7 41.001 5c10 10 14 24.667 12 44l70 4c1.33301 -42 -8.83398 -74 -30.501 -96s-47.834 -33 -78.501 -33c-28 0 -52.333 10.167 -73 30.5s-31 45.166 -31 74.499c0 20.667 3.66699 37.667 11 51l36 56c-22 -3.33301 -41.333 -5 -58 -5z
M186.003 278.001h186.001c-6.66699 26 -19.334 44 -38.001 54s-37 15 -55 15c-10.667 0 -21.5 -1.33301 -32.5 -4s-23 -9.66699 -36 -21s-21.167 -26 -24.5 -44z" />
    <glyph glyph-name="Ecaron" unicode="&#x11a;" horiz-adv-x="581" 
d="M77 0h456v146h-289v122h246v143h-246v132h280v146h-447v-689zM363 750h-156l-109 173h107l80 -90l80 90h108z" />
    <glyph glyph-name="ecaron" unicode="&#x11b;" horiz-adv-x="550" 
d="M356 550h-156l-109 173h107l80 -90l80 90h108zM523 240c0 71.333 -23.1689 128.833 -69.502 172.5s-103.833 65.5 -172.5 65.5s-127.167 -22.5 -175.5 -67.5s-72.5 -103.167 -72.5 -174.5c0 -72 24.167 -130.833 72.5 -176.5s106.833 -68.5 175.5 -68.5
c96.667 0 167 29 211 87c-5.33301 4 -23.166 16.667 -53.499 38s-49.166 35 -56.499 41c-22 -26 -51.667 -39 -89 -39c-26.667 0 -50.5 6.5 -71.5 19.5s-32.833 30.167 -35.5 51.5h334c2 26 3 43 3 51zM185.998 278c5.33301 26 17.4971 44 36.4971 54s37.833 15 56.5 15
c10.667 0 21.334 -1.33301 32.001 -4s22.334 -9.66699 35.001 -21s21.334 -26 26.001 -44h-186z" />
    <glyph glyph-name="Gcircumflex" unicode="&#x11c;" horiz-adv-x="756" 
d="M194 757l109 173h156l110 -173h-108l-80 89l-80 -89h-107zM662 576l-124.002 -104.998c-39.333 48 -87.666 72 -144.999 72c-52 0 -96 -19.333 -132 -58s-54 -85.667 -54 -141c0 -54.667 18 -101.834 54 -141.501s80 -59.5 132 -59.5c90.667 0 143.334 30.667 158.001 92
h-193v134h375c0 -126.667 -30.667 -221.334 -92 -284.001s-144 -94 -248 -94c-99.333 0 -183.333 34.5 -252 103.5s-103 152.167 -103 249.5c0 98 34.333 181.5 103 250.5s152.667 103.5 252 103.5c54.667 0 105.5 -10.833 152.5 -32.5s85.833 -51.5 116.5 -89.5z" />
    <glyph glyph-name="gcircumflex" unicode="&#x11d;" horiz-adv-x="608" 
d="M195 233c0 -26.667 9.5 -49.5 28.5 -68.5s41.833 -28.5 68.5 -28.5s49.5 9.5 68.5 28.5s28.5 41.833 28.5 68.5s-9.5 49.5 -28.5 68.5s-41.833 28.5 -68.5 28.5s-49.5 -9.5 -68.5 -28.5s-28.5 -41.833 -28.5 -68.5zM43 -84l134.001 54.001
c8 -18.667 21.167 -33.667 39.5 -45s39.5 -17 63.5 -17c39.333 0 69.666 12.667 90.999 38s32 62.666 32 111.999c-25.333 -44.667 -73 -67 -143 -67c-60.667 0 -113.667 22.333 -159 67s-68 103.334 -68 176.001s22.667 131.5 68 176.5s98.333 67.5 159 67.5
c24.667 0 48.834 -5.33301 72.501 -16s42.5 -26 56.5 -46v50h159v-407c0 -96.667 -23.167 -170.167 -69.5 -220.5s-112.5 -75.5 -198.5 -75.5c-54 0 -102.333 14.167 -145 42.5s-73.334 65.166 -92.001 110.499zM118.001 557.001l109 173h156l110 -173h-108l-80 89l-80 -89
h-107z" />
    <glyph glyph-name="Gbreve" unicode="&#x11e;" horiz-adv-x="756" 
d="M255 896l89 -0.000976562c0 -17.333 3.5 -30 10.5 -38s19.167 -12 36.5 -12c30 0 45 16.667 45 50h91c0 -39.333 -12.667 -71.166 -38 -95.499s-58 -36.5 -98 -36.5c-43.333 0 -76.833 13 -100.5 39s-35.5 57 -35.5 93zM662 575.999
c-30.667 38 -69.498 67.8311 -116.498 89.498s-97.833 32.5 -152.5 32.5c-99.333 0 -183.333 -34.5 -252 -103.5s-103 -152.5 -103 -250.5c0 -97.333 34.333 -180.5 103 -249.5s152.667 -103.5 252 -103.5c104 0 186.667 31.333 248 94s92 157.334 92 284.001h-375v-134h193
c-14.667 -61.333 -67.334 -92 -158.001 -92c-52 0 -96 19.833 -132 59.5s-54 86.834 -54 141.501c0 55.333 18 102.333 54 141s80 58 132 58c57.333 0 105.666 -24 144.999 -72z" />
    <glyph glyph-name="gbreve" unicode="&#x11f;" horiz-adv-x="608" 
d="M195 233c0 -26.667 9.5 -49.5 28.5 -68.5s41.833 -28.5 68.5 -28.5s49.5 9.5 68.5 28.5s28.5 41.833 28.5 68.5s-9.5 49.5 -28.5 68.5s-41.833 28.5 -68.5 28.5s-49.5 -9.5 -68.5 -28.5s-28.5 -41.833 -28.5 -68.5zM43 -84l134.001 54.001
c8 -18.667 21.167 -33.667 39.5 -45s39.5 -17 63.5 -17c39.333 0 69.666 12.667 90.999 38s32 62.666 32 111.999c-25.333 -44.667 -73 -67 -143 -67c-60.667 0 -113.667 22.333 -159 67s-68 103.334 -68 176.001s22.667 131.5 68 176.5s98.333 67.5 159 67.5
c24.667 0 48.834 -5.33301 72.501 -16s42.5 -26 56.5 -46v50h159v-407c0 -96.667 -23.167 -170.167 -69.5 -220.5s-112.5 -75.5 -198.5 -75.5c-54 0 -102.333 14.167 -145 42.5s-73.334 65.166 -92.001 110.499zM169.001 696.001l89 -0.000976562
c0 -17.333 3.5 -30 10.5 -38s19.167 -12 36.5 -12c30 0 45 16.667 45 50h91c0 -39.333 -12.667 -71.166 -38 -95.499s-58 -36.5 -98 -36.5c-43.333 0 -76.833 13 -100.5 39s-35.5 57 -35.5 93z" />
    <glyph glyph-name="Gdotaccent" unicode="&#x120;" horiz-adv-x="756" 
d="M298 847c0 22.667 8 41.666 24 56.999s35.667 23 59 23s43 -7.66699 59 -23s24 -34.333 24 -57c0 -23.333 -8 -42.666 -24 -57.999s-35.667 -23 -59 -23c-24 0 -43.833 7.5 -59.5 22.5s-23.5 34.5 -23.5 58.5zM662 575.999c-30.667 38 -69.498 67.8311 -116.498 89.498
s-97.833 32.5 -152.5 32.5c-99.333 0 -183.333 -34.5 -252 -103.5s-103 -152.5 -103 -250.5c0 -97.333 34.333 -180.5 103 -249.5s152.667 -103.5 252 -103.5c104 0 186.667 31.333 248 94s92 157.334 92 284.001h-375v-134h193c-14.667 -61.333 -67.334 -92 -158.001 -92
c-52 0 -96 19.833 -132 59.5s-54 86.834 -54 141.501c0 55.333 18 102.333 54 141s80 58 132 58c57.333 0 105.666 -24 144.999 -72z" />
    <glyph glyph-name="gdotaccent" unicode="&#x121;" horiz-adv-x="608" 
d="M195 233c0 -26.667 9.5 -49.5 28.5 -68.5s41.833 -28.5 68.5 -28.5s49.5 9.5 68.5 28.5s28.5 41.833 28.5 68.5s-9.5 49.5 -28.5 68.5s-41.833 28.5 -68.5 28.5s-49.5 -9.5 -68.5 -28.5s-28.5 -41.833 -28.5 -68.5zM43 -84l134.001 54.001
c8 -18.667 21.167 -33.667 39.5 -45s39.5 -17 63.5 -17c39.333 0 69.666 12.667 90.999 38s32 62.666 32 111.999c-25.333 -44.667 -73 -67 -143 -67c-60.667 0 -113.667 22.333 -159 67s-68 103.334 -68 176.001s22.667 131.5 68 176.5s98.333 67.5 159 67.5
c24.667 0 48.834 -5.33301 72.501 -16s42.5 -26 56.5 -46v50h159v-407c0 -96.667 -23.167 -170.167 -69.5 -220.5s-112.5 -75.5 -198.5 -75.5c-54 0 -102.333 14.167 -145 42.5s-73.334 65.166 -92.001 110.499zM222.001 647.001c0 22.667 8 41.666 24 56.999
s35.667 23 59 23s43 -7.66699 59 -23s24 -34.333 24 -57c0 -23.333 -8 -42.666 -24 -57.999s-35.667 -23 -59 -23c-24 0 -43.833 7.5 -59.5 22.5s-23.5 34.5 -23.5 58.5z" />
    <glyph glyph-name="Gcommaaccent" unicode="&#x122;" horiz-adv-x="756" 
d="M339 -302l-72 42.001c22.667 31.333 38.667 61.666 48 90.999s14.333 67 15 113h128c-11.333 -107.333 -51 -189.333 -119 -246zM662 576.001l-124.002 -104.998c-39.333 48 -87.666 72 -144.999 72c-52 0 -96 -19.333 -132 -58s-54 -85.667 -54 -141
c0 -54.667 18 -101.834 54 -141.501s80 -59.5 132 -59.5c90.667 0 143.334 30.667 158.001 92h-193v134h375c0 -126.667 -30.667 -221.334 -92 -284.001s-144 -94 -248 -94c-99.333 0 -183.333 34.5 -252 103.5s-103 152.167 -103 249.5c0 98 34.333 181.5 103 250.5
s152.667 103.5 252 103.5c54.667 0 105.5 -10.833 152.5 -32.5s85.833 -51.5 116.5 -89.5z" />
    <glyph glyph-name="gcommaaccent" unicode="&#x123;" horiz-adv-x="608" 
d="M195 233c0 -26.667 9.5 -49.5 28.5 -68.5s41.833 -28.5 68.5 -28.5s49.5 9.5 68.5 28.5s28.5 41.833 28.5 68.5s-9.5 49.5 -28.5 68.5s-41.833 28.5 -68.5 28.5s-49.5 -9.5 -68.5 -28.5s-28.5 -41.833 -28.5 -68.5zM43 -84l134.001 54.001
c8 -18.667 21.167 -33.667 39.5 -45s39.5 -17 63.5 -17c39.333 0 69.666 12.667 90.999 38s32 62.666 32 111.999c-25.333 -44.667 -73 -67 -143 -67c-60.667 0 -113.667 22.333 -159 67s-68 103.334 -68 176.001s22.667 131.5 68 176.5s98.333 67.5 159 67.5
c24.667 0 48.834 -5.33301 72.501 -16s42.5 -26 56.5 -46v50h159v-407c0 -96.667 -23.167 -170.167 -69.5 -220.5s-112.5 -75.5 -198.5 -75.5c-54 0 -102.333 14.167 -145 42.5s-73.334 65.166 -92.001 110.499zM319.001 777.001l72 -42.001
c-22.667 -31.333 -38.667 -61.666 -48 -90.999s-14.333 -67 -15 -113h-128c11.333 107.333 51 189.333 119 246z" />
    <glyph glyph-name="Hcircumflex" unicode="&#x124;" horiz-adv-x="701" 
d="M454 417v272h170v-689h-170v268h-210v-268h-167v689h167v-272h210zM163 757l109 173h156l110 -173h-108l-80 89l-80 -89h-107z" />
    <glyph glyph-name="hcircumflex" unicode="&#x125;" horiz-adv-x="590" 
d="M219 245v-244.999h-159v711h159v-318c7.33301 26.667 24.833 47.5 52.5 62.5s53.834 22.5 78.501 22.5c61.333 0 107.666 -19.833 138.999 -59.5s47 -96.5 47 -170.5v-248h-159v243c0 25.333 -8 45.166 -24 59.499s-33.333 21.5 -52 21.5
c-21.333 0 -40.333 -6.5 -57 -19.5s-25 -32.833 -25 -59.5zM-47 759.001l109 173h156l110 -173h-108l-80 89l-80 -89h-107z" />
    <glyph glyph-name="Hbar" unicode="&#x126;" horiz-adv-x="716" 
d="M252 510v-93h210v93h-210zM84 0v510h-73v80h73v99h168v-99h210v99h170v-99h73v-80h-73v-510h-170v269h-210v-269h-168z" />
    <glyph glyph-name="hbar" unicode="&#x127;" horiz-adv-x="590" 
d="M60 0v543.001h-72v80h72v88h159v-88h126v-80h-126v-150c7.33301 26.667 24.833 47.5 52.5 62.5s53.834 22.5 78.501 22.5c61.333 0 107.666 -19.833 138.999 -59.5s47 -96.5 47 -170.5v-248h-159v243c0 25.333 -8 45.166 -24 59.499s-33.333 21.5 -52 21.5
c-21.333 0 -40.333 -6.5 -57 -19.5s-25 -32.833 -25 -59.5v-245h-159z" />
    <glyph glyph-name="Itilde" unicode="&#x128;" horiz-adv-x="321" 
d="M77 0v689h167v-689h-167zM117 797c-5.33301 0 -10.832 -3.66699 -16.499 -11s-8.83398 -18 -9.50098 -32h-75c2 44.667 13.167 77.5 33.5 98.5s42.833 31.5 67.5 31.5c15.333 0 32 -6.83301 50 -20.5s30.333 -20.5 37 -20.5c5.33301 0 10.833 3.33301 16.5 10
s8.83398 17 9.50098 31h75c-2 -44 -13.167 -76.333 -33.5 -97s-42.833 -31 -67.5 -31c-14.667 0 -31.334 6.83301 -50.001 20.5s-31 20.5 -37 20.5z" />
    <glyph glyph-name="itilde" unicode="&#x129;" horiz-adv-x="277" 
d="M60 467h157v-467h-157v467zM94 597c-5.33301 0 -10.832 -3.66699 -16.499 -11s-8.83398 -18 -9.50098 -32h-75c2 44.667 13.167 77.5 33.5 98.5s42.833 31.5 67.5 31.5c15.333 0 32 -6.83301 50 -20.5s30.333 -20.5 37 -20.5c5.33301 0 10.833 3.33301 16.5 10
s8.83398 17 9.50098 31h75c-2 -44 -13.167 -76.333 -33.5 -97s-42.833 -31 -67.5 -31c-14 0 -30.333 6.83301 -49 20.5s-31.334 20.5 -38.001 20.5z" />
    <glyph glyph-name="Imacron" unicode="&#x12a;" horiz-adv-x="321" 
d="M77 0v689h167v-689h-167zM305 779h-288v87h288v-87z" />
    <glyph glyph-name="imacron" unicode="&#x12b;" horiz-adv-x="277" 
d="M60 467h157v-467h-157v467zM282 579h-288v87h288v-87z" />
    <glyph glyph-name="Ibreve" unicode="&#x12c;" horiz-adv-x="321" 
d="M77 689v-689h167v689h-167zM25 896l89 -0.000976562c0 -17.333 3.5 -30 10.5 -38s19.167 -12 36.5 -12c30 0 45 16.667 45 50h91c0 -39.333 -12.667 -71.166 -38 -95.499s-58 -36.5 -98 -36.5c-43.333 0 -76.833 13 -100.5 39s-35.5 57 -35.5 93z" />
    <glyph glyph-name="ibreve" unicode="&#x12d;" horiz-adv-x="277" 
d="M217 467h-157v-467h157v467zM2 696l89 -0.000976562c0 -17.333 3.5 -30 10.5 -38s19.167 -12 36.5 -12c30 0 45 16.667 45 50h91c0 -39.333 -12.667 -71.166 -38 -95.499s-58 -36.5 -98 -36.5c-43.333 0 -76.833 13 -100.5 39s-35.5 57 -35.5 93z" />
    <glyph glyph-name="Iogonek" unicode="&#x12e;" horiz-adv-x="321" 
d="M173 0l-95.999 0.000976562v689h167v-689l-44 -96c-9.33301 -25.333 -5.33301 -43.333 12 -54c14.667 -8.66699 28.334 -7 41.001 5c10 10 14 24.667 12 44l70 4c1.33301 -42 -8.83398 -74 -30.501 -96s-47.834 -33 -78.501 -33c-28 0 -52.333 10.167 -73 30.5
s-31 45.166 -31 74.499c0 20.667 3.66699 37.667 11 51z" />
    <glyph glyph-name="iogonek" unicode="&#x12f;" horiz-adv-x="279" 
d="M43 621c0 25.333 9.5 46.666 28.5 63.999s41.5 26 67.5 26c26.667 0 49.167 -8.66699 67.5 -26s27.5 -38.666 27.5 -63.999s-9.16699 -46.833 -27.5 -64.5s-40.833 -26.5 -67.5 -26.5c-26 0 -48.5 9 -67.5 27s-28.5 39.333 -28.5 64zM148 0l-87.999 0.000976562v466h159
v-466h-1l-43 -96c-9.33301 -25.333 -5.33301 -43.333 12 -54c14.667 -8.66699 28.334 -7 41.001 5c10 10 14 24.667 12 44l70 4c1.33301 -42 -8.83398 -74 -30.501 -96s-47.834 -33 -78.501 -33c-28 0 -52.333 10.167 -73 30.5s-31 45.166 -31 74.499
c0 20.667 3.66699 37.667 11 51z" />
    <glyph glyph-name="Idotaccent" unicode="&#x130;" horiz-adv-x="321" 
d="M77 689v-689h167v689h-167zM78 847c0 22.667 8 41.666 24 56.999s35.667 23 59 23s43 -7.66699 59 -23s24 -34.333 24 -57c0 -23.333 -8 -42.666 -24 -57.999s-35.667 -23 -59 -23c-24 0 -43.833 7.5 -59.5 22.5s-23.5 34.5 -23.5 58.5z" />
    <glyph glyph-name="dotlessi" unicode="&#x131;" horiz-adv-x="279" 
d="M60 0v466h159v-466h-159z" />
    <glyph glyph-name="IJ" unicode="&#x132;" horiz-adv-x="644" 
d="M77 0v689h167v-689h-167zM224 -211l15.001 150c22.667 -8 54.667 -12 96 -12c21.333 0 37.166 7.33301 47.499 22s15.5 34 15.5 58v682h169v-682c0 -70 -18.833 -127 -56.5 -171s-96.167 -66 -175.5 -66c-36.667 0 -73.667 6.33301 -111 19z" />
    <glyph glyph-name="ij" unicode="&#x133;" horiz-adv-x="558" 
d="M60 466v-466h159v466h-159zM43 621c0 25.333 9.5 46.666 28.5 63.999s41.5 26 67.5 26c26.667 0 49.167 -8.66699 67.5 -26s27.5 -38.666 27.5 -63.999s-9.16699 -46.833 -27.5 -64.5s-40.833 -26.5 -67.5 -26.5c-26 0 -48.5 9 -67.5 27s-28.5 39.333 -28.5 64zM214 -237
l-0.000976562 151h60c19.333 0 34.833 6.5 46.5 19.5s17.834 32.167 18.501 57.5v17v458h159v-458v-17c0 -74 -19.833 -130.5 -59.5 -169.5s-94.5 -58.5 -164.5 -58.5h-60zM322.999 621c0 25.333 9.5 46.666 28.5 63.999s41.5 26 67.5 26c26.667 0 49.167 -8.66699 67.5 -26
s27.5 -38.666 27.5 -63.999s-9.16699 -46.833 -27.5 -64.5s-40.833 -26.5 -67.5 -26.5c-26 0 -48.5 9 -67.5 27s-28.5 39.333 -28.5 64z" />
    <glyph glyph-name="Jcircumflex" unicode="&#x134;" horiz-adv-x="323" 
d="M-97 -211l15.001 150c22.667 -8 54.667 -12 96 -12c21.333 0 37.166 7.33301 47.499 22s15.5 34 15.5 58v682h169v-682c0 -70 -18.833 -127 -56.5 -171s-96.167 -66 -175.5 -66c-36.667 0 -73.667 6.33301 -111 19zM-22.999 757l109 173h156l110 -173h-108l-80 89
l-80 -89h-107z" />
    <glyph glyph-name="jcircumflex" unicode="&#x135;" horiz-adv-x="279" 
d="M-65 -237l-0.000976562 151h60c19.333 0 34.833 6.5 46.5 19.5s17.834 32.167 18.501 57.5v17v458h159v-458v-17c0 -74 -19.833 -130.5 -59.5 -169.5s-94.5 -58.5 -164.5 -58.5h-60zM-37.001 557l109 173h156l110 -173h-108l-80 89l-80 -89h-107z" />
    <glyph glyph-name="Kcommaaccent" unicode="&#x136;" horiz-adv-x="633" 
d="M331 349l322 -349h-229l-180 210v-210h-167v689h167v-197l137 197h209zM306 -302l-72 42.001c22.667 31.333 38.667 61.666 48 90.999s14.333 67 15 113h128c-11.333 -107.333 -51 -189.333 -119 -246z" />
    <glyph glyph-name="kcommaaccent" unicode="&#x137;" horiz-adv-x="538" 
d="M352 0l-133 168v-168h-159v711h159v-358l91 113h195l-172 -207l209 -259h-190zM225 -302l-72 42.001c22.667 31.333 38.667 61.666 48 90.999s14.333 67 15 113h128c-11.333 -107.333 -51 -189.333 -119 -246z" />
    <glyph glyph-name="kgreenlandic" unicode="&#x138;" horiz-adv-x="517" 
d="M520 0h-203l-101 146v-146h-156v467h156v-130l88 130h180l-170 -230z" />
    <glyph glyph-name="Lacute" unicode="&#x139;" horiz-adv-x="518" 
d="M77 0h417v146h-248v543h-169v-689zM171 923h148l-138 -174h-103z" />
    <glyph glyph-name="lacute" unicode="&#x13a;" horiz-adv-x="279" 
d="M60 711v-711h159v711h-159zM164 923h148l-138 -174h-103z" />
    <glyph glyph-name="Lcommaaccent" unicode="&#x13b;" horiz-adv-x="518" 
d="M494 0h-417v689h169v-543h248v-146zM224 -302l-72 42.001c22.667 31.333 38.667 61.666 48 90.999s14.333 67 15 113h128c-11.333 -107.333 -51 -189.333 -119 -246z" />
    <glyph glyph-name="lcommaaccent" unicode="&#x13c;" horiz-adv-x="279" 
d="M60 0v711h159v-711h-159zM89 -302l-72 42.001c22.667 31.333 38.667 61.666 48 90.999s14.333 67 15 113h128c-11.333 -107.333 -51 -189.333 -119 -246z" />
    <glyph glyph-name="Lcaron" unicode="&#x13d;" horiz-adv-x="527" 
d="M494 0h-417v689h169v-543h248v-146zM399 446l-62.001 38c22 32 37.833 62.667 47.5 92s14.834 67 15.501 113h116c-10.667 -106 -49.667 -187 -117 -243z" />
    <glyph glyph-name="lcaron" unicode="&#x13e;" horiz-adv-x="279" 
d="M60 0v711h159v-711h-159zM308 468l-62.001 38c22 32 37.833 62.667 47.5 92s14.834 67 15.501 113h116c-10.667 -106 -49.667 -187 -117 -243z" />
    <glyph glyph-name="Ldot" unicode="&#x13f;" horiz-adv-x="519" 
d="M494 0h-417v689h169v-543h248v-146zM291 296c0 26 9.16699 47.667 27.5 65s40.5 26 66.5 26s48.333 -8.66699 67 -26s28 -39 28 -65c0 -26.667 -9.33301 -48.667 -28 -66s-41 -26 -67 -26c-26.667 0 -49 8.66699 -67 26s-27 39.333 -27 66z" />
    <glyph glyph-name="ldot" unicode="&#x140;" horiz-adv-x="508" 
d="M60 0v711h159v-711h-159zM299 296c0 26 9.16699 47.667 27.5 65s40.5 26 66.5 26s48.333 -8.66699 67 -26s28 -39 28 -65c0 -26.667 -9.33301 -48.667 -28 -66s-41 -26 -67 -26c-26.667 0 -49 8.66699 -67 26s-27 39.333 -27 66z" />
    <glyph glyph-name="Lslash" unicode="&#x141;" horiz-adv-x="527" 
d="M503 0h-417v265l-75 -46v93l75 46v331h169v-226l99 62v-93l-99 -62v-224h248v-146z" />
    <glyph glyph-name="lslash" unicode="&#x142;" horiz-adv-x="346" 
d="M108 276l-92 -57v93l92 57v320h167v-216l84 52v-93l-84 -52v-380h-167v276z" />
    <glyph glyph-name="Nacute" unicode="&#x143;" horiz-adv-x="678" 
d="M601 689h-167v-371l-206 371h-151v-689h167v376l211 -376h146v689zM363 923h148l-138 -174h-103z" />
    <glyph glyph-name="nacute" unicode="&#x144;" horiz-adv-x="590" 
d="M219 245v-245h-159v466h159v-73c7.33301 26.667 24.833 47.5 52.5 62.5s53.834 22.5 78.501 22.5c61.333 0 107.666 -19.833 138.999 -59.5s47 -96.5 47 -170.5v-248h-159v243c0 28 -7.66699 48.5 -23 61.5s-33 19.5 -53 19.5c-21.333 0 -40.333 -6.33301 -57 -19
s-25 -32.667 -25 -60zM306 723h148l-138 -174h-103z" />
    <glyph glyph-name="Ncommaaccent" unicode="&#x145;" horiz-adv-x="678" 
d="M434 689h167v-689h-146l-211 376v-376h-167v689h151l206 -371v371zM315 -302l-72 42.001c22.667 31.333 38.667 61.666 48 90.999s14.333 67 15 113h128c-11.333 -107.333 -51 -189.333 -119 -246z" />
    <glyph glyph-name="ncommaaccent" unicode="&#x146;" horiz-adv-x="590" 
d="M219 245v-245h-159v466h159v-73c7.33301 26.667 24.833 47.5 52.5 62.5s53.834 22.5 78.501 22.5c61.333 0 107.666 -19.833 138.999 -59.5s47 -96.5 47 -170.5v-248h-159v243c0 28 -7.66699 48.5 -23 61.5s-33 19.5 -53 19.5c-21.333 0 -40.333 -6.33301 -57 -19
s-25 -32.667 -25 -60zM249 -302l-72 42.001c22.667 31.333 38.667 61.666 48 90.999s14.333 67 15 113h128c-11.333 -107.333 -51 -189.333 -119 -246z" />
    <glyph glyph-name="Ncaron" unicode="&#x147;" horiz-adv-x="678" 
d="M601 689h-167v-371l-206 371h-151v-689h167v376l211 -376h146v689zM416 750h-156l-109 173h107l80 -90l80 90h108z" />
    <glyph glyph-name="ncaron" unicode="&#x148;" horiz-adv-x="590" 
d="M219 245v-245h-159v466h159v-73c7.33301 26.667 24.833 47.5 52.5 62.5s53.834 22.5 78.501 22.5c61.333 0 107.666 -19.833 138.999 -59.5s47 -96.5 47 -170.5v-248h-159v243c0 28 -7.66699 48.5 -23 61.5s-33 19.5 -53 19.5c-21.333 0 -40.333 -6.33301 -57 -19
s-25 -32.667 -25 -60zM373 550h-156l-109 173h107l80 -90l80 90h108z" />
    <glyph glyph-name="napostrophe" unicode="&#x149;" horiz-adv-x="645" 
d="M274 245v-245h-159v466h159v-73c7.33301 26.667 24.833 47.5 52.5 62.5s53.834 22.5 78.501 22.5c61.333 0 107.666 -19.833 138.999 -59.5s47 -96.5 47 -170.5v-248h-159v243c0 28 -7.66699 48.5 -23 61.5s-33 19.5 -53 19.5c-21.333 0 -40.333 -6.33301 -57 -19
s-25 -32.667 -25 -60zM6 452l-72 42.001c22.667 31.333 38.667 61.666 48 90.999s14.333 67 15 113h128c-11.333 -107.333 -51 -189.333 -119 -246z" />
    <glyph glyph-name="Eng" unicode="&#x14a;" horiz-adv-x="678" 
d="M445 7v11.001l-201 358v-376h-167v689h151l206 -371v371h167v-689c-1.33301 -68 -20.833 -123.333 -58.5 -166s-95.5 -64 -173.5 -64c-36.667 0 -73.667 6.33301 -111 19l15 140c22.667 -8 54.667 -12 96 -12c21.333 0 39.333 9.16699 54 27.5s22 39.166 22 62.499z" />
    <glyph glyph-name="eng" unicode="&#x14b;" horiz-adv-x="590" 
d="M378 8v235.001c0 28 -7.83301 48.5 -23.5 61.5s-33.5 19.5 -53.5 19.5c-21.333 0 -40.333 -6.33301 -57 -19s-25 -32.667 -25 -60v-245h-159v466h159v-73c7.33301 26.667 24.833 47.5 52.5 62.5s53.834 22.5 78.501 22.5c61.333 0 107.666 -19.833 138.999 -59.5
s47 -96.5 47 -170.5v-248c-1.33301 -68 -20.833 -123.333 -58.5 -166s-95.5 -64 -173.5 -64c-36.667 0 -73.667 6.33301 -111 19l15 129c22.667 -8 54.667 -12 96 -12c22.667 0 40.667 9.16699 54 27.5s20 43.166 20 74.499z" />
    <glyph glyph-name="Omacron" unicode="&#x14c;" horiz-adv-x="779" 
d="M38 344c0 98 34.1689 181.5 102.502 250.5s151.166 103.5 248.499 103.5c98 0 181.167 -34.5 249.5 -103.5s102.5 -152.5 102.5 -250.5c0 -97.333 -34.167 -180.5 -102.5 -249.5s-151.5 -103.5 -249.5 -103.5c-96.667 0 -179.334 34.5 -248.001 103.5
s-103 152.167 -103 249.5zM207.002 344c0 -51.333 17.667 -95 53 -131s78.333 -54 129 -54c51.333 0 94.833 18 130.5 54s53.5 79.667 53.5 131s-18 95.166 -54 131.499s-79.333 54.5 -130 54.5s-93.667 -18.167 -129 -54.5s-53 -80.166 -53 -131.499zM533.002 779h-288v87
h288v-87z" />
    <glyph glyph-name="omacron" unicode="&#x14d;" horiz-adv-x="563" 
d="M280 -9c-68 0 -126.167 22.667 -174.5 68s-72.5 103.666 -72.5 174.999c0 72 24.167 130.667 72.5 176s106.5 68 174.5 68c68.667 0 127.5 -22.667 176.5 -68s73.5 -104 73.5 -176c0 -71.333 -24.5 -129.666 -73.5 -174.999s-107.833 -68 -176.5 -68zM183 234
c0 -26.667 9.5 -49.5 28.5 -68.5s41.833 -28.5 68.5 -28.5s49.5 9.5 68.5 28.5s28.5 41.833 28.5 68.5s-9.5 49.5 -28.5 68.5s-41.833 28.5 -68.5 28.5s-49.5 -9.5 -68.5 -28.5s-28.5 -41.833 -28.5 -68.5zM425 579h-288v87h288v-87z" />
    <glyph glyph-name="Obreve" unicode="&#x14e;" horiz-adv-x="779" 
d="M38 344c0 -97.333 34.3311 -180.5 102.998 -249.5s151.334 -103.5 248.001 -103.5c98 0 181.167 34.5 249.5 103.5s102.5 152.167 102.5 249.5c0 98 -34.167 181.5 -102.5 250.5s-151.5 103.5 -249.5 103.5c-97.333 0 -180.166 -34.5 -248.499 -103.5
s-102.5 -152.5 -102.5 -250.5zM206.998 344c0 51.333 17.667 95.166 53 131.499s78.333 54.5 129 54.5s94 -18.167 130 -54.5s54 -80.166 54 -131.499s-17.833 -95 -53.5 -131s-79.167 -54 -130.5 -54c-50.667 0 -93.667 18 -129 54s-53 79.667 -53 131zM252.998 896
l89 -0.000976562c0 -17.333 3.5 -30 10.5 -38s19.167 -12 36.5 -12c30 0 45 16.667 45 50h91c0 -39.333 -12.667 -71.166 -38 -95.499s-58 -36.5 -98 -36.5c-43.333 0 -76.833 13 -100.5 39s-35.5 57 -35.5 93z" />
    <glyph glyph-name="obreve" unicode="&#x14f;" horiz-adv-x="563" 
d="M280 -9c68.667 0 127.5 22.667 176.5 68s73.5 103.666 73.5 174.999c0 72 -24.5 130.667 -73.5 176s-107.833 68 -176.5 68c-68 0 -126.167 -22.667 -174.5 -68s-72.5 -104 -72.5 -176c0 -71.333 24.167 -129.666 72.5 -174.999s106.5 -68 174.5 -68zM183 234
c0 26.667 9.5 49.5 28.5 68.5s41.833 28.5 68.5 28.5s49.5 -9.5 68.5 -28.5s28.5 -41.833 28.5 -68.5s-9.5 -49.5 -28.5 -68.5s-41.833 -28.5 -68.5 -28.5s-49.5 9.5 -68.5 28.5s-28.5 41.833 -28.5 68.5zM145 696l89 -0.000976562c0 -17.333 3.5 -30 10.5 -38
s19.167 -12 36.5 -12c30 0 45 16.667 45 50h91c0 -39.333 -12.667 -71.166 -38 -95.499s-58 -36.5 -98 -36.5c-43.333 0 -76.833 13 -100.5 39s-35.5 57 -35.5 93z" />
    <glyph glyph-name="Ohungarumlaut" unicode="&#x150;" horiz-adv-x="779" 
d="M38 344c0 -97.333 34.3311 -180.5 102.998 -249.5s151.334 -103.5 248.001 -103.5c98 0 181.167 34.5 249.5 103.5s102.5 152.167 102.5 249.5c0 98 -34.167 181.5 -102.5 250.5s-151.5 103.5 -249.5 103.5c-97.333 0 -180.166 -34.5 -248.499 -103.5
s-102.5 -152.5 -102.5 -250.5zM206.998 344c0 51.333 17.667 95.166 53 131.499s78.333 54.5 129 54.5s94 -18.167 130 -54.5s54 -80.166 54 -131.499s-17.833 -95 -53.5 -131s-79.167 -54 -130.5 -54c-50.667 0 -93.667 18 -129 54s-53 79.667 -53 131zM353.998 920h105
l-105 -173h-93zM510.998 920h108l-115 -173h-100z" />
    <glyph glyph-name="ohungarumlaut" unicode="&#x151;" horiz-adv-x="563" 
d="M280 -9c68.667 0 127.5 22.667 176.5 68s73.5 103.666 73.5 174.999c0 72 -24.5 130.667 -73.5 176s-107.833 68 -176.5 68c-68 0 -126.167 -22.667 -174.5 -68s-72.5 -104 -72.5 -176c0 -71.333 24.167 -129.666 72.5 -174.999s106.5 -68 174.5 -68zM183 234
c0 26.667 9.5 49.5 28.5 68.5s41.833 28.5 68.5 28.5s49.5 -9.5 68.5 -28.5s28.5 -41.833 28.5 -68.5s-9.5 -49.5 -28.5 -68.5s-41.833 -28.5 -68.5 -28.5s-49.5 9.5 -68.5 28.5s-28.5 41.833 -28.5 68.5zM253 720h105l-105 -173h-93zM410 720h108l-115 -173h-100z" />
    <glyph glyph-name="OE" unicode="&#x152;" horiz-adv-x="1078" 
d="M1030 0h-455.997v43c-56.667 -34.667 -118.334 -52 -185.001 -52c-96.667 0 -179.334 34.5 -248.001 103.5s-103 152.167 -103 249.5c0 98 34.167 181.5 102.5 250.5s151.166 103.5 248.499 103.5c65.333 0 127 -17.667 185 -53v44h447v-146h-280v-132h246v-143h-246
v-122h289v-146zM207.003 344c0 -51.333 17.667 -95 53 -131s78.333 -54 129 -54c51.333 0 94.833 18 130.5 54s53.5 79.667 53.5 131s-18 95.166 -54 131.499s-79.333 54.5 -130 54.5s-93.667 -18.167 -129 -54.5s-53 -80.166 -53 -131.499z" />
    <glyph glyph-name="oe" unicode="&#x153;" horiz-adv-x="896" 
d="M869 240c0 -8 -0.998047 -24.999 -2.99805 -50.999h-334c2.66699 -21.333 14.5 -38.5 35.5 -51.5s44.833 -19.5 71.5 -19.5c37.333 0 67 13 89 39c7.33301 -6 26.166 -19.667 56.499 -41s48.166 -34 53.499 -38c-44 -58 -114.333 -87 -211 -87c-68 0 -125.667 22 -173 66
c-48 -44 -106 -66 -174 -66s-126.167 22.667 -174.5 68s-72.5 103.666 -72.5 174.999c0 72 24.167 130.667 72.5 176s106.5 68 174.5 68s125.667 -21.667 173 -65c47.333 43.333 105.333 65 174 65s126.167 -21.833 172.5 -65.5s69.5 -101.167 69.5 -172.5zM183.002 234.001
c0 -26.667 9.5 -49.5 28.5 -68.5s41.833 -28.5 68.5 -28.5s49.5 9.5 68.5 28.5s28.5 41.833 28.5 68.5s-9.5 49.5 -28.5 68.5s-41.833 28.5 -68.5 28.5s-49.5 -9.5 -68.5 -28.5s-28.5 -41.833 -28.5 -68.5zM532.002 278.001h186.001c-6.66699 26 -19.334 44 -38.001 54
s-37 15 -55 15c-10.667 0 -21.5 -1.33301 -32.5 -4s-23 -9.66699 -36 -21s-21.167 -26 -24.5 -44z" />
    <glyph glyph-name="Racute" unicode="&#x154;" horiz-adv-x="642" 
d="M77 0h167.001v230h15l148 -230h194l-168 238c53.333 13.333 94.166 40.5 122.499 81.5s42.5 87.5 42.5 139.5c0 62.667 -20.333 116.667 -61 162s-99 68 -175 68h-285v-689zM354.001 543c25.333 0 44.166 -8.16797 56.499 -24.501s18.5 -36.166 18.5 -59.499
s-6.16699 -43.333 -18.5 -60s-31.166 -25 -56.499 -25h-110v169h110zM313.001 922.999h148l-138 -174h-103z" />
    <glyph glyph-name="racute" unicode="&#x155;" horiz-adv-x="429" 
d="M164 723h148l-138 -174h-103zM219 153c0 66 8 111.5 24 136.5s40.333 37.5 73 37.5c26 0 50 -4 72 -12l39 150c-18.667 8.66699 -41.667 13 -69 13c-32.667 0 -62.5 -10.667 -89.5 -32s-46.167 -53 -57.5 -95v115h-151v-466h159v153z" />
    <glyph glyph-name="Rcommaaccent" unicode="&#x156;" horiz-adv-x="642" 
d="M244 0h-167.001v689h285c76 0 134.333 -22.667 175 -68s61 -99.333 61 -162c0 -52 -14.167 -98.5 -42.5 -139.5s-69.166 -68.167 -122.499 -81.5l168 -238h-194l-148 230h-15v-230zM353.999 543l-110 0.000976562v-169h110c25.333 0 44.166 8.33301 56.499 25
s18.5 36.667 18.5 60s-6.16699 43.166 -18.5 59.499s-31.166 24.5 -56.499 24.5zM274.999 -301.999l-72 42.001c22.667 31.333 38.667 61.666 48 90.999s14.333 67 15 113h128c-11.333 -107.333 -51 -189.333 -119 -246z" />
    <glyph glyph-name="rcommaaccent" unicode="&#x157;" horiz-adv-x="429" 
d="M85 -302l-72 42.001c22.667 31.333 38.667 61.666 48 90.999s14.333 67 15 113h128c-11.333 -107.333 -51 -189.333 -119 -246zM219 153.001v-153h-159v466h151v-115c11.333 42 30.5 73.667 57.5 95s56.833 32 89.5 32c27.333 0 50.333 -4.33301 69 -13l-39 -150
c-22 8 -46 12 -72 12c-32.667 0 -57 -12.5 -73 -37.5s-24 -70.5 -24 -136.5z" />
    <glyph glyph-name="Rcaron" unicode="&#x158;" horiz-adv-x="642" 
d="M77 0h167.001v230h15l148 -230h194l-168 238c53.333 13.333 94.166 40.5 122.499 81.5s42.5 87.5 42.5 139.5c0 62.667 -20.333 116.667 -61 162s-99 68 -175 68h-285v-689zM354.001 543c25.333 0 44.166 -8.16797 56.499 -24.501s18.5 -36.166 18.5 -59.499
s-6.16699 -43.333 -18.5 -60s-31.166 -25 -56.499 -25h-110v169h110zM391.001 749.999h-156l-109 173h107l80 -90l80 90h108z" />
    <glyph glyph-name="rcaron" unicode="&#x159;" horiz-adv-x="429" 
d="M294 550h-156l-109 173h107l80 -90l80 90h108zM219 153c0 66 8 111.5 24 136.5s40.333 37.5 73 37.5c26 0 50 -4 72 -12l39 150c-18.667 8.66699 -41.667 13 -69 13c-32.667 0 -62.5 -10.667 -89.5 -32s-46.167 -53 -57.5 -95v115h-151v-466h159v153z" />
    <glyph glyph-name="Sacute" unicode="&#x15a;" horiz-adv-x="586" 
d="M40 205c0 -64.667 23 -116.499 69 -155.499s107.667 -58.5 185 -58.5c42 0 81.333 6.5 118 19.5s68.667 36 96 69s41 73.5 41 121.5c0 100.667 -63.667 170.667 -191 210l-79 25c-42.667 12.667 -64 31.334 -64 56.001c0 16.667 6.5 30 19.5 40s30.833 15 53.5 15
c48 0 72 -21.333 72 -64h167c0 66.667 -22 119.167 -66 157.5s-101 57.5 -171 57.5s-127.667 -19.5 -173 -58.5s-68 -89.833 -68 -152.5c0 -18 2.33301 -35.667 7 -53s12.834 -35.833 24.501 -55.5s30.167 -37.834 55.5 -54.501s56.333 -30 93 -40l81 -27
c20.667 -6.66699 36.667 -14.334 48 -23.001s17.666 -15 18.999 -19s2 -9 2 -15c0 -20 -8.33301 -35.333 -25 -46s-36.667 -16 -60 -16c-27.333 0 -48 6.16699 -62 18.5s-21.667 28.5 -23 48.5h-169zM306 923.001h148l-138 -174h-103z" />
    <glyph glyph-name="sacute" unicode="&#x15b;" horiz-adv-x="481" 
d="M272 723h148l-138 -174h-103zM244 166l-59.002 15.999c-27.333 7.33301 -50.833 17 -70.5 29s-34.167 23 -43.5 33s-16.5 22.333 -21.5 37s-7.66699 25.334 -8 32.001s-0.5 15.334 -0.5 26.001c0 36 18.833 68.167 56.5 96.5s82.167 42.5 133.5 42.5
c26 0 50.5 -2.83301 73.5 -8.5s44.667 -14.5 65 -26.5s36.333 -28.833 48 -50.5s17.5 -46.834 17.5 -75.501h-149c0 28 -15.667 42 -47 42c-26 0 -39 -8.66699 -39 -26c0 -14.667 11.667 -24.667 35 -30l83 -23c28 -7.33301 51.5 -17.5 70.5 -30.5s32.333 -26.833 40 -41.5
s12.834 -27.334 15.501 -38.001s4 -21 4 -31c0 -48 -21.333 -84.667 -64 -110s-91.667 -38 -147 -38c-53.333 0 -100.5 14.833 -141.5 44.5s-61.5 69.834 -61.5 120.501h149c0 -12 4.5 -23 13.5 -33s22.5 -15 40.5 -15c13.333 0 24.833 2.83301 34.5 8.5
s14.5 13.167 14.5 22.5c0 6.66699 -2.66699 11.667 -8 15s-16.666 7.33301 -33.999 12z" />
    <glyph glyph-name="Scircumflex" unicode="&#x15c;" horiz-adv-x="586" 
d="M40 205l169 -0.000976562c1.33301 -20 9 -36.167 23 -48.5s34.667 -18.5 62 -18.5c23.333 0 43.333 5.33301 60 16s25 26 25 46c0 6 -0.666992 11 -2 15s-7.66602 10.333 -18.999 19s-27.333 16.334 -48 23.001l-81 27c-36.667 10 -67.667 23.333 -93 40
s-43.833 34.834 -55.5 54.501s-19.834 38.167 -24.501 55.5s-7 35 -7 53c0 62.667 22.667 113.5 68 152.5s103 58.5 173 58.5s127 -19.167 171 -57.5s66 -90.833 66 -157.5h-167c0 42.667 -24 64 -72 64c-22.667 0 -40.5 -5 -53.5 -15s-19.5 -23.333 -19.5 -40
c0 -24.667 21.333 -43.334 64 -56.001l79 -25c127.333 -39.333 191 -109.333 191 -210c0 -48 -13.667 -88.5 -41 -121.5s-59.333 -56 -96 -69s-76 -19.5 -118 -19.5c-77.333 0 -139 19.5 -185 58.5s-69 90.833 -69 155.5zM107 756.999l109 173h156l110 -173h-108l-80 89
l-80 -89h-107z" />
    <glyph glyph-name="scircumflex" unicode="&#x15d;" horiz-adv-x="481" 
d="M54 557l109 173h156l110 -173h-108l-80 89l-80 -89h-107zM244 166l-59.002 15.999c-27.333 7.33301 -50.833 17 -70.5 29s-34.167 23 -43.5 33s-16.5 22.333 -21.5 37s-7.66699 25.334 -8 32.001s-0.5 15.334 -0.5 26.001c0 36 18.833 68.167 56.5 96.5
s82.167 42.5 133.5 42.5c26 0 50.5 -2.83301 73.5 -8.5s44.667 -14.5 65 -26.5s36.333 -28.833 48 -50.5s17.5 -46.834 17.5 -75.501h-149c0 28 -15.667 42 -47 42c-26 0 -39 -8.66699 -39 -26c0 -14.667 11.667 -24.667 35 -30l83 -23c28 -7.33301 51.5 -17.5 70.5 -30.5
s32.333 -26.833 40 -41.5s12.834 -27.334 15.501 -38.001s4 -21 4 -31c0 -48 -21.333 -84.667 -64 -110s-91.667 -38 -147 -38c-53.333 0 -100.5 14.833 -141.5 44.5s-61.5 69.834 -61.5 120.501h149c0 -12 4.5 -23 13.5 -33s22.5 -15 40.5 -15
c13.333 0 24.833 2.83301 34.5 8.5s14.5 13.167 14.5 22.5c0 6.66699 -2.66699 11.667 -8 15s-16.666 7.33301 -33.999 12z" />
    <glyph glyph-name="Scedilla" unicode="&#x15e;" horiz-adv-x="587" 
d="M324 -86l-39.9971 76.998c-74 2 -133.167 22.167 -177.5 60.5s-66.5 89.5 -66.5 153.5h169c1.33301 -20 9 -36.167 23 -48.5s34.667 -18.5 62 -18.5c23.333 0 43.333 5.33301 60 16s25 26 25 46c0 6 -0.666992 11 -2 15s-7.66602 10.333 -18.999 19
s-27.333 16.334 -48 23.001l-81 27c-36.667 10 -67.667 23.333 -93 40s-43.833 34.834 -55.5 54.501s-19.834 38.167 -24.501 55.5s-7 35 -7 53c0 62.667 22.667 113.5 68 152.5s103 58.5 173 58.5s127 -19.167 171 -57.5s66 -90.833 66 -157.5h-167c0 42.667 -24 64 -72 64
c-22.667 0 -40.5 -5 -53.5 -15s-19.5 -23.333 -19.5 -40c0 -24.667 21.333 -43.334 64 -56.001l79 -25c127.333 -39.333 191 -109.333 191 -210c0 -59.333 -18.833 -106 -56.5 -140s-84.5 -55.667 -140.5 -65l39 -56c7.33301 -13.333 11 -30.333 11 -51
c0 -29.333 -10.333 -54.166 -31 -74.499s-45 -30.5 -73 -30.5c-30.667 0 -56.834 11 -78.501 33s-31.834 54 -30.501 96l70 -4c-2.66699 -28 5.66602 -45.333 24.999 -52c16 -5.33301 28.667 -1 38 13c8 11.333 8.66699 26 2 44z" />
    <glyph glyph-name="scedilla" unicode="&#x15f;" horiz-adv-x="483" 
d="M284 -6l36.002 -53.999c7.33301 -13.333 11 -30.333 11 -51c0 -29.333 -10.333 -54.166 -31 -74.499s-45 -30.5 -73 -30.5c-30.667 0 -56.834 11 -78.501 33s-31.834 54 -30.501 96l70 -4c-2.66699 -28 5.66602 -45.333 24.999 -52c16 -5.33301 28.667 -1 38 13
c8 11.333 8.66699 26 2 44l-39 78c-49.333 4 -91.5 20.667 -126.5 50s-52.5 67.333 -52.5 114h149c0 -12 4.5 -23 13.5 -33s22.5 -15 40.5 -15c13.333 0 24.833 2.83301 34.5 8.5s14.5 13.167 14.5 22.5c0 6.66699 -2.66699 11.667 -8 15s-16.666 7.33301 -33.999 12l-59 16
c-27.333 7.33301 -50.833 17 -70.5 29s-34.167 23 -43.5 33s-16.5 22.333 -21.5 37s-7.66699 25.334 -8 32.001s-0.5 15.334 -0.5 26.001c0 36 18.833 68.167 56.5 96.5s82.167 42.5 133.5 42.5c26 0 50.5 -2.83301 73.5 -8.5s44.667 -14.5 65 -26.5
s36.333 -28.833 48 -50.5s17.5 -46.834 17.5 -75.501h-149c0 28 -15.667 42 -47 42c-26 0 -39 -8.66699 -39 -26c0 -14.667 11.667 -24.667 35 -30l83 -23c28 -7.33301 51.5 -17.5 70.5 -30.5s32.333 -26.833 40 -41.5s12.834 -27.334 15.501 -38.001s4 -21 4 -31
c0 -40.667 -15.833 -73.334 -47.5 -98.001s-70.834 -40.334 -117.501 -47.001z" />
    <glyph glyph-name="Scaron" unicode="&#x160;" horiz-adv-x="586" 
d="M40 205c0 -64.667 23 -116.499 69 -155.499s107.667 -58.5 185 -58.5c42 0 81.333 6.5 118 19.5s68.667 36 96 69s41 73.5 41 121.5c0 100.667 -63.667 170.667 -191 210l-79 25c-42.667 12.667 -64 31.334 -64 56.001c0 16.667 6.5 30 19.5 40s30.833 15 53.5 15
c48 0 72 -21.333 72 -64h167c0 66.667 -22 119.167 -66 157.5s-101 57.5 -171 57.5s-127.667 -19.5 -173 -58.5s-68 -89.833 -68 -152.5c0 -18 2.33301 -35.667 7 -53s12.834 -35.833 24.501 -55.5s30.167 -37.834 55.5 -54.501s56.333 -30 93 -40l81 -27
c20.667 -6.66699 36.667 -14.334 48 -23.001s17.666 -15 18.999 -19s2 -9 2 -15c0 -20 -8.33301 -35.333 -25 -46s-36.667 -16 -60 -16c-27.333 0 -48 6.16699 -62 18.5s-21.667 28.5 -23 48.5h-169zM372 750.001h-156l-109 173h107l80 -90l80 90h108z" />
    <glyph glyph-name="scaron" unicode="&#x161;" horiz-adv-x="481" 
d="M319 550h-156l-109 173h107l80 -90l80 90h108zM244 166l-59.002 15.999c-27.333 7.33301 -50.833 17 -70.5 29s-34.167 23 -43.5 33s-16.5 22.333 -21.5 37s-7.66699 25.334 -8 32.001s-0.5 15.334 -0.5 26.001c0 36 18.833 68.167 56.5 96.5s82.167 42.5 133.5 42.5
c26 0 50.5 -2.83301 73.5 -8.5s44.667 -14.5 65 -26.5s36.333 -28.833 48 -50.5s17.5 -46.834 17.5 -75.501h-149c0 28 -15.667 42 -47 42c-26 0 -39 -8.66699 -39 -26c0 -14.667 11.667 -24.667 35 -30l83 -23c28 -7.33301 51.5 -17.5 70.5 -30.5s32.333 -26.833 40 -41.5
s12.834 -27.334 15.501 -38.001s4 -21 4 -31c0 -48 -21.333 -84.667 -64 -110s-91.667 -38 -147 -38c-53.333 0 -100.5 14.833 -141.5 44.5s-61.5 69.834 -61.5 120.501h149c0 -12 4.5 -23 13.5 -33s22.5 -15 40.5 -15c13.333 0 24.833 2.83301 34.5 8.5
s14.5 13.167 14.5 22.5c0 6.66699 -2.66699 11.667 -8 15s-16.666 7.33301 -33.999 12z" />
    <glyph glyph-name="Tcommaaccent" unicode="&#x162;" horiz-adv-x="577" 
d="M205 543h-178v146h523v-146h-178v-543h-167v543zM228 -302l-72 42.001c22.667 31.333 38.667 61.666 48 90.999s14.333 67 15 113h128c-11.333 -107.333 -51 -189.333 -119 -246z" />
    <glyph glyph-name="tcommaaccent" unicode="&#x163;" horiz-adv-x="378" 
d="M262 633v-167h98v-117h-98v-349h-157v349h-85v117h85v167h157zM125 -302l-72 42.001c22.667 31.333 38.667 61.666 48 90.999s14.333 67 15 113h128c-11.333 -107.333 -51 -189.333 -119 -246z" />
    <glyph glyph-name="Tcaron" unicode="&#x164;" horiz-adv-x="577" 
d="M27 543h178v-543h167v543h178v146h-523v-146zM366 750h-156l-109 173h107l80 -90l80 90h108z" />
    <glyph glyph-name="tcaron" unicode="&#x165;" horiz-adv-x="378" 
d="M376 523l-62.001 38c22 32 37.833 62.667 47.5 92s14.834 67 15.501 113h116c-10.667 -106 -49.667 -187 -117 -243zM261.999 466v167h-157v-167h-85v-117h85v-349h157v349h98v117h-98z" />
    <glyph glyph-name="Tbar" unicode="&#x166;" horiz-adv-x="577" 
d="M205 283h-95v75h95v185h-178v146h523v-146h-178v-185h95v-75h-95v-283h-167v283z" />
    <glyph glyph-name="tbar" unicode="&#x167;" horiz-adv-x="378" 
d="M105 174h-54v75h54v100h-85v117h85v167h157v-167h98v-117h-98v-100h60v-75h-60v-174h-157v174z" />
    <glyph glyph-name="Utilde" unicode="&#x168;" horiz-adv-x="682" 
d="M341 -9c-74 0 -137.833 24.167 -191.5 72.5s-80.5 110.833 -80.5 187.5v438h168v-438c0 -30 10.5 -54.667 31.5 -74s45.167 -29 72.5 -29s51.5 9.66699 72.5 29s31.5 44 31.5 74v438h168v-438c0 -76.667 -26.833 -139.167 -80.5 -187.5s-117.5 -72.5 -191.5 -72.5z
M297 797c-5.33301 0 -10.832 -3.66699 -16.499 -11s-8.83398 -18 -9.50098 -32h-75c2 44.667 13.167 77.5 33.5 98.5s42.833 31.5 67.5 31.5c15.333 0 32 -6.83301 50 -20.5s30.333 -20.5 37 -20.5c5.33301 0 10.833 3.33301 16.5 10s8.83398 17 9.50098 31h75
c-2 -44 -13.167 -76.333 -33.5 -97s-42.833 -31 -67.5 -31c-14.667 0 -31.334 6.83301 -50.001 20.5s-31 20.5 -37 20.5z" />
    <glyph glyph-name="utilde" unicode="&#x169;" horiz-adv-x="590" 
d="M258 597c-5.33301 0 -10.832 -3.66699 -16.499 -11s-8.83398 -18 -9.50098 -32h-75c2 44.667 13.167 77.5 33.5 98.5s42.833 31.5 67.5 31.5c15.333 0 32 -6.83301 50 -20.5s30.333 -20.5 37 -20.5c5.33301 0 10.833 3.33301 16.5 10s8.83398 17 9.50098 31h75
c-2 -44 -13.167 -76.333 -33.5 -97s-42.833 -31 -67.5 -31c-14 0 -30.333 6.83301 -49 20.5s-31.334 20.5 -38.001 20.5zM371.001 221l-0.00292969 245h159v-466h-159v73c-7.33301 -26.667 -24.666 -47 -51.999 -61s-53.666 -21 -78.999 -21
c-61.333 0 -107.666 19.833 -138.999 59.5s-47 96.5 -47 170.5v245h159v-240c0 -28 7.66699 -48.5 23 -61.5s33 -19.5 53 -19.5c22 0 41.167 5.83301 57.5 17.5s24.5 31.167 24.5 58.5z" />
    <glyph glyph-name="Umacron" unicode="&#x16a;" horiz-adv-x="682" 
d="M341 -9c-74 0 -137.833 24.167 -191.5 72.5s-80.5 110.833 -80.5 187.5v438h168v-438c0 -30 10.5 -54.667 31.5 -74s45.167 -29 72.5 -29s51.5 9.66699 72.5 29s31.5 44 31.5 74v438h168v-438c0 -76.667 -26.833 -139.167 -80.5 -187.5s-117.5 -72.5 -191.5 -72.5z
M485 779h-288v87h288v-87z" />
    <glyph glyph-name="umacron" unicode="&#x16b;" horiz-adv-x="590" 
d="M446 579h-288v87h288v-87zM371 221l-0.00292969 245h159v-466h-159v73c-7.33301 -26.667 -24.666 -47 -51.999 -61s-53.666 -21 -78.999 -21c-61.333 0 -107.666 19.833 -138.999 59.5s-47 96.5 -47 170.5v245h159v-240c0 -28 7.66699 -48.5 23 -61.5s33 -19.5 53 -19.5
c22 0 41.167 5.83301 57.5 17.5s24.5 31.167 24.5 58.5z" />
    <glyph glyph-name="Ubreve" unicode="&#x16c;" horiz-adv-x="682" 
d="M341 -9c74 0 137.833 24.167 191.5 72.5s80.5 110.833 80.5 187.5v438h-168v-438c0 -30 -10.5 -54.667 -31.5 -74s-45.167 -29 -72.5 -29s-51.5 9.66699 -72.5 29s-31.5 44 -31.5 74v438h-168v-438c0 -76.667 26.833 -139.167 80.5 -187.5s117.5 -72.5 191.5 -72.5z
M205 896l89 -0.000976562c0 -17.333 3.5 -30 10.5 -38s19.167 -12 36.5 -12c30 0 45 16.667 45 50h91c0 -39.333 -12.667 -71.166 -38 -95.499s-58 -36.5 -98 -36.5c-43.333 0 -76.833 13 -100.5 39s-35.5 57 -35.5 93z" />
    <glyph glyph-name="ubreve" unicode="&#x16d;" horiz-adv-x="590" 
d="M166 696l89 -0.000976562c0 -17.333 3.5 -30 10.5 -38s19.167 -12 36.5 -12c30 0 45 16.667 45 50h91c0 -39.333 -12.667 -71.166 -38 -95.499s-58 -36.5 -98 -36.5c-43.333 0 -76.833 13 -100.5 39s-35.5 57 -35.5 93zM371 220.999l-0.00292969 245h159v-466h-159v73
c-7.33301 -26.667 -24.666 -47 -51.999 -61s-53.666 -21 -78.999 -21c-61.333 0 -107.666 19.833 -138.999 59.5s-47 96.5 -47 170.5v245h159v-240c0 -28 7.66699 -48.5 23 -61.5s33 -19.5 53 -19.5c22 0 41.167 5.83301 57.5 17.5s24.5 31.167 24.5 58.5z" />
    <glyph glyph-name="Uring" unicode="&#x16e;" horiz-adv-x="682" 
d="M341 -9c74 0 137.833 24.167 191.5 72.5s80.5 110.833 80.5 187.5v438h-168v-438c0 -30 -10.5 -54.667 -31.5 -74s-45.167 -29 -72.5 -29s-51.5 9.66699 -72.5 29s-31.5 44 -31.5 74v438h-168v-438c0 -76.667 26.833 -139.167 80.5 -187.5s117.5 -72.5 191.5 -72.5z
M214 873c0 36 12.167 66.5 36.5 91.5s54.166 37.5 89.499 37.5c36 0 66.333 -12.5 91 -37.5s37 -55.5 37 -91.5c0 -35.333 -12.333 -65.333 -37 -90s-55 -37 -91 -37c-35.333 0 -65.166 12.333 -89.499 37s-36.5 54.667 -36.5 90zM276 873
c0 -18.667 6.16699 -34.167 18.5 -46.5s27.5 -18.5 45.5 -18.5c18.667 0 34.5 6.16699 47.5 18.5s19.5 27.833 19.5 46.5s-6.5 34.667 -19.5 48s-28.833 20 -47.5 20c-18 0 -33.167 -6.5 -45.5 -19.5s-18.5 -29.167 -18.5 -48.5z" />
    <glyph glyph-name="uring" unicode="&#x16f;" horiz-adv-x="590" 
d="M175 673c0 36 12.167 66.5 36.5 91.5s54.166 37.5 89.499 37.5c36 0 66.333 -12.5 91 -37.5s37 -55.5 37 -91.5c0 -35.333 -12.333 -65.333 -37 -90s-55 -37 -91 -37c-35.333 0 -65.166 12.333 -89.499 37s-36.5 54.667 -36.5 90zM237 673
c0 -18.667 6.16699 -34.167 18.5 -46.5s27.5 -18.5 45.5 -18.5c18.667 0 34.5 6.16699 47.5 18.5s19.5 27.833 19.5 46.5s-6.5 34.667 -19.5 48s-28.833 20 -47.5 20c-18 0 -33.167 -6.5 -45.5 -19.5s-18.5 -29.167 -18.5 -48.5zM371 221l-0.00292969 245h159v-466h-159v73
c-7.33301 -26.667 -24.666 -47 -51.999 -61s-53.666 -21 -78.999 -21c-61.333 0 -107.666 19.833 -138.999 59.5s-47 96.5 -47 170.5v245h159v-240c0 -28 7.66699 -48.5 23 -61.5s33 -19.5 53 -19.5c22 0 41.167 5.83301 57.5 17.5s24.5 31.167 24.5 58.5z" />
    <glyph glyph-name="Uhungarumlaut" unicode="&#x170;" horiz-adv-x="682" 
d="M341 -9c74 0 137.833 24.167 191.5 72.5s80.5 110.833 80.5 187.5v438h-168v-438c0 -30 -10.5 -54.667 -31.5 -74s-45.167 -29 -72.5 -29s-51.5 9.66699 -72.5 29s-31.5 44 -31.5 74v438h-168v-438c0 -76.667 26.833 -139.167 80.5 -187.5s117.5 -72.5 191.5 -72.5z
M291 920h105l-105 -173h-93zM448 920h108l-115 -173h-100z" />
    <glyph glyph-name="uhungarumlaut" unicode="&#x171;" horiz-adv-x="590" 
d="M243 720h105l-105 -173h-93zM400 720h108l-115 -173h-100zM371 221l-0.00292969 245h159v-466h-159v73c-7.33301 -26.667 -24.666 -47 -51.999 -61s-53.666 -21 -78.999 -21c-61.333 0 -107.666 19.833 -138.999 59.5s-47 96.5 -47 170.5v245h159v-240
c0 -28 7.66699 -48.5 23 -61.5s33 -19.5 53 -19.5c22 0 41.167 5.83301 57.5 17.5s24.5 31.167 24.5 58.5z" />
    <glyph glyph-name="Uogonek" unicode="&#x172;" horiz-adv-x="684" 
d="M379 -6l-38.998 -80c-9.33301 -25.333 -5.33301 -43.333 12 -54c14.667 -8.66699 28.334 -7 41.001 5c10 10 14 24.667 12 44l70 4c1.33301 -42 -8.83398 -74 -30.501 -96s-47.834 -33 -78.501 -33c-28 0 -52.333 10.167 -73 30.5s-31 45.166 -31 74.499
c0 20.667 3.66699 37.667 11 51l34 53c-66.667 8 -122.834 35.333 -168.501 82s-68.5 105.334 -68.5 176.001v438h168v-438c0 -30 10.5 -54.667 31.5 -74s45.167 -29 72.5 -29s51.5 9.66699 72.5 29s31.5 44 31.5 74v438h168v-438c0 -70 -22.5 -128.333 -67.5 -175
s-100.833 -74 -167.5 -82z" />
    <glyph glyph-name="uogonek" unicode="&#x173;" horiz-adv-x="590" 
d="M487 -86c-9.33301 -25.333 -5.33398 -43.332 11.999 -53.999c14.667 -8.66699 28.334 -7 41.001 5c10 10 14 24.667 12 44l70 4c1.33301 -42 -8.83398 -74 -30.501 -96s-47.834 -33 -78.501 -33c-28 0 -52.333 10.167 -73 30.5s-31 45.166 -31 74.499
c0 20.667 3.66699 37.667 11 51l39 60h-88v73c-7.33301 -26.667 -24.666 -47 -51.999 -61s-53.666 -21 -78.999 -21c-62 0 -108.5 19.5 -139.5 58.5s-46.5 95.167 -46.5 168.5v248h159v-243c0 -28 7.66699 -48 23 -60s33 -18 53 -18c22 0 41.167 5.83301 57.5 17.5
s24.5 31.167 24.5 58.5v245h159v-466z" />
    <glyph glyph-name="Wcircumflex" unicode="&#x174;" horiz-adv-x="883" 
d="M511 590l77 -293l120 392h182l-234 -689h-129l-87 335l-84 -335h-130l-232 689h181l119 -392l78 293h139zM254 757l109 173h156l110 -173h-108l-80 89l-80 -89h-107z" />
    <glyph glyph-name="wcircumflex" unicode="&#x175;" horiz-adv-x="759" 
d="M582 466h170l-160 -466h-135l-78 279l-74 -279h-135l-165 466h170l70 -257l71 257h125l71 -257zM191 557l109 173h156l110 -173h-108l-80 89l-80 -89h-107z" />
    <glyph glyph-name="Ycircumflex" unicode="&#x176;" horiz-adv-x="663" 
d="M415 0h-168v310l-269 379h199l153 -250l156 250h198l-269 -382v-307zM143 757l109 173h156l110 -173h-108l-80 89l-80 -89h-107z" />
    <glyph glyph-name="ycircumflex" unicode="&#x177;" horiz-adv-x="518" 
d="M348 466h169l-288 -696h-167l117 292l-183 404h174l91 -226zM72 557l109 173h156l110 -173h-108l-80 89l-80 -89h-107z" />
    <glyph glyph-name="Ydieresis" unicode="&#x178;" horiz-adv-x="663" 
d="M415 0h-168v310l-269 379h199l153 -250l156 250h198l-269 -382v-307zM161 841c0 20 7.49805 37 22.498 51s33.167 21 54.5 21c20.667 0 38.334 -7 53.001 -21s22 -31 22 -51c0 -20.667 -7.16699 -38 -21.5 -52s-32.166 -21 -53.499 -21s-39.5 7 -54.5 21
s-22.5 31.333 -22.5 52zM348.998 841c0 20 7.66699 37 23 51s33.666 21 54.999 21c20.667 0 38.167 -7 52.5 -21s21.5 -31 21.5 -51c0 -20.667 -7.16699 -38 -21.5 -52s-31.833 -21 -52.5 -21c-21.333 0 -39.666 7 -54.999 21s-23 31.333 -23 52z" />
    <glyph glyph-name="Zacute" unicode="&#x179;" horiz-adv-x="602" 
d="M41 123l295 421h-282v145h501v-123l-299 -420h299v-146h-514v123zM333 923h148l-138 -174h-103z" />
    <glyph glyph-name="zacute" unicode="&#x17a;" horiz-adv-x="512" 
d="M53 466v-144h184l-197 -208v-114h425v144h-200l200 206v116h-412zM285 723h148l-138 -174h-103z" />
    <glyph glyph-name="Zdotaccent" unicode="&#x17b;" horiz-adv-x="602" 
d="M41 123l295 421h-282v145h501v-123l-299 -420h299v-146h-514v123zM215 847c0 22.667 8 41.666 24 56.999s35.667 23 59 23s43 -7.66699 59 -23s24 -34.333 24 -57c0 -23.333 -8 -42.666 -24 -57.999s-35.667 -23 -59 -23c-24 0 -43.833 7.5 -59.5 22.5
s-23.5 34.5 -23.5 58.5z" />
    <glyph glyph-name="zdotaccent" unicode="&#x17c;" horiz-adv-x="512" 
d="M53 466v-144h184l-197 -208v-114h425v144h-200l200 206v116h-412zM169 647c0 22.667 8 41.666 24 56.999s35.667 23 59 23s43 -7.66699 59 -23s24 -34.333 24 -57c0 -23.333 -8 -42.666 -24 -57.999s-35.667 -23 -59 -23c-24 0 -43.833 7.5 -59.5 22.5
s-23.5 34.5 -23.5 58.5z" />
    <glyph glyph-name="Zcaron" unicode="&#x17d;" horiz-adv-x="602" 
d="M41 123l295 421h-282v145h501v-123l-299 -420h299v-146h-514v123zM375 750h-156l-109 173h107l80 -90l80 90h108z" />
    <glyph glyph-name="zcaron" unicode="&#x17e;" horiz-adv-x="512" 
d="M53 466v-144h184l-197 -208v-114h425v144h-200l200 206v116h-412zM330 550h-156l-109 173h107l80 -90l80 90h108z" />
    <glyph glyph-name="longs" unicode="&#x17f;" horiz-adv-x="346" 
d="M391 711l0.000976562 -151h-60c-19.333 0 -34.833 -6.5 -46.5 -19.5s-17.834 -32.167 -18.501 -57.5v-483h-159v349h-87v117h87v17c0 74 19.833 130.5 59.5 169.5s94.5 58.5 164.5 58.5h60z" />
    <glyph glyph-name="florin" unicode="&#x192;" horiz-adv-x="631" 
d="M29 -195l31.001 153h48c44.667 0 72 26 82 78l62 313h-89l22 117h89l6 30c13.333 73.333 43.666 130 90.999 170s105 60.667 173 62h57l-30 -152h-48c-24.667 0 -44.167 -8.66699 -58.5 -26s-24.833 -45.333 -31.5 -84h89l-22 -117h-88l-71 -360
c-10.667 -57.333 -41.167 -101.833 -91.5 -133.5s-106.833 -48.167 -169.5 -49.5z" />
    <glyph glyph-name="Aringacute" unicode="&#x1fa;" horiz-adv-x="667" 
d="M443 158l58 -158h177l-253 689h-182l-254 -689h179l58 158h217zM271 302l62 227l67 -227h-129zM360 1138l147.999 -0.000976562l-118 -148c21.333 -10.667 38.333 -26.167 51 -46.5s19 -43.166 19 -68.499c0 -35.333 -12.333 -65.333 -37 -90s-55 -37 -91 -37
c-35.333 0 -65.166 12.333 -89.499 37s-36.5 54.667 -36.5 90c0 26.667 7 50.667 21 72s32.667 37 56 47zM267.999 874.999c0 -18.667 6.16699 -34.167 18.5 -46.5s27.5 -18.5 45.5 -18.5c18.667 0 34.5 6.16699 47.5 18.5s19.5 27.833 19.5 46.5s-6.5 34.667 -19.5 48
s-28.833 20 -47.5 20c-18 0 -33.167 -6.5 -45.5 -19.5s-18.5 -29.167 -18.5 -48.5z" />
    <glyph glyph-name="aringacute" unicode="&#x1fb;" horiz-adv-x="608" 
d="M389 466l0.000976562 -49.999c-14 20 -32.833 35.333 -56.5 46s-47.834 16 -72.501 16c-60.667 0 -113.667 -22.5 -159 -67.5s-68 -103.833 -68 -176.5s22.667 -131.334 68 -176.001s98.333 -67 159 -67c56.667 0 99.667 20.667 129 62v-53h159v466h-159z
M332.001 936.001l147.999 -0.000976562l-118 -148c21.333 -10.667 38.333 -26.167 51 -46.5s19 -43.166 19 -68.499c0 -35.333 -12.333 -65.333 -37 -90s-55 -37 -91 -37c-35.333 0 -65.166 12.333 -89.499 37s-36.5 54.667 -36.5 90c0 26.667 7 50.667 21 72
s32.667 37 56 47zM195 233c0 26.667 9.5 49.5 28.5 68.5s41.833 28.5 68.5 28.5s49.5 -9.5 68.5 -28.5s28.5 -41.833 28.5 -68.5s-9.5 -49.5 -28.5 -68.5s-41.833 -28.5 -68.5 -28.5s-49.5 9.5 -68.5 28.5s-28.5 41.833 -28.5 68.5zM240 673
c0 -18.667 6.16699 -34.167 18.5 -46.5s27.5 -18.5 45.5 -18.5c18.667 0 34.5 6.16699 47.5 18.5s19.5 27.833 19.5 46.5s-6.5 34.667 -19.5 48s-28.833 20 -47.5 20c-18 0 -33.167 -6.5 -45.5 -19.5s-18.5 -29.167 -18.5 -48.5z" />
    <glyph glyph-name="AEacute" unicode="&#x1fc;" horiz-adv-x="936" 
d="M429 484v-188h-96zM407 689l-435 -689h202l95 152h160v-152l1 1v-1h457v146h-289v124h246v141h-246v132h281v146h-472zM524 923h148l-138 -174h-103z" />
    <glyph glyph-name="aeacute" unicode="&#x1fd;" horiz-adv-x="985" 
d="M508 723h148l-138 -174h-103zM958 240c0 71.333 -23.168 128.834 -69.501 172.501s-103.833 65.5 -172.5 65.5c-66 0 -121.667 -19.667 -167 -59v47h-159v-50c-14 20 -32.833 35.333 -56.5 46s-47.834 16 -72.501 16c-60.667 0 -113.667 -22.5 -159 -67.5
s-68 -103.833 -68 -176.5s22.667 -131.334 68 -176.001s98.333 -67 159 -67c56.667 0 99.667 20.667 129 62v-53h159v51c46 -40 101.667 -60 167 -60c96.667 0 167 29 211 87c-5.33301 4 -23.166 16.667 -53.499 38s-49.166 35 -56.499 41c-22 -26 -51.667 -39 -89 -39
c-26.667 0 -50.5 6.5 -71.5 19.5s-32.833 30.167 -35.5 51.5h334c2 26 3 43 3 51zM195.999 233.001c0 26.667 9.5 49.5 28.5 68.5s41.833 28.5 68.5 28.5s49.5 -9.5 68.5 -28.5s28.5 -41.833 28.5 -68.5s-9.5 -49.5 -28.5 -68.5s-41.833 -28.5 -68.5 -28.5
s-49.5 9.5 -68.5 28.5s-28.5 41.833 -28.5 68.5zM620.999 278.001c5.33301 26 17.4971 44 36.4971 54s37.833 15 56.5 15c10.667 0 21.334 -1.33301 32.001 -4s22.334 -9.66699 35.001 -21s21.334 -26 26.001 -44h-186z" />
    <glyph glyph-name="Oslashacute" unicode="&#x1fe;" horiz-adv-x="778" 
d="M435 923h148l-138 -174h-103zM388 158c-37.333 0 -71.333 10.332 -102 30.999l253 259c22 -31.333 33 -66 33 -104c0 -51.333 -18 -95.166 -54 -131.499s-79.333 -54.5 -130 -54.5zM206 343.999c0 52 17.668 96.167 53.001 132.5s78.333 54.5 129 54.5
c41.333 0 76.666 -11.667 105.999 -35l-255 -261c-22 32.667 -33 69 -33 109zM170.001 67.999c63.333 -51.333 135.998 -76.999 217.998 -76.999c98 0 181.167 34.5 249.5 103.5s102.5 152.167 102.5 249.5c0 83.333 -27.667 158.666 -83 225.999l80 82l-47 46l-79 -81
c-63.333 54 -137.666 81 -222.999 81c-97.333 0 -180.166 -34.5 -248.499 -103.5s-102.5 -152.5 -102.5 -250.5c0 -86 28.333 -162.667 85 -230l-80 -82l47 -47l96 98z" />
    <glyph glyph-name="oslashacute" unicode="&#x1ff;" horiz-adv-x="563" 
d="M308 723h148l-138 -174h-103zM77 -19l55 56.001c42.667 -30.667 92 -46 148 -46c68.667 0 127.5 22.667 176.5 68s73.5 103.666 73.5 174.999c0 60 -18.333 112 -55 156l50 51l-41 40l-51 -52c-45.333 32.667 -96.333 49 -153 49c-68 0 -126.167 -22.667 -174.5 -68
s-72.5 -104 -72.5 -176c0 -61.333 18.667 -114 56 -158l-53 -54zM183 234.001c0 26.667 9.5 49.5 28.5 68.5s41.833 28.5 68.5 28.5c14.667 0 30 -4 46 -12l-130 -133c-8.66699 13.333 -13 29.333 -13 48zM280 137.001c-14.667 0 -28.667 3.00098 -42 9.00098l128 132
c7.33301 -14.667 11 -29.334 11 -44.001c0 -26.667 -9.5 -49.5 -28.5 -68.5s-41.833 -28.5 -68.5 -28.5z" />
    <glyph glyph-name="Scommaaccent" unicode="&#x218;" horiz-adv-x="586" 
d="M40 205l169 -0.000976562c1.33301 -20 9 -36.167 23 -48.5s34.667 -18.5 62 -18.5c23.333 0 43.333 5.33301 60 16s25 26 25 46c0 6 -0.666992 11 -2 15s-7.66602 10.333 -18.999 19s-27.333 16.334 -48 23.001l-81 27c-36.667 10 -67.667 23.333 -93 40
s-43.833 34.834 -55.5 54.501s-19.834 38.167 -24.501 55.5s-7 35 -7 53c0 62.667 22.667 113.5 68 152.5s103 58.5 173 58.5s127 -19.167 171 -57.5s66 -90.833 66 -157.5h-167c0 42.667 -24 64 -72 64c-22.667 0 -40.5 -5 -53.5 -15s-19.5 -23.333 -19.5 -40
c0 -24.667 21.333 -43.334 64 -56.001l79 -25c127.333 -39.333 191 -109.333 191 -210c0 -48 -13.667 -88.5 -41 -121.5s-59.333 -56 -96 -69s-76 -19.5 -118 -19.5c-77.333 0 -139 19.5 -185 58.5s-69 90.833 -69 155.5zM252 -302.001l-72 42.001
c22.667 31.333 38.667 61.666 48 90.999s14.333 67 15 113h128c-11.333 -107.333 -51 -189.333 -119 -246z" />
    <glyph glyph-name="scommaaccent" unicode="&#x219;" horiz-adv-x="481" 
d="M196 -302l-72 42.001c22.667 31.333 38.667 61.666 48 90.999s14.333 67 15 113h128c-11.333 -107.333 -51 -189.333 -119 -246zM244 166.001l-59.002 15.999c-27.333 7.33301 -50.833 17 -70.5 29s-34.167 23 -43.5 33s-16.5 22.333 -21.5 37s-7.66699 25.334 -8 32.001
s-0.5 15.334 -0.5 26.001c0 36 18.833 68.167 56.5 96.5s82.167 42.5 133.5 42.5c26 0 50.5 -2.83301 73.5 -8.5s44.667 -14.5 65 -26.5s36.333 -28.833 48 -50.5s17.5 -46.834 17.5 -75.501h-149c0 28 -15.667 42 -47 42c-26 0 -39 -8.66699 -39 -26
c0 -14.667 11.667 -24.667 35 -30l83 -23c28 -7.33301 51.5 -17.5 70.5 -30.5s32.333 -26.833 40 -41.5s12.834 -27.334 15.501 -38.001s4 -21 4 -31c0 -48 -21.333 -84.667 -64 -110s-91.667 -38 -147 -38c-53.333 0 -100.5 14.833 -141.5 44.5s-61.5 69.834 -61.5 120.501
h149c0 -12 4.5 -23 13.5 -33s22.5 -15 40.5 -15c13.333 0 24.833 2.83301 34.5 8.5s14.5 13.167 14.5 22.5c0 6.66699 -2.66699 11.667 -8 15s-16.666 7.33301 -33.999 12z" />
    <glyph glyph-name="circumflex" unicode="&#x2c6;" horiz-adv-x="585" 
d="M105 557l109 173h156l110 -173h-108l-80 89l-80 -89h-107z" />
    <glyph glyph-name="caron" unicode="&#x2c7;" horiz-adv-x="585" 
d="M370 550h-156l-109 173h107l80 -90l80 90h108z" />
    <glyph glyph-name="breve" unicode="&#x2d8;" horiz-adv-x="520" 
d="M124 696l89 -0.000976562c0 -17.333 3.5 -30 10.5 -38s19.167 -12 36.5 -12c30 0 45 16.667 45 50h91c0 -39.333 -12.667 -71.166 -38 -95.499s-58 -36.5 -98 -36.5c-43.333 0 -76.833 13 -100.5 39s-35.5 57 -35.5 93z" />
    <glyph glyph-name="dotaccent" unicode="&#x2d9;" horiz-adv-x="330" 
d="M82 647c0 22.667 8 41.666 24 56.999s35.667 23 59 23s43 -7.66699 59 -23s24 -34.333 24 -57c0 -23.333 -8 -42.666 -24 -57.999s-35.667 -23 -59 -23c-24 0 -43.833 7.5 -59.5 22.5s-23.5 34.5 -23.5 58.5z" />
    <glyph glyph-name="ring" unicode="&#x2da;" horiz-adv-x="574" 
d="M160 673c0 36 12.167 66.5 36.5 91.5s54.166 37.5 89.499 37.5c36 0 66.333 -12.5 91 -37.5s37 -55.5 37 -91.5c0 -35.333 -12.333 -65.333 -37 -90s-55 -37 -91 -37c-35.333 0 -65.166 12.333 -89.499 37s-36.5 54.667 -36.5 90zM222 673
c0 -18.667 6.16699 -34.167 18.5 -46.5s27.5 -18.5 45.5 -18.5c18.667 0 34.5 6.16699 47.5 18.5s19.5 27.833 19.5 46.5s-6.5 34.667 -19.5 48s-28.833 20 -47.5 20c-18 0 -33.167 -6.5 -45.5 -19.5s-18.5 -29.167 -18.5 -48.5z" />
    <glyph glyph-name="ogonek" unicode="&#x2db;" horiz-adv-x="534" 
d="M238 -86c-9.33301 -25.333 -5.33203 -43.332 12.001 -53.999c14.667 -8.66699 28.334 -7 41.001 5c10 10 14 24.667 12 44l70 4c1.33301 -42 -8.83398 -74 -30.501 -96s-47.834 -33 -78.501 -33c-28 0 -52.333 10.167 -73 30.5s-31 45.166 -31 74.499
c0 20.667 3.66699 37.667 11 51l54 83h67z" />
    <glyph glyph-name="tilde" unicode="&#x2dc;" horiz-adv-x="449" 
d="M181 597c-5.33301 0 -10.832 -3.66699 -16.499 -11s-8.83398 -18 -9.50098 -32h-75c2 44.667 13.167 77.5 33.5 98.5s42.833 31.5 67.5 31.5c15.333 0 32 -6.83301 50 -20.5s30.333 -20.5 37 -20.5c5.33301 0 10.833 3.33301 16.5 10s8.83398 17 9.50098 31h75
c-2 -44 -13.167 -76.333 -33.5 -97s-42.833 -31 -67.5 -31c-14.667 0 -31.334 6.83301 -50.001 20.5s-31 20.5 -37 20.5z" />
    <glyph glyph-name="hungarumlaut" unicode="&#x2dd;" horiz-adv-x="571" 
d="M173 720h105l-105 -173h-93zM330 720h108l-115 -173h-100z" />
    <glyph glyph-name="Wgrave" unicode="&#x1e80;" horiz-adv-x="883" 
d="M511 590l77 -293l120 392h182l-234 -689h-129l-87 335l-84 -335h-130l-232 689h181l119 -392l78 293h139zM236 923h148l93 -174h-103z" />
    <glyph glyph-name="wgrave" unicode="&#x1e81;" horiz-adv-x="759" 
d="M582 466h170l-160 -466h-135l-78 279l-74 -279h-135l-165 466h170l70 -257l71 257h125l71 -257zM188 723h148l93 -174h-103z" />
    <glyph glyph-name="Wacute" unicode="&#x1e82;" horiz-adv-x="883" 
d="M588 297l-77 293h-139l-78 -293l-119 392h-181l232 -689h130l84 335l87 -335h129l234 689h-182zM489 923h148l-138 -174h-103z" />
    <glyph glyph-name="wacute" unicode="&#x1e83;" horiz-adv-x="759" 
d="M752 466h-170l-70 -257l-71 257h-125l-71 -257l-70 257h-170l165 -466h135l74 279l78 -279h135zM415 723h148l-138 -174h-103z" />
    <glyph glyph-name="Wdieresis" unicode="&#x1e84;" horiz-adv-x="883" 
d="M588 297l-77 293h-139l-78 -293l-119 392h-181l232 -689h130l84 335l87 -335h129l234 689h-182zM272 841c0 20 7.49805 37 22.498 51s33.167 21 54.5 21c20.667 0 38.334 -7 53.001 -21s22 -31 22 -51c0 -20.667 -7.16699 -38 -21.5 -52s-32.166 -21 -53.499 -21
s-39.5 7 -54.5 21s-22.5 31.333 -22.5 52zM459.998 841c0 20 7.66699 37 23 51s33.666 21 54.999 21c20.667 0 38.167 -7 52.5 -21s21.5 -31 21.5 -51c0 -20.667 -7.16699 -38 -21.5 -52s-31.833 -21 -52.5 -21c-21.333 0 -39.666 7 -54.999 21s-23 31.333 -23 52z" />
    <glyph glyph-name="wdieresis" unicode="&#x1e85;" horiz-adv-x="759" 
d="M752 466h-170l-70 -257l-71 257h-125l-71 -257l-70 257h-170l165 -466h135l74 279l78 -279h135zM208 641c0 20 7.49805 37 22.498 51s33.167 21 54.5 21c20.667 0 38.334 -7 53.001 -21s22 -31 22 -51c0 -20.667 -7.16699 -38 -21.5 -52s-32.166 -21 -53.499 -21
s-39.5 7 -54.5 21s-22.5 31.333 -22.5 52zM395.998 641c0 20 7.66699 37 23 51s33.666 21 54.999 21c20.667 0 38.167 -7 52.5 -21s21.5 -31 21.5 -51c0 -20.667 -7.16699 -38 -21.5 -52s-31.833 -21 -52.5 -21c-21.333 0 -39.666 7 -54.999 21s-23 31.333 -23 52z" />
    <glyph glyph-name="Ygrave" unicode="&#x1ef2;" horiz-adv-x="663" 
d="M415 0h-168v310l-269 379h199l153 -250l156 250h198l-269 -382v-307zM148 923h148l93 -174h-103z" />
    <glyph glyph-name="ygrave" unicode="&#x1ef3;" horiz-adv-x="518" 
d="M348 466h169l-288 -696h-167l117 292l-183 404h174l91 -226zM81 723h148l93 -174h-103z" />
    <glyph glyph-name="thinspace" unicode="&#x2009;" horiz-adv-x="14" 
 />
    <glyph glyph-name="endash" unicode="&#x2013;" horiz-adv-x="654" 
d="M596 172h-538v135h538v-135z" />
    <glyph glyph-name="emdash" unicode="&#x2014;" horiz-adv-x="870" 
d="M812 171h-754v135h754v-135z" />
    <glyph glyph-name="quoteleft" unicode="&#x2018;" horiz-adv-x="266" 
d="M174 729l65 -39.998c-42.667 -58.667 -64 -134.334 -64 -227.001h-124c0 60 12.5 112.667 37.5 158s53.5 81.666 85.5 108.999z" />
    <glyph glyph-name="quoteright" unicode="&#x2019;" horiz-adv-x="257" 
d="M100 423l-65 39.998c42.667 58.667 64 134.334 64 227.001h124c0 -60 -12.5 -112.667 -37.5 -158s-53.5 -81.666 -85.5 -108.999z" />
    <glyph glyph-name="quotesinglbase" unicode="&#x201a;" horiz-adv-x="260" 
d="M73 -138l-65 39.998c42.667 58.667 64 134.334 64 227.001h124c0 -60 -12.5 -112.667 -37.5 -158s-53.5 -81.666 -85.5 -108.999z" />
    <glyph glyph-name="quotedblleft" unicode="&#x201c;" horiz-adv-x="441" 
d="M349 729l65 -39.998c-42.667 -58.667 -64 -134.334 -64 -227.001h-124c0 60 12.5 112.667 37.5 158s53.5 81.666 85.5 108.999zM174 729.002l65 -39.998c-42.667 -58.667 -64 -134.334 -64 -227.001h-124c0 60 12.5 112.667 37.5 158s53.5 81.666 85.5 108.999z" />
    <glyph glyph-name="quotedblright" unicode="&#x201d;" horiz-adv-x="432" 
d="M100 423l-65 39.998c42.667 58.667 64 134.334 64 227.001h124c0 -60 -12.5 -112.667 -37.5 -158s-53.5 -81.666 -85.5 -108.999zM275 422.998l-65 39.998c42.667 58.667 64 134.334 64 227.001h124c0 -60 -12.5 -112.667 -37.5 -158s-53.5 -81.666 -85.5 -108.999z" />
    <glyph glyph-name="quotedblbase" unicode="&#x201e;" horiz-adv-x="435" 
d="M73 -138l-65 39.998c42.667 58.667 64 134.334 64 227.001h124c0 -60 -12.5 -112.667 -37.5 -158s-53.5 -81.666 -85.5 -108.999zM248 -138.002l-65 39.998c42.667 58.667 64 134.334 64 227.001h124c0 -60 -12.5 -112.667 -37.5 -158s-53.5 -81.666 -85.5 -108.999z" />
    <glyph glyph-name="dagger" unicode="&#x2020;" horiz-adv-x="438" 
d="M150 689h138v-156h114v-102h-114v-545h-138v545h-114v102h114v156z" />
    <glyph glyph-name="daggerdbl" unicode="&#x2021;" horiz-adv-x="466" 
d="M164 689h138v-156h114v-102h-114v-213h114v-100h-114v-232h-138v232h-114v100h114v213h-114v102h114v156z" />
    <glyph glyph-name="bullet" unicode="&#x2022;" horiz-adv-x="490" 
d="M81 238c0 44.667 16 82.167 48 112.5s70.667 45.5 116 45.5s84 -15.167 116 -45.5s48 -67.833 48 -112.5c0 -45.333 -16 -83.166 -48 -113.499s-70.667 -45.5 -116 -45.5s-84 15.167 -116 45.5s-48 68.166 -48 113.499z" />
    <glyph glyph-name="ellipsis" unicode="&#x2026;" horiz-adv-x="927" 
d="M49 84c0 26 9.16699 47.667 27.5 65s40.5 26 66.5 26c26.667 0 49.334 -8.66699 68.001 -26s28 -39 28 -65c0 -26.667 -9.33301 -48.834 -28 -66.501s-41.334 -26.5 -68.001 -26.5c-26 0 -48.167 8.83301 -66.5 26.5s-27.5 39.834 -27.5 66.501zM369 84
c0 26 9.16699 47.667 27.5 65s40.5 26 66.5 26c26.667 0 49.334 -8.66699 68.001 -26s28 -39 28 -65c0 -26.667 -9.33301 -48.834 -28 -66.501s-41.334 -26.5 -68.001 -26.5c-26 0 -48.167 8.83301 -66.5 26.5s-27.5 39.834 -27.5 66.501zM689 84
c0 26 9.16699 47.667 27.5 65s40.5 26 66.5 26s48.333 -8.66699 67 -26s28 -39 28 -65c0 -26.667 -9.33301 -48.834 -28 -66.501s-41 -26.5 -67 -26.5s-48.167 8.83301 -66.5 26.5s-27.5 39.834 -27.5 66.501z" />
    <glyph glyph-name="perthousand" unicode="&#x2030;" horiz-adv-x="1011" 
d="M468 656l-329 -656h94l330 656h-95zM38 535c0 37.333 12.833 69 38.5 95s57.167 39 94.5 39c36.667 0 68.167 -13.167 94.5 -39.5s39.5 -57.833 39.5 -94.5c0 -37.333 -13 -68.833 -39 -94.5s-57.667 -38.5 -95 -38.5s-68.833 12.833 -94.5 38.5s-38.5 57.167 -38.5 94.5
zM124 535c0 -13.333 4.50195 -24.502 13.502 -33.502s20.167 -13.5 33.5 -13.5s24.666 4.5 33.999 13.5s14 20.167 14 33.5c0 12.667 -4.83301 23.834 -14.5 33.501s-20.834 14.5 -33.501 14.5c-13.333 0 -24.5 -4.66699 -33.5 -14s-13.5 -20.666 -13.5 -33.999z
M400.002 123.998c0 37.333 12.833 69 38.5 95s57.167 39 94.5 39c36.667 0 68.167 -13 94.5 -39s39.5 -57.667 39.5 -95s-13 -68.833 -39 -94.5s-57.667 -38.5 -95 -38.5s-68.833 12.833 -94.5 38.5s-38.5 57.167 -38.5 94.5zM486.002 123.998
c0 -13.333 4.50195 -24.5 13.502 -33.5s20.167 -13.5 33.5 -13.5s24.666 4.5 33.999 13.5s14 20.167 14 33.5s-4.83301 24.666 -14.5 33.999s-20.834 14 -33.501 14c-13.333 0 -24.5 -4.66699 -33.5 -14s-13.5 -20.666 -13.5 -33.999zM710.004 123.998
c0 37.333 12.833 69 38.5 95s57.167 39 94.5 39c36.667 0 68.167 -13 94.5 -39s39.5 -57.667 39.5 -95s-13 -68.833 -39 -94.5s-57.667 -38.5 -95 -38.5s-68.833 12.833 -94.5 38.5s-38.5 57.167 -38.5 94.5zM796.004 123.998c0 -13.333 4.50195 -24.5 13.502 -33.5
s20.167 -13.5 33.5 -13.5s24.666 4.5 33.999 13.5s14 20.167 14 33.5s-4.83301 24.666 -14.5 33.999s-20.834 14 -33.501 14c-13.333 0 -24.5 -4.66699 -33.5 -14s-13.5 -20.666 -13.5 -33.999z" />
    <glyph glyph-name="guilsinglleft" unicode="&#x2039;" horiz-adv-x="333" 
d="M36 233l138 207h119l-138 -207l138 -207h-119z" />
    <glyph glyph-name="guilsinglright" unicode="&#x203a;" horiz-adv-x="333" 
d="M297 233l-138 -207h-119l138 207l-138 207h119z" />
    <glyph glyph-name="fraction" unicode="&#x2044;" horiz-adv-x="180" 
d="M266 667h93l-451 -676h-94z" />
    <glyph glyph-name="zerosuperior" unicode="&#x2070;" horiz-adv-x="361" 
d="M31 681c0 135.333 50.333 203 151 203c98.667 0 148 -67.667 148 -203c0 -134 -49.333 -201 -148 -201c-100.667 0 -151 67 -151 201zM134 681c0 -68 16 -102 48 -102c29.333 0 44 34 44 102c0 68.667 -14.667 103 -44 103c-32 0 -48 -34.333 -48 -103z" />
    <glyph glyph-name="foursuperior" unicode="&#x2074;" horiz-adv-x="380" 
d="M203 665v122l-62 -122h62zM308 665h45v-87h-45v-93h-105v93h-197l161 301h141v-214z" />
    <glyph glyph-name="fivesuperior" unicode="&#x2075;" horiz-adv-x="363" 
d="M239 631c0 14.667 -6.00195 27.001 -18.002 37.001s-27 15 -45 15c-36.667 0 -72.667 -13.333 -108 -40l-34 20l30 216h244v-87h-162l-8 -54c20.667 15.333 45 23 73 23c35.333 0 65.5 -12 90.5 -36s37.5 -55.333 37.5 -94c0 -43.333 -15.667 -79.5 -47 -108.5
s-73 -43.5 -125 -43.5c-26.667 0 -53.167 6.66699 -79.5 20s-48.166 30.666 -65.499 51.999l77 60c25.333 -26.667 48 -40 68 -40c20.667 0 37.834 6 51.501 18s20.5 26 20.5 42z" />
    <glyph glyph-name="sixsuperior" unicode="&#x2076;" horiz-adv-x="362" 
d="M139 613c0 -12.667 4.16797 -23.333 12.501 -32s20.166 -13 35.499 -13s27.5 4.5 36.5 13.5s13.5 19.5 13.5 31.5c0 10.667 -4.33301 20.334 -13 29.001s-21 13 -37 13c-14 0 -25.5 -4.33301 -34.5 -13s-13.5 -18.334 -13.5 -29.001zM212.001 737.001
c28 0 55.667 -9.83105 83 -29.498s41 -49.167 41 -88.5c0 -40.667 -13.333 -74 -40 -100s-65 -39 -115 -39c-38 0 -70 12.5 -96 37.5s-42.667 58.5 -50 100.5c-6.66699 30 -8.16699 60.833 -4.5 92.5s10.667 60.667 21 87s28.5 47.666 54.5 63.999s57.333 23.833 94 22.5
c60.667 -2.66699 103 -28.334 127 -77.001l-78 -40c-10 20.667 -27.333 31 -52 31c-26 0 -44.5 -10.833 -55.5 -32.5s-17.167 -45.5 -18.5 -71.5c2 9.33301 10.5 18.833 25.5 28.5s36.167 14.5 63.5 14.5z" />
    <glyph glyph-name="sevensuperior" unicode="&#x2077;" horiz-adv-x="321" 
d="M172 786h-152v93h298l-147 -394h-113z" />
    <glyph glyph-name="eightsuperior" unicode="&#x2078;" horiz-adv-x="370" 
d="M133 612c0 -14 4.66699 -25.5 14 -34.5s22.333 -13.5 39 -13.5s29.5 4.5 38.5 13.5s13.5 20.5 13.5 34.5c0 12 -4.66699 22.5 -14 31.5s-22 13.5 -38 13.5c-16.667 0 -29.667 -4 -39 -12s-14 -19 -14 -33zM50 778c0 31.333 13.501 56.834 40.501 76.501
s58.833 29.5 95.5 29.5c36 0 66.5 -9.83301 91.5 -29.5s37.5 -45.167 37.5 -76.5c0 -15.333 -3.5 -30.5 -10.5 -45.5s-16.5 -24.5 -28.5 -28.5c18 -2.66699 33.833 -14.334 47.5 -35.001s20.5 -42 20.5 -64c0 -38 -15.167 -68.333 -45.5 -91s-67.833 -34 -112.5 -34
s-82.334 11.333 -113.001 34s-46 53 -46 91c0 22.667 5.66699 43.667 17 63s27 31.333 47 36c-12 6 -21.833 16.333 -29.5 31s-11.5 29 -11.5 43zM145.001 774.001c0 -10.667 3.66699 -19.5 11 -26.5s17.333 -10.5 30 -10.5s22.5 3.5 29.5 10.5s10.5 15.833 10.5 26.5
c0 8.66699 -3.66699 16.5 -11 23.5s-17 10.5 -29 10.5c-27.333 0 -41 -11.333 -41 -34z" />
    <glyph glyph-name="ninesuperior" unicode="&#x2079;" horiz-adv-x="361" 
d="M222 751c0 12 -4.16797 22.333 -12.501 31s-20.166 13 -35.499 13s-27.333 -4.33301 -36 -13s-13 -19 -13 -31c0 -10.667 4.16699 -20.334 12.5 -29.001s20.5 -13 36.5 -13c14 0 25.5 4.33301 34.5 13s13.5 18.334 13.5 29.001zM148.999 627
c-10.667 0 -22.1689 1.83203 -34.502 5.49902s-25.666 9.5 -39.999 17.5s-26.166 20.167 -35.499 36.5s-14 35.833 -14 58.5c0 40.667 13.333 74 40 100s65 39 115 39c38.667 0 70.834 -12.333 96.501 -37s42.167 -58.334 49.5 -101.001
c6.66699 -30 8.16699 -60.833 4.5 -92.5s-10.667 -60.667 -21 -87s-28.5 -47.666 -54.5 -63.999s-57.333 -23.833 -94 -22.5c-60.667 2.66699 -103 28.334 -127 77.001l78 39c9.33301 -20 26.666 -30 51.999 -30c26 0 44.5 10.833 55.5 32.5s17.167 45.5 18.5 71.5
c-2 -9.33301 -11 -18.833 -27 -28.5s-36.667 -14.5 -62 -14.5z" />
    <glyph glyph-name="zeroinferior" unicode="&#x2080;" horiz-adv-x="361" 
d="M31 6c0 135.333 50.333 203 151 203c98.667 0 148 -67.667 148 -203c0 -134 -49.333 -201 -148 -201c-100.667 0 -151 67 -151 201zM134 6c0 -68 16 -102 48 -102c29.333 0 44 34 44 102c0 68.667 -14.667 103 -44 103c-32 0 -48 -34.333 -48 -103z" />
    <glyph glyph-name="oneinferior" unicode="&#x2081;" horiz-adv-x="242" 
d="M19 124l176 91v-405h-106v259l-70 -32v87z" />
    <glyph glyph-name="twoinferior" unicode="&#x2082;" horiz-adv-x="341" 
d="M28 -129l166.001 187.001c8.66699 13.333 10 25.166 4 35.499s-16.333 15.5 -31 15.5c-23.333 0 -37 -13.333 -41 -40l-98 14c13.333 84 62.333 126 147 126c36 0 67 -11.5 93 -34.5s39 -52.167 39 -87.5c-0.666992 -38 -14.334 -70.667 -41.001 -98l-85 -88h128v-91
h-281v61z" />
    <glyph glyph-name="threeinferior" unicode="&#x2083;" horiz-adv-x="338" 
d="M146 -23l-41.998 -0.00292969v74h42c30 0 45 12.333 45 37c0 8 -3.66699 15.167 -11 21.5s-18.333 9.5 -33 9.5c-25.333 0 -45.333 -8.33301 -60 -25l-55 57c27.333 38.667 71.666 58 132.999 58c36 0 66.5 -11.167 91.5 -33.5s37.167 -48.166 36.5 -77.499
c0 -32 -18.667 -57.333 -56 -76c46.667 -17.333 71 -46.666 73 -87.999s-12.333 -73.166 -43 -95.499s-68.334 -33.5 -113.001 -33.5c-69.333 0 -115 22.667 -137 68l54 54c18 -24.667 44.333 -37 79 -37c20 0 35 4.5 45 13.5s15 20.167 15 33.5
c0 12 -6.33301 21.667 -19 29s-27.667 11 -45 11z" />
    <glyph glyph-name="fourinferior" unicode="&#x2084;" horiz-adv-x="379" 
d="M203 -10v122l-62 -122h62zM308 -10h45v-87h-45v-93h-105v93h-197l161 301h141v-214z" />
    <glyph glyph-name="fiveinferior" unicode="&#x2085;" horiz-adv-x="362" 
d="M239 -44c0 14.667 -6.00293 27.001 -18.0029 37.001s-27 15 -45 15c-36.667 0 -72.667 -13.333 -108 -40l-34 20l30 216h244v-87h-162l-8 -54c20.667 15.333 45 23 73 23c35.333 0 65.5 -12 90.5 -36s37.5 -55.333 37.5 -94c0 -43.333 -15.667 -79.5 -47 -108.5
s-73 -43.5 -125 -43.5c-26.667 0 -53.167 6.66699 -79.5 20s-48.166 30.666 -65.499 51.999l77 60c24.667 -26.667 47.334 -40 68.001 -40s37.834 6 51.501 18s20.5 26 20.5 42z" />
    <glyph glyph-name="sixinferior" unicode="&#x2086;" horiz-adv-x="361" 
d="M139 -62c0 -12.667 4.16797 -23.333 12.501 -32s20.166 -13 35.499 -13s27.5 4.5 36.5 13.5s13.5 19.5 13.5 31.5c0 10.667 -4.33301 20.334 -13 29.001s-21 13 -37 13c-14 0 -25.5 -4.33301 -34.5 -13s-13.5 -18.334 -13.5 -29.001zM212.001 62.001
c28 0 55.667 -9.83105 83 -29.498s41 -49.167 41 -88.5c0 -40.667 -13.333 -74 -40 -100s-65 -39 -115 -39c-38 0 -70 12.5 -96 37.5s-42.667 58.5 -50 100.5c-6.66699 30 -8.16699 60.833 -4.5 92.5s10.667 60.667 21 87s28.5 47.666 54.5 63.999s57.333 23.833 94 22.5
c60.667 -2.66699 103 -28.334 127 -77.001l-78 -40c-10 20.667 -27.333 31 -52 31c-26 0 -44.5 -10.833 -55.5 -32.5s-17.167 -45.5 -18.5 -71.5c2 9.33301 10.5 18.833 25.5 28.5s36.167 14.5 63.5 14.5z" />
    <glyph glyph-name="seveninferior" unicode="&#x2087;" horiz-adv-x="322" 
d="M172 111h-152v93h298l-147 -394h-113z" />
    <glyph glyph-name="eightinferior" unicode="&#x2088;" horiz-adv-x="370" 
d="M133 -63c0 -14 4.66699 -25.5 14 -34.5s22.333 -13.5 39 -13.5s29.5 4.5 38.5 13.5s13.5 20.5 13.5 34.5c0 12 -4.66699 22.5 -14 31.5s-22 13.5 -38 13.5c-16.667 0 -29.667 -4 -39 -12s-14 -19 -14 -33zM50 103c0 31.333 13.501 56.834 40.501 76.501
s58.833 29.5 95.5 29.5c36 0 66.5 -9.83301 91.5 -29.5s37.5 -45.167 37.5 -76.5c0 -15.333 -3.5 -30.5 -10.5 -45.5s-16.5 -24.5 -28.5 -28.5c18 -2.66699 33.833 -14.334 47.5 -35.001s20.5 -42 20.5 -64c0 -38 -15.167 -68.333 -45.5 -91s-67.833 -34 -112.5 -34
s-82.334 11.333 -113.001 34s-46 53 -46 91c0 22.667 5.66699 43.667 17 63s27 31.333 47 36c-12 6 -21.833 16.333 -29.5 31s-11.5 29 -11.5 43zM145.001 99.001c0 -10.667 3.66699 -19.5 11 -26.5s17.333 -10.5 30 -10.5s22.5 3.5 29.5 10.5s10.5 15.833 10.5 26.5
c0 8.66699 -3.66699 16.5 -11 23.5s-17 10.5 -29 10.5c-27.333 0 -41 -11.333 -41 -34z" />
    <glyph glyph-name="nineinferior" unicode="&#x2089;" horiz-adv-x="362" 
d="M223 76c0 12 -4.16797 22.333 -12.501 31s-20.166 13 -35.499 13s-27.333 -4.33301 -36 -13s-13 -19 -13 -31c0 -10.667 4.16699 -20.334 12.5 -29.001s20.5 -13 36.5 -13c14 0 25.5 4.33301 34.5 13s13.5 18.334 13.5 29.001zM149.999 -48
c-10.667 0 -22.1689 1.83203 -34.502 5.49902s-25.666 9.5 -39.999 17.5s-26.166 20.167 -35.499 36.5s-14 35.833 -14 58.5c0 40.667 13.333 74 40 100s65 39 115 39c38.667 0 70.834 -12.333 96.501 -37s42.167 -58.334 49.5 -101.001
c6.66699 -30 8.16699 -60.833 4.5 -92.5s-10.667 -60.667 -21 -87s-28.5 -47.666 -54.5 -63.999s-57.333 -23.833 -94 -22.5c-60.667 2.66699 -103 28.334 -127 77.001l78 39c9.33301 -20 26.666 -30 51.999 -30c26 0 44.5 10.833 55.5 32.5s17.167 45.5 18.5 71.5
c-2 -9.33301 -11 -18.833 -27 -28.5s-36.667 -14.5 -62 -14.5z" />
    <glyph glyph-name="colonmonetary" unicode="&#x20a1;" horiz-adv-x="719" 
d="M206 343c0 -39.333 7.66699 -73.333 23 -102l103 292c-38 -11.333 -68.5 -34.333 -91.5 -69s-34.5 -75 -34.5 -121zM407 538l-128 -356.001c16 -14 33.667 -23.333 53 -28l132 367c-32 10.667 -51 16.334 -57 17.001zM344 -8.00098l-35.9971 -105.002l-62 22l34 96
c-20.667 5.33301 -39.667 12 -57 20l-37 -104l-63 23l43 121c-40.667 32.667 -72.334 73.334 -95.001 122.001s-34 100.667 -34 156c0 100 34 184.667 102 254s152 103 252 101l39 107l63 -24l-33 -91c21.333 -5.33301 40.666 -11.666 57.999 -18.999l35 100l62 -25
l-37 -104c41.333 -26.667 75.333 -61 102 -103l-139 -91c-8 14 -15 25 -21 33l-120 -336c-8 1.33301 -14 2 -18 2c34 0 65.667 9 95 27s52.333 41.667 69 71l137 -91c-30 -50 -71.5 -89.833 -124.5 -119.5s-111.833 -44.5 -176.5 -44.5
c-16.667 0 -29.334 0.666992 -38.001 2z" />
    <glyph glyph-name="lira" unicode="&#x20a4;" horiz-adv-x="702" 
d="M150 222l-78 0.000976562v64h78v43h-78v64h78v85c0 66.667 19.833 120 59.5 160s91.834 60 156.501 60c159.333 0 239 -80.333 239 -241h-158c0 54 -23.667 81 -71 81c-20 0 -36 -7.33301 -48 -22s-18 -32.667 -18 -54v-69h100v-64h-100v-43h100v-64h-100v-89h167
c11.333 0 18.833 3.5 22.5 10.5s5.5 17.167 5.5 30.5v50h156v-86c0 -38.667 -13.833 -71.334 -41.5 -98.001s-59.834 -40 -96.501 -40h-485v133h112v89z" />
    <glyph glyph-name="uni20A6" unicode="&#x20a6;" horiz-adv-x="770" 
d="M122 242h-72v71h72v56h-72v71h72v249h151l206 -371v371h167v-249h74v-71h-74v-56h74v-71h-74v-242h-146l-211 376v-376h-167v242z" />
    <glyph glyph-name="peseta" unicode="&#x20a7;" horiz-adv-x="761" 
d="M295 0h-166.999v361h-80v71h80v56h-80v71h80v130h285c54 0 99 -11.833 135 -35.5s62.667 -55.167 80 -94.5h95v-71h-76c1.33301 -13.333 2 -23 2 -29s-0.666992 -15 -2 -27h76v-71h-94c-16.667 -39.333 -43.334 -71 -80.001 -95s-82 -36 -136 -36h-118v-230zM405.001 543
l-110 0.000976562v-169h110c25.333 0 44.166 8.33301 56.499 25s18.5 36.667 18.5 60s-6.16699 43.166 -18.5 59.499s-31.166 24.5 -56.499 24.5z" />
    <glyph glyph-name="rupee" unicode="&#x20a8;" horiz-adv-x="660" 
d="M58 230v144h253c36 0 59.333 17 70 51h-323v71h322c-12 31.333 -35 47 -69 47h-253v146h558v-71h-119c30 -33.333 48.333 -74 55 -122h64v-71h-63c-6 -45.333 -22.833 -85 -50.5 -119s-65.167 -56.667 -112.5 -68l168 -238h-194l-148 230h-158z" />
    <glyph glyph-name="uni20A9" unicode="&#x20a9;" horiz-adv-x="984" 
d="M853 440h78v-71h-102l-19 -56h121v-71h-145l-82 -242h-129l-87 335l-84 -335h-130l-82 242h-137v71h113l-19 56h-94v71h70l-83 249h181l119 -392l78 293h139l77 -293l120 392h182z" />
    <glyph glyph-name="afii57636" unicode="&#x20aa;" horiz-adv-x="1024" 
d="M720 332l-0.000976562 -101.999h-161v66c0 22.667 -8.5 42 -25.5 58s-39.833 24 -68.5 24h-223v-378h-160v542h398c74.667 0 133.334 -19.333 176.001 -58s64 -89.334 64 -152.001zM303.999 210.001l0.000976562 101.999h161v-66c0 -22.667 8.5 -42 25.5 -58
s39.833 -24 68.5 -24h223v378h160v-542h-398c-74.667 -0 -133.334 19.333 -176.001 58s-64 89.334 -64 152.001z" />
    <glyph glyph-name="Euro" unicode="&#x20ac;" horiz-adv-x="834" 
d="M527 323l-0.000976562 -65.999h-211c14.667 -34 36.834 -60.667 66.501 -80s63.167 -29 100.5 -29c36 0 68.667 8.66699 98 26s52 40.666 68 69.999l140 -89c-28.667 -50.667 -70 -90.667 -124 -120s-114.667 -44 -182 -44c-83.333 0 -156.5 24.833 -219.5 74.5
s-104.167 113.5 -123.5 191.5h-99v66h486zM319.999 439.001h206.999v-66h-486v66h101c19.333 76 60.5 138.167 123.5 186.5s135.5 72.5 217.5 72.5c66.667 0 126.5 -14.167 179.5 -42.5s93.833 -66.833 122.5 -115.5l-141 -89c-16 28 -38 49.833 -66 65.5
s-59.667 23.5 -95 23.5c-36.667 0 -69.167 -9 -97.5 -27s-50.166 -42.667 -65.499 -74z" />
    <glyph glyph-name="uni2113" unicode="&#x2113;" horiz-adv-x="404" 
d="M264 111l75 -0.000976562v-111h-129c-102.667 0 -154 58 -154 174v349c0 116 51.333 174 154 174c101.333 0 152 -61.333 152 -184v-185c0 -25.333 -2 -46.166 -6 -62.499s-11.667 -31.833 -23 -46.5s-28.5 -25.334 -51.5 -32.001s-52.5 -10 -88.5 -10
c0 -8.66699 0.666992 -16.167 2 -22.5s4 -13.166 8 -20.499s11.167 -13 21.5 -17s23.5 -6 39.5 -6zM188 525.999l-0.000976562 -240h9c10 0 17.667 2.5 23 7.5s8.33301 10 9 15s1 12.167 1 21.5v197c0 34 -6.33301 51 -19 51c-7.33301 0 -12.666 -2.83301 -15.999 -8.5
s-5.33301 -11.5 -6 -17.5s-1 -14.667 -1 -26z" />
    <glyph glyph-name="afii61352" unicode="&#x2116;" horiz-adv-x="977" 
d="M606 689h-167v-371l-206 371h-151v-689h167v376l211 -376h146v689zM668 563c0 37.333 12.833 69 38.5 95s57.167 39 94.5 39c36.667 0 68.167 -13.167 94.5 -39.5s39.5 -57.833 39.5 -94.5c0 -37.333 -13 -68.833 -39 -94.5s-57.667 -38.5 -95 -38.5
s-68.833 12.833 -94.5 38.5s-38.5 57.167 -38.5 94.5zM743 563c0 -16.667 5.5 -30.5 16.5 -41.5s24.833 -16.5 41.5 -16.5c16 0 29.833 5.66699 41.5 17s17.5 25 17.5 41s-5.83301 29.833 -17.5 41.5s-25.5 17.5 -41.5 17.5s-29.667 -5.83301 -41 -17.5s-17 -25.5 -17 -41.5
zM674 318v67h254v-67h-254z" />
    <glyph glyph-name="trademark" unicode="&#x2122;" horiz-adv-x="842" 
d="M328 323l35 283h-95v-283h-92v283h-116v83h388l105 -215l103 215h79l44 -366h-93l-23 203l-76 -163h-66l-78 164l-23 -204h-92z" />
    <glyph glyph-name="estimated" unicode="&#x212e;" horiz-adv-x="641" 
d="M602 279l-429.001 -0.00195312v-193c44 -42 94.667 -63 152 -63c50.667 0 91.667 11 123 33s60.333 53.333 87 94l31 -19c-29.333 -45.333 -62.333 -80.166 -99 -104.499s-84 -36.5 -142 -36.5c-79.333 0 -144.333 28.167 -195 84.5s-76 124.833 -76 205.5
c0 82 25 150.833 75 206.5s116.667 83.5 200 83.5c82.667 0 148.834 -28.167 198.501 -84.5s74.5 -125.166 74.5 -206.499zM481.999 311.998v163c-45.333 41.333 -96.333 62 -153 62c-64 0 -116 -20.667 -156 -62v-163h309z" />
    <glyph glyph-name="minus" unicode="&#x2212;" horiz-adv-x="502" 
d="M436 315v-110h-370v110h370z" />
    <glyph glyph-name="notequal" unicode="&#x2260;" horiz-adv-x="596" 
d="M527 165h-267l-50 -103h-70l50 103h-123v102h173l49 102h-222v102h273l44 91h71l-44 -91h116v-102h-166l-51 -102h217v-102z" />
    <glyph glyph-name="lessequal" unicode="&#x2264;" horiz-adv-x="631" 
d="M561 155l-500 192v122l500 191v-115l-353 -138l353 -136v-116zM61 0v101h501v-101h-501z" />
    <glyph glyph-name="greaterequal" unicode="&#x2265;" horiz-adv-x="631" 
d="M570 347l-500 -192v116l353 136l-353 138v115l500 -191v-122zM570 0v101h-501v-101h501z" />
    <glyph glyph-name="commaaccent" unicode="&#xf6c3;" horiz-adv-x="330" 
d="M142 -302l-72 42.001c22.667 31.333 38.667 61.666 48 90.999s14.333 67 15 113h128c-11.333 -107.333 -51 -189.333 -119 -246z" />
    <glyph glyph-name="rupiah" unicode="&#xf6dd;" horiz-adv-x="1240" 
d="M235 0h-167.001v689h285c76 0 134.333 -22.667 175 -68s61 -99.333 61 -162c0 -52 -14.167 -98.5 -42.5 -139.5s-69.166 -68.167 -122.499 -81.5l168 -238h-194l-148 230h-15v-230zM344.999 543l-110 0.000976562v-169h110c25.333 0 44.166 8.33301 56.499 25
s18.5 36.667 18.5 60s-6.16699 43.166 -18.5 59.499s-31.166 24.5 -56.499 24.5zM850.999 43.001l-0.000976562 -272.999h-159v696h150v-67c12.667 26 31.834 45.667 57.501 59s52.5 20 80.5 20c60.667 0 113.667 -22.333 159 -67s68 -103.334 68 -176.001
s-22.667 -131.5 -68 -176.5s-98.333 -67.5 -159 -67.5c-54.667 0 -97.667 17.333 -129 52zM1045 236.002c0 26.667 -9.5 49.5 -28.5 68.5s-41.833 28.5 -68.5 28.5c-26 0 -48.667 -10 -68 -30s-29 -43.333 -29 -70c0 -26 9.5 -48.167 28.5 -66.5s41.833 -27.5 68.5 -27.5
s49.5 9.5 68.5 28.5s28.5 41.833 28.5 68.5z" />
    <glyph glyph-name="apple" unicode="&#xf8ff;" horiz-adv-x="847" 
d="M767 687v-687h-687v687h687zM164 595v-377h81l-74 75v178l255 -253l256 253v-178l-74 -75h84v377l-266 -263zM179 132h-15v-53h9v37l13 -37h10l11 37v-37h9v53h-14l-9 -36zM248 132c-16.667 0 -25 -8.99902 -25 -26.999c0 -7.33301 2.16699 -13.5 6.5 -18.5
s10.5 -7.5 18.5 -7.5c7.33301 0 13 2.66699 17 8s6 11.333 6 18c0 7.33301 -2 13.666 -6 18.999s-9.66699 8 -17 8zM248 89.001c-4.66699 0 -8.66699 1.83301 -12 5.5s-5 7.16699 -5 10.5c0 4 1.66699 7.83301 5 11.5s7.33301 5.5 12 5.5c8 0 12 -5.66699 12 -17
c0 -10.667 -4 -16 -12 -16zM284 99.001h-13c0 -13.333 7.33301 -20 22 -20s22 5.66699 22 17c0 7.33301 -5 12 -15 14c-10.667 2 -16 4 -16 6c0 4 3 6 9 6c6.66699 0 10 -2 10 -6h9c0 10.667 -6.33301 16 -19 16s-19 -5.33301 -19 -16c0 -5.33301 5.33301 -10.333 16 -15
c8.66699 0 13 -1.66699 13 -5c0 -4.66699 -3.33301 -7 -10 -7c-6 0 -9 3.33301 -9 10zM315 122.001h17v-43h8v43h15v10h-40v-10zM377 132.001h-9l-22 -53h12l4 13h22l3 -13h11zM374 119.001l7 -18h-16l6 18h3zM426 132.001h-28v-53h9v22h13c6 0 9 -3 9 -9v-13h13
c-2 2 -3 6.33301 -3 13c0 6 -2.33301 10.333 -7 13c4.66699 2 7 5.66699 7 11c0 10.667 -4.33301 16 -13 16zM420 108.001h-13v14h13c6 0 9 -2 9 -6c0 -5.33301 -3 -8 -9 -8zM466 132.001h-20v-53h20c16.667 0 25 9.66699 25 29c0 16 -8.33301 24 -25 24zM466 89.001h-8v33
h4c11.333 0 17 -5.66699 17 -17c0 -4 -1.33301 -7.66699 -4 -11s-5.66699 -5 -9 -5zM531 132.001h-37v-53h40v10h-28v12h25v9h-25v12h25v10zM543 99.001h-9c0 -13.333 7.33301 -20 22 -20s22 5.66699 22 17c0 7.33301 -5 12 -15 14c-11.333 2 -17 4 -17 6c0 4 2.33301 6 7 6
c8 0 12 -2 12 -6h10c0 10.667 -6.33301 16 -19 16c-5.33301 0 -10.333 -1.5 -15 -4.5s-7 -6.83301 -7 -11.5s6.33301 -9.66699 19 -15c8 0 12 -1.66699 12 -5c0 -4.66699 -3 -7 -9 -7c-8.66699 0 -13 3.33301 -13 10zM589 132.001h-7v-53h7v53zM633 86.001l4 -7.00098h6v29
h-22v-9h12c-2.66699 -6.66699 -6.66699 -10 -12 -10c-4.66699 0 -8.5 1.83301 -11.5 5.5s-4.5 7.16699 -4.5 10.5c0 4 1.5 7.83301 4.5 11.5s6.83301 5.5 11.5 5.5c6 0 9 -3.33301 9 -10h13c-2.66699 13.333 -10 20 -22 20c-7.33301 0 -13.333 -2.66699 -18 -8
s-7 -11.666 -7 -18.999c0 -6.66699 2.33301 -12.667 7 -18s10.667 -8 18 -8c6 0 10 2.33301 12 7zM657 132h-8v-53h8v33l22 -33h13v53h-13v-33z" />
    <glyph glyph-name=".null" horiz-adv-x="0" 
 />
    <glyph glyph-name="nonmarkingreturn" horiz-adv-x="333" 
 />
    <glyph glyph-name="published" horiz-adv-x="792" 
d="M366 428h57c10.667 0 19.167 -4.16699 25.5 -12.5s9.5 -17.5 9.5 -27.5s-3.33301 -19.333 -10 -28s-15.667 -13 -27 -13h-55v81zM282 503v-336h84v106h58c38 0 67 11.333 87 34s30 49.667 30 81c0 32 -10 59.167 -30 81.5s-49 33.5 -87 33.5h-142zM47 343
c0 98 33.833 181.5 101.5 250.5s150.167 103.5 247.5 103.5s180 -34.5 248 -103.5s102 -152.5 102 -250.5s-34 -181.333 -102 -250s-150.667 -103 -248 -103s-179.833 34.333 -247.5 103s-101.5 152 -101.5 250zM125 343c0 -76 26.333 -140.667 79 -194s116.667 -80 192 -80
s139.333 26.667 192 80s79 118 79 194s-26.333 140.833 -79 194.5s-116.667 80.5 -192 80.5s-139.333 -26.833 -192 -80.5s-79 -118.5 -79 -194.5z" />
    <glyph glyph-name="frenchfranc" horiz-adv-x="754" 
d="M507 0h-148.001v300h-102v-300h-170v689h446v-146h-276v-106h250v-106c11.333 40.667 27.833 70 49.5 88s44.834 27 69.501 27c38.667 0 69.667 -5.66699 93 -17l-29 -143c-20.667 10.667 -44.667 16 -72 16c-38 0 -66 -13.833 -84 -41.5s-27 -72.167 -27 -133.5v-127z
" />
    <glyph glyph-name="parenleft.case" horiz-adv-x="397" 
d="M34 344c0 132 32.499 243.5 97.499 334.5s143.833 136.5 236.5 136.5v-116c-30 0 -61 -17.833 -93 -53.5s-58.5 -81.334 -79.5 -137.001s-31.5 -110.5 -31.5 -164.5c0 -53.333 10.5 -107 31.5 -161s47.333 -98 79 -132s62.834 -51 93.501 -51v-115
c-93.333 0 -172.333 43.833 -237 131.5s-97 196.834 -97 327.501z" />
    <glyph glyph-name="parenright.case" horiz-adv-x="397" 
d="M363 344c0 -130.667 -32.334 -239.834 -97.001 -327.501s-143.667 -131.5 -237 -131.5v115c30.667 0 61.834 17 93.501 51s58 78 79 132s31.5 107.667 31.5 161c0 54 -10.5 108.833 -31.5 164.5s-47.5 101.334 -79.5 137.001s-63 53.5 -93 53.5v116
c92.667 0 171.5 -45.5 236.5 -136.5s97.5 -202.5 97.5 -334.5z" />
    <glyph glyph-name="hyphen.case" horiz-adv-x="471" 
d="M413 293h-355v135h355v-135z" />
    <glyph glyph-name="at.case" horiz-adv-x="963" 
d="M577 224l-0.00292969 125c0 31.333 -10.833 57.833 -32.5 79.5s-47.834 32.5 -78.501 32.5c-30 0 -56 -10.833 -78 -32.5s-33 -48.167 -33 -79.5c0 -29.333 11 -55 33 -77s48 -33 78 -33c28.667 0 52.334 5.33301 71.001 16v-98c-17.333 -8.66699 -41 -13 -71 -13
c-57.333 0 -106.166 20 -146.499 60s-60.5 88.333 -60.5 145c0 58 20.167 107 60.5 147s89.166 60 146.499 60c56.667 0 105 -19.167 145 -57.5s61 -84.833 63 -139.5v-140c0 -20 5.66699 -35.167 17 -45.5s24.333 -15.5 39 -15.5c19.333 0 36 6.83301 50 20.5
s24.333 31.834 31 54.501s11.5 44.5 14.5 65.5s4.5 42.167 4.5 63.5c0 92.667 -34.667 170.167 -104 232.5s-152.666 93.5 -249.999 93.5c-94 0 -173.5 -33.5 -238.5 -100.5s-97.5 -148.167 -97.5 -243.5c0 -94.667 32.333 -174.667 97 -240s144.334 -98 239.001 -98h61v-97
h-61c-121.333 0 -223.666 42 -306.999 126s-125 187 -125 309s41.833 225.833 125.5 311.5s185.834 128.5 306.501 128.5c80.667 0 155.334 -18.167 224.001 -54.5s123.667 -87 165 -152s62 -136.833 62 -215.5c0 -32 -3.5 -64.333 -10.5 -97s-17.833 -64.334 -32.5 -95.001
s-35.334 -55.667 -62.001 -75s-57.334 -29 -92.001 -29c-44 0 -80.5 12.667 -109.5 38s-43.5 65.333 -43.5 120z" />
    <glyph glyph-name="bracketleft.case" horiz-adv-x="342" 
d="M68 -112v919h243v-108h-114v-700h114v-111h-243z" />
    <glyph glyph-name="bracketright.case" horiz-adv-x="342" 
d="M31 807h243v-919h-243v111h114v700h-114v108z" />
    <glyph glyph-name="braceleft.case" horiz-adv-x="414" 
d="M27 305v85c15.333 0 29.333 5.33301 42 16s19 25.667 19 45v154c-0.666992 60 18.833 108.667 58.5 146s88.167 56 145.5 56h93v-108h-80c-30.667 0 -53 -9.5 -67 -28.5s-21 -43.167 -21 -72.5v-136c0 -32.667 -9.83301 -59 -29.5 -79s-40.167 -32 -61.5 -36
c21.333 -3.33301 41.833 -15 61.5 -35s29.5 -46.333 29.5 -79v-136c0 -29.333 7 -53.5 21 -72.5s36.333 -28.5 67 -28.5h80v-108h-93c-57.333 0 -105.833 18.667 -145.5 56s-59.167 86 -58.5 146v154c0 19.333 -6.33301 34.333 -19 45s-26.667 16 -42 16z" />
    <glyph glyph-name="braceright.case" horiz-adv-x="414" 
d="M387 390v-85c-15.333 0 -29.333 -5.33301 -42 -16s-19 -25.667 -19 -45v-154c0.666992 -60 -18.833 -108.667 -58.5 -146s-88.167 -56 -145.5 -56h-93v108h80c30.667 0 53 9.5 67 28.5s21 43.167 21 72.5v136c0 32.667 9.83301 59 29.5 79s40.167 31.667 61.5 35
c-21.333 4 -41.833 16 -61.5 36s-29.5 46.333 -29.5 79v136c0 29.333 -7 53.5 -21 72.5s-36.333 28.5 -67 28.5h-80v108h93c57.333 0 105.833 -18.667 145.5 -56s59.167 -86 58.5 -146v-154c0 -19.333 6.33301 -34.333 19 -45s26.667 -16 42 -16z" />
    <glyph glyph-name="exclamdown.case" horiz-adv-x="295" 
d="M64 0l18 458h131l18 -458h-167zM52 606c0 26.667 9.16699 48.834 27.5 66.501s40.5 26.5 66.5 26.5c26.667 0 49.334 -8.83301 68.001 -26.5s28 -39.834 28 -66.501c0 -26 -9.33301 -47.667 -28 -65s-41.334 -26 -68.001 -26c-26 0 -48.167 8.66699 -66.5 26
s-27.5 39 -27.5 65z" />
    <glyph glyph-name="guillemotleft.case" horiz-adv-x="550" 
d="M45 351l138 207h119l-138 -207l138 -207h-119zM240 351l138 207h119l-138 -207l138 -207h-119z" />
    <glyph glyph-name="periodcentered.case" horiz-adv-x="289" 
d="M50 332c0 26 9.16699 47.667 27.5 65s40.5 26 66.5 26s48.333 -8.66699 67 -26s28 -39 28 -65c0 -26.667 -9.33301 -48.667 -28 -66s-41 -26 -67 -26c-26.667 0 -49 8.66699 -67 26s-27 39.333 -27 66z" />
    <glyph glyph-name="guillemotright.case" horiz-adv-x="550" 
d="M505 351l-138 -207h-119l138 207l-138 207h119zM310 351l-138 -207h-119l138 207l-138 207h119z" />
    <glyph glyph-name="questiondown.case" horiz-adv-x="496" 
d="M216 459l143.002 0.000976562v-12c0 -23.333 -0.833008 -42.333 -2.5 -57s-5.83398 -30.667 -12.501 -48s-17.334 -32.5 -32.001 -45.5s-33.667 -24.5 -57 -34.5l-37 -16c-22.667 -9.33301 -34 -26 -34 -50c0 -17.333 6 -30.666 18 -39.999s28 -14 48 -14
c17.333 0 32.333 6 45 18s19 27.333 19 46h144c0 -69.333 -19 -122.5 -57 -159.5s-89.333 -55.5 -154 -55.5c-63.333 0 -114.333 17.667 -153 53s-58 82.666 -58 141.999c0 47.333 11.333 87 34 119s54 55.333 94 70c20 7.33301 33.667 17.166 41 29.499s11 30.5 11 54.5z
M380.002 605.001c0 -26 -9.16699 -47.667 -27.5 -65s-40.5 -26 -66.5 -26c-26.667 0 -49.334 8.66699 -68.001 26s-28 39 -28 65c0 26.667 9.33301 48.834 28 66.501s41.334 26.5 68.001 26.5c26 0 48.167 -8.83301 66.5 -26.5s27.5 -39.834 27.5 -66.501z" />
    <glyph glyph-name="endash.case" horiz-adv-x="656" 
d="M597 282h-538v135h538v-135z" />
    <glyph glyph-name="emdash.case" horiz-adv-x="872" 
d="M813 282h-754v135h754v-135z" />
    <glyph glyph-name="bullet.case" horiz-adv-x="472" 
d="M72 344c0 44.667 16 82.167 48 112.5s70.667 45.5 116 45.5s84 -15.167 116 -45.5s48 -67.833 48 -112.5c0 -45.333 -16 -83.166 -48 -113.499s-70.667 -45.5 -116 -45.5s-84 15.167 -116 45.5s-48 68.166 -48 113.499z" />
    <glyph glyph-name="guilsinglleft.case" horiz-adv-x="355" 
d="M45 351l138 207h119l-138 -207l138 -207h-119z" />
    <glyph glyph-name="guilsinglright.case" horiz-adv-x="355" 
d="M310 351l-138 -207h-119l138 207l-138 207h119z" />
    <glyph glyph-name="cent.case" horiz-adv-x="542" 
d="M245 581v118.001h77v-115c73.333 -7.33301 133 -45 179 -113l-130 -78c-18.667 30.667 -46 46 -82 46c-26.667 0 -49.5 -9.5 -68.5 -28.5s-28.5 -41.833 -28.5 -68.5s9.5 -49.5 28.5 -68.5s41.833 -28.5 68.5 -28.5c33.333 0 60 14.333 80 43l133 -74
c-46.667 -68.667 -106.667 -106.334 -180 -113.001v-110h-77v113c-60 10 -109.667 36.333 -149 79s-59 95.667 -59 159c0 62.667 19.667 115.5 59 158.5s89 69.833 149 80.5z" />
    <glyph glyph-name="zero.tnum" 
d="M203 327c0 -54 7.16699 -97.833 21.5 -131.5s36.833 -50.5 67.5 -50.5c56.667 0 85 60.667 85 182c0 122.667 -28.333 184 -85 184c-30.667 0 -53.167 -17 -67.5 -51s-21.5 -78.333 -21.5 -133zM43 327c0 226 83 339 249 339c46 0 85.5 -8.5 118.5 -25.5
s58.333 -41.5 76 -73.5s30.5 -67.5 38.5 -106.5s12 -83.5 12 -133.5c0 -224 -81.667 -336 -245 -336c-166 0 -249 112 -249 336z" />
    <glyph glyph-name="one.tnum" 
d="M128 531l278 140v-671h-163v446l-115 -52v137z" />
    <glyph glyph-name="two.tnum" 
d="M515 144v-143.999h-461v90l271 314c20 22.667 30 42.667 30 60c0 14 -5.5 26.333 -16.5 37s-28.5 16 -52.5 16c-26.667 0 -46 -7.83301 -58 -23.5s-20.333 -37.5 -25 -65.5l-144 22c10.667 67.333 36.667 120.166 78 158.499s95 57.5 161 57.5
c59.333 0 110.333 -19 153 -57s64 -86.333 64 -145c0 -59.333 -22.667 -114 -68 -164l-145 -156h213z" />
    <glyph glyph-name="three.tnum" 
d="M258 278l-66.999 -0.00292969v123h67c15.333 0 28.166 3 38.499 9s17.5 13.833 21.5 23.5s6.5 17.5 7.5 23.5s1.5 11.667 1.5 17c0 10.667 -5.83301 23.167 -17.5 37.5s-28.5 21.5 -50.5 21.5c-33.333 0 -63 -13.667 -89 -41l-94 77c20.667 31.333 49.667 56 87 74
s78.333 25.667 123 23c58 -2.66699 106 -22.167 144 -58.5s56.333 -78.5 55 -126.5c0 -53.333 -28.667 -95.666 -86 -126.999c36 -13.333 64.167 -34 84.5 -62s30.5 -60 30.5 -96c0 -63.333 -24.667 -113.166 -74 -149.499s-109 -54.5 -179 -54.5
c-48 0 -90.833 10.667 -128.5 32s-65.5 51 -83.5 89l102 90c8 -18 21.333 -34.5 40 -49.5s42 -22.5 70 -22.5c31.333 0 55 7.33301 71 22s24 32.334 24 53.001c0 20 -8.33301 37 -25 51s-41 21 -73 21z" />
    <glyph glyph-name="four.tnum" 
d="M557 283v-131h-78v-152h-162v152h-323l283 504h202v-373h78zM317 502l-117 -219h117v219z" />
    <glyph glyph-name="five.tnum" 
d="M388 239c0 28.667 -10.166 51.166 -30.499 67.499s-46.5 24.5 -78.5 24.5c-62 0 -116 -23.333 -162 -70l-69 39l52 356h398v-139h-272l-14 -89c35.333 24 75.666 36 120.999 36c59.333 0 109.666 -20.667 150.999 -62s62 -95.666 62 -162.999
c0 -72 -25.5 -131.5 -76.5 -178.5s-118.833 -70.5 -203.5 -70.5c-44.667 0 -88.667 11.5 -132 34.5s-78.666 53.167 -105.999 90.5l124 90c36 -42.667 74 -64 114 -64c34 0 62.833 10.333 86.5 31s35.5 43 35.5 67z" />
    <glyph glyph-name="six.tnum" 
d="M336 421c20 0 40.9971 -3.66602 62.9971 -10.999s44 -18.333 66 -33s40.167 -36.167 54.5 -64.5s21.5 -60.833 21.5 -97.5c0 -66 -22 -119.833 -66 -161.5s-105.667 -62.5 -185 -62.5c-63.333 0 -116.833 20.667 -160.5 62s-70.167 97 -79.5 167
c-6 33.333 -8.33301 67.666 -7 102.999s4.33301 69.833 9 103.5s14.167 65.167 28.5 94.5s31.5 55 51.5 77s46.333 39.167 79 51.5s69.334 17.833 110.001 16.5c46.667 -2 87.334 -12.167 122.001 -30.5s63.334 -50.833 86.001 -97.5l-130 -62c-16 34 -43.667 51 -83 51
c-23.333 0 -43.333 -5.83301 -60 -17.5s-29.167 -27.167 -37.5 -46.5s-14.5 -38.333 -18.5 -57s-6 -38 -6 -58c4 16 18.167 32.167 42.5 48.5s57.5 24.5 99.5 24.5zM216.997 212.001c0 -22 7.49805 -40.667 22.498 -56s34.833 -23 59.5 -23s44.834 7.66699 60.501 23
s23.5 34 23.5 56c0 19.333 -7.66699 36.833 -23 52.5s-35.666 23.5 -60.999 23.5c-23.333 0 -42.833 -7.83301 -58.5 -23.5s-23.5 -33.167 -23.5 -52.5z" />
    <glyph glyph-name="seven.tnum" 
d="M55 511v145h496l-262 -656h-180l205 511h-259z" />
    <glyph glyph-name="eight.tnum" 
d="M194 220c0 -24.667 8.83008 -45.166 26.4971 -61.499s40.834 -24.5 69.501 -24.5s51.667 8.16699 69 24.5s26 36.833 26 61.5c0 22 -8.66699 41.5 -26 58.5s-38.666 25.5 -63.999 25.5h-8c-27.333 0 -49.666 -8.33301 -66.999 -25s-26 -36.334 -26 -59.001z
M72.9971 487.001c0 51.333 21.332 94.0029 63.999 128.003s93.667 51 153 51c58.667 0 108.334 -16.833 149.001 -50.5s61 -76.5 61 -128.5c0 -24.667 -5.16699 -48.334 -15.5 -71.001s-24.5 -38.334 -42.5 -47.001c29.333 -9.33301 54.333 -30.333 75 -63
s31 -66.667 31 -102c0 -62.667 -25 -113.834 -75 -153.501s-111 -59.5 -183 -59.5s-133.167 19.833 -183.5 59.5s-75.5 90.834 -75.5 153.501c0 37.333 9 71.333 27 102s43 51.667 75 63c-18 11.333 -32.5 28.166 -43.5 50.499s-16.5 44.833 -16.5 67.5zM222.996 481.004
c0 -17.333 6.16699 -31.666 18.5 -42.999s28.5 -17 48.5 -17c19.333 0 35 5.66699 47 17s18 25.666 18 42.999c0 14.667 -5.83301 28 -17.5 40s-26.167 18 -43.5 18h-6c-18.667 0 -34.167 -5.83301 -46.5 -17.5s-18.5 -25.167 -18.5 -40.5z" />
    <glyph glyph-name="nine.tnum" 
d="M243 236c-20 0 -40.9971 3.66602 -62.9971 10.999s-44 18.333 -66 33s-40.167 36.167 -54.5 64.5s-21.5 60.833 -21.5 97.5c0 66 22 119.833 66 161.5s105.667 62.5 185 62.5c63.333 0 116.833 -20.667 160.5 -62s70.167 -97 79.5 -167
c6 -33.333 8.33301 -67.666 7 -102.999s-4.33301 -69.833 -9 -103.5s-14.167 -65.167 -28.5 -94.5s-31.5 -55 -51.5 -77s-46.333 -39.167 -79 -51.5s-69.334 -17.833 -110.001 -16.5c-46.667 2 -87.334 12.167 -122.001 30.5s-63.334 50.833 -86.001 97.5l130 62
c16 -34 43.667 -51 83 -51c23.333 0 43.333 5.83301 60 17.5s29.167 27.167 37.5 46.5s14.5 38.333 18.5 57s6 38 6 58c-4 -16 -18.167 -32.167 -42.5 -48.5s-57.5 -24.5 -99.5 -24.5zM362.003 444.999c0 22 -7.49805 40.667 -22.498 56s-34.833 23 -59.5 23
s-44.834 -7.66699 -60.501 -23s-23.5 -34 -23.5 -56c0 -19.333 7.66699 -36.833 23 -52.5s35.666 -23.5 60.999 -23.5c23.333 0 42.833 7.83301 58.5 23.5s23.5 33.167 23.5 52.5z" />
    <glyph glyph-name="zero.taboldstyle" 
d="M290 -9c-68 0 -127 24 -177 72s-75 109.333 -75 184c0 76 25 137.667 75 185s109 71 177 71c69.333 0 128.5 -23.667 177.5 -71s73.5 -109 73.5 -185c0 -74.667 -24.667 -136 -74 -184s-108.333 -72 -177 -72zM290 131c28 0 53.333 11 76 33s34 49.667 34 83
c0 34 -11.333 61.667 -34 83s-48 32 -76 32c-28.667 0 -54 -10.667 -76 -32s-33 -49 -33 -83c0 -33.333 11 -61 33 -83s47.333 -33 76 -33z" />
    <glyph glyph-name="one.taboldstyle" 
d="M406 514v-514h-142v303l-124 -58v131z" />
    <glyph glyph-name="two.taboldstyle" 
d="M497 132l-0.000976562 -131.999h-418v73l233 224c14.667 14 22 27.667 22 41c0 9.33301 -4.66699 17.666 -14 24.999s-21.666 11 -36.999 11c-33.333 0 -52.333 -18.667 -57 -56l-145 15c8 52 28 93.333 60 124s78 46 138 46c64 0 115.333 -14.5 154 -43.5
s58 -64.167 58 -105.5c0 -27.333 -4.33301 -49.5 -13 -66.5s-25.667 -36.5 -51 -58.5l-110 -97h180z" />
    <glyph glyph-name="six.taboldstyle" 
d="M336 421c20 0 40.9971 -3.66602 62.9971 -10.999s44 -18.333 66 -33s40.167 -36.167 54.5 -64.5s21.5 -60.833 21.5 -97.5c0 -66 -22 -119.833 -66 -161.5s-105.667 -62.5 -185 -62.5c-63.333 0 -116.833 20.667 -160.5 62s-70.167 97 -79.5 167
c-6 33.333 -8.33301 67.666 -7 102.999s4.33301 69.833 9 103.5s14.167 65.167 28.5 94.5s31.5 55 51.5 77s46.333 39.167 79 51.5s69.334 17.833 110.001 16.5c46.667 -2 87.334 -12.167 122.001 -30.5s63.334 -50.833 86.001 -97.5l-130 -62c-16 34 -43.667 51 -83 51
c-23.333 0 -43.333 -5.83301 -60 -17.5s-29.167 -27.167 -37.5 -46.5s-14.5 -38.333 -18.5 -57s-6 -38 -6 -58c4 16 18.167 32.167 42.5 48.5s57.5 24.5 99.5 24.5zM216.997 212.001c0 -22 7.49805 -40.667 22.498 -56s34.833 -23 59.5 -23s44.834 7.66699 60.501 23
s23.5 34 23.5 56c0 19.333 -7.66699 36.833 -23 52.5s-35.666 23.5 -60.999 23.5c-23.333 0 -42.833 -7.83301 -58.5 -23.5s-23.5 -33.167 -23.5 -52.5z" />
    <glyph glyph-name="eight.taboldstyle" 
d="M195 220c0 -24.667 8.83008 -45.166 26.4971 -61.499s40.834 -24.5 69.501 -24.5s51.667 8.16699 69 24.5s26 36.833 26 61.5c0 22 -8.66699 41.5 -26 58.5s-38.666 25.5 -63.999 25.5h-8c-27.333 0 -49.666 -8.33301 -66.999 -25s-26 -36.334 -26 -59.001z
M73.9971 487.001c0 51.333 21.332 94.0029 63.999 128.003s93.667 51 153 51c58.667 0 108.334 -16.833 149.001 -50.5s61 -76.5 61 -128.5c0 -24.667 -5.16699 -48.334 -15.5 -71.001s-24.5 -38.334 -42.5 -47.001c29.333 -9.33301 54.333 -30.333 75 -63
s31 -66.667 31 -102c0 -62.667 -25 -113.834 -75 -153.501s-111 -59.5 -183 -59.5s-133.167 19.833 -183.5 59.5s-75.5 90.834 -75.5 153.501c0 37.333 9 71.333 27 102s43 51.667 75 63c-18 11.333 -32.5 28.166 -43.5 50.499s-16.5 44.833 -16.5 67.5zM223.996 481.004
c0 -17.333 6.16699 -31.666 18.5 -42.999s28.5 -17 48.5 -17c19.333 0 35 5.66699 47 17s18 25.666 18 42.999c0 14.667 -5.83301 28 -17.5 40s-26.167 18 -43.5 18h-6c-18.667 0 -34.167 -5.83301 -46.5 -17.5s-18.5 -25.167 -18.5 -40.5z" />
    <glyph glyph-name="three.taboldstyle" 
d="M261 89l-66.999 -0.00292969v123h67c15.333 0 28.166 3 38.499 9s17.5 13.833 21.5 23.5s6.5 17.5 7.5 23.5s1.5 11.667 1.5 17c0 10.667 -5.83301 23.167 -17.5 37.5s-28.5 21.5 -50.5 21.5c-33.333 0 -63 -13.667 -89 -41l-94 77c20.667 31.333 49.667 56 87 74
s78.333 25.667 123 23c58 -2.66699 106 -22.167 144 -58.5s56.333 -78.5 55 -126.5c0 -53.333 -28.667 -95.666 -86 -126.999c36 -13.333 64.167 -34 84.5 -62s30.5 -60 30.5 -96c0 -63.333 -24.667 -113.166 -74 -149.499s-109 -54.5 -179 -54.5
c-48 0 -90.833 10.667 -128.5 32s-65.5 51 -83.5 89l102 90c8 -18 21.333 -34.5 40 -49.5s42 -22.5 70 -22.5c31.333 0 55 7.33301 71 22s24 32.334 24 53.001c0 20 -8.33301 37 -25 51s-41 21 -73 21z" />
    <glyph glyph-name="four.taboldstyle" 
d="M560 93v-131h-78v-152h-162v152h-323l283 504h202v-373h78zM320 312l-117 -219h117v219z" />
    <glyph glyph-name="five.taboldstyle" 
d="M389 49c0 28.667 -10.166 51.166 -30.499 67.499s-46.5 24.5 -78.5 24.5c-62 0 -116 -23.333 -162 -70l-69 39l52 356h398v-139h-272l-14 -89c35.333 24 75.666 36 120.999 36c59.333 0 109.666 -20.667 150.999 -62s62 -95.666 62 -162.999
c0 -72 -25.5 -131.5 -76.5 -178.5s-118.833 -70.5 -203.5 -70.5c-44.667 0 -88.667 11.5 -132 34.5s-78.666 53.167 -105.999 90.5l124 90c36 -42.667 74 -64 114 -64c34 0 62.833 10.333 86.5 31s35.5 43 35.5 67z" />
    <glyph glyph-name="seven.taboldstyle" 
d="M57 321v145h496l-262 -656h-180l205 511h-259z" />
    <glyph glyph-name="nine.taboldstyle" 
d="M245 48c-20 0 -40.9971 3.66602 -62.9971 10.999s-44 18.333 -66 33s-40.167 36.167 -54.5 64.5s-21.5 60.833 -21.5 97.5c0 66 22 119.833 66 161.5s105.667 62.5 185 62.5c63.333 0 116.833 -20.667 160.5 -62s70.167 -97 79.5 -167
c6 -33.333 8.33301 -67.666 7 -102.999s-4.33301 -69.833 -9 -103.5s-14.167 -65.167 -28.5 -94.5s-31.5 -55 -51.5 -77s-46.333 -39.167 -79 -51.5s-69.334 -17.833 -110.001 -16.5c-46.667 2 -87.334 12.167 -122.001 30.5s-63.334 50.833 -86.001 97.5l130 62
c16 -34 43.667 -51 83 -51c23.333 0 43.333 5.83301 60 17.5s29.167 27.167 37.5 46.5s14.5 38.333 18.5 57s6 38 6 58c-4 -16 -18.167 -32.167 -42.5 -48.5s-57.5 -24.5 -99.5 -24.5zM364.003 256.999c0 22 -7.49805 40.667 -22.498 56s-34.833 23 -59.5 23
s-44.834 -7.66699 -60.501 -23s-23.5 -34 -23.5 -56c0 -19.333 7.66699 -36.833 23 -52.5s35.666 -23.5 60.999 -23.5c23.333 0 42.833 7.83301 58.5 23.5s23.5 33.167 23.5 52.5z" />
    <glyph glyph-name="zero.oldstyle" horiz-adv-x="592" 
d="M296 -9c-68 0 -127 24 -177 72s-75 109.333 -75 184c0 76 25 137.667 75 185s109 71 177 71c69.333 0 128.5 -23.667 177.5 -71s73.5 -109 73.5 -185c0 -74.667 -24.667 -136 -74 -184s-108.333 -72 -177 -72zM296 131c28 0 53.333 11 76 33s34 49.667 34 83
c0 34 -11.333 61.667 -34 83s-48 32 -76 32c-28.667 0 -54 -10.667 -76 -32s-33 -49 -33 -83c0 -33.333 11 -61 33 -83s47.333 -33 76 -33z" />
    <glyph glyph-name="one.oldstyle" horiz-adv-x="376" 
d="M304 514v-514h-142v303l-124 -58v131z" />
    <glyph glyph-name="two.oldstyle" horiz-adv-x="520" 
d="M467 132l-0.000976562 -131.999h-418v73l233 224c14.667 14 22 27.667 22 41c0 9.33301 -4.66699 17.666 -14 24.999s-21.666 11 -36.999 11c-33.333 0 -52.333 -18.667 -57 -56l-145 15c8 52 28 93.333 60 124s78 46 138 46c64 0 115.333 -14.5 154 -43.5
s58 -64.167 58 -105.5c0 -27.333 -4.33301 -49.5 -13 -66.5s-25.667 -36.5 -51 -58.5l-110 -97h180z" />
    <glyph glyph-name="three.oldstyle" horiz-adv-x="528" 
d="M235 89l-66.999 -0.00292969v123h67c15.333 0 28.166 3 38.499 9s17.5 13.833 21.5 23.5s6.5 17.5 7.5 23.5s1.5 11.667 1.5 17c0 10.667 -5.83301 23.167 -17.5 37.5s-28.5 21.5 -50.5 21.5c-33.333 0 -63 -13.667 -89 -41l-94 77c20.667 31.333 49.667 56 87 74
s78.333 25.667 123 23c58 -2.66699 106 -22.167 144 -58.5s56.333 -78.5 55 -126.5c0 -53.333 -28.667 -95.666 -86 -126.999c36 -13.333 64.167 -34 84.5 -62s30.5 -60 30.5 -96c0 -63.333 -24.667 -113.166 -74 -149.499s-109 -54.5 -179 -54.5
c-48 0 -90.833 10.667 -128.5 32s-65.5 51 -83.5 89l102 90c8 -18 21.333 -34.5 40 -49.5s42 -22.5 70 -22.5c31.333 0 55 7.33301 71 22s24 32.334 24 53.001c0 20 -8.33301 37 -25 51s-41 21 -73 21z" />
    <glyph glyph-name="four.oldstyle" horiz-adv-x="612" 
d="M576 93v-131h-78v-152h-162v152h-323l283 504h202v-373h78zM336 312l-117 -219h117v219z" />
    <glyph glyph-name="five.oldstyle" horiz-adv-x="586" 
d="M392 49c0 28.667 -10.166 51.166 -30.499 67.499s-46.5 24.5 -78.5 24.5c-62 0 -116 -23.333 -162 -70l-69 39l52 356h398v-139h-272l-14 -89c35.333 24 75.666 36 120.999 36c59.333 0 109.666 -20.667 150.999 -62s62 -95.666 62 -162.999
c0 -72 -25.5 -131.5 -76.5 -178.5s-118.833 -70.5 -203.5 -70.5c-44.667 0 -88.667 11.5 -132 34.5s-78.666 53.167 -105.999 90.5l124 90c36 -42.667 74 -64 114 -64c34 0 62.833 10.333 86.5 31s35.5 43 35.5 67z" />
    <glyph glyph-name="six.oldstyle" horiz-adv-x="598" 
d="M345 421c20 0 40.9971 -3.66602 62.9971 -10.999s44 -18.333 66 -33s40.167 -36.167 54.5 -64.5s21.5 -60.833 21.5 -97.5c0 -66 -22 -119.833 -66 -161.5s-105.667 -62.5 -185 -62.5c-63.333 0 -116.833 20.667 -160.5 62s-70.167 97 -79.5 167
c-6 33.333 -8.33301 67.666 -7 102.999s4.33301 69.833 9 103.5s14.167 65.167 28.5 94.5s31.5 55 51.5 77s46.333 39.167 79 51.5s69.334 17.833 110.001 16.5c46.667 -2 87.334 -12.167 122.001 -30.5s63.334 -50.833 86.001 -97.5l-130 -62c-16 34 -43.667 51 -83 51
c-23.333 0 -43.333 -5.83301 -60 -17.5s-29.167 -27.167 -37.5 -46.5s-14.5 -38.333 -18.5 -57s-6 -38 -6 -58c4 16 18.167 32.167 42.5 48.5s57.5 24.5 99.5 24.5zM225.997 212.001c0 -22 7.49805 -40.667 22.498 -56s34.833 -23 59.5 -23s44.834 7.66699 60.501 23
s23.5 34 23.5 56c0 19.333 -7.66699 36.833 -23 52.5s-35.666 23.5 -60.999 23.5c-23.333 0 -42.833 -7.83301 -58.5 -23.5s-23.5 -33.167 -23.5 -52.5z" />
    <glyph glyph-name="seven.oldstyle" horiz-adv-x="527" 
d="M31 321v145h496l-262 -656h-180l205 511h-259z" />
    <glyph glyph-name="eight.oldstyle" horiz-adv-x="611" 
d="M210 220c0 -24.667 8.83008 -45.166 26.4971 -61.499s40.834 -24.5 69.501 -24.5s51.667 8.16699 69 24.5s26 36.833 26 61.5c0 22 -8.66699 41.5 -26 58.5s-38.666 25.5 -63.999 25.5h-8c-27.333 0 -49.666 -8.33301 -66.999 -25s-26 -36.334 -26 -59.001z
M88.9971 487.001c0 51.333 21.332 94.0029 63.999 128.003s93.667 51 153 51c58.667 0 108.334 -16.833 149.001 -50.5s61 -76.5 61 -128.5c0 -24.667 -5.16699 -48.334 -15.5 -71.001s-24.5 -38.334 -42.5 -47.001c29.333 -9.33301 54.333 -30.333 75 -63
s31 -66.667 31 -102c0 -62.667 -25 -113.834 -75 -153.501s-111 -59.5 -183 -59.5s-133.167 19.833 -183.5 59.5s-75.5 90.834 -75.5 153.501c0 37.333 9 71.333 27 102s43 51.667 75 63c-18 11.333 -32.5 28.166 -43.5 50.499s-16.5 44.833 -16.5 67.5zM238.996 481.004
c0 -17.333 6.16699 -31.666 18.5 -42.999s28.5 -17 48.5 -17c19.333 0 35 5.66699 47 17s18 25.666 18 42.999c0 14.667 -5.83301 28 -17.5 40s-26.167 18 -43.5 18h-6c-18.667 0 -34.167 -5.83301 -46.5 -17.5s-18.5 -25.167 -18.5 -40.5z" />
    <glyph glyph-name="nine.oldstyle" horiz-adv-x="579" 
d="M245 48c-20 0 -40.9971 3.66602 -62.9971 10.999s-44 18.333 -66 33s-40.167 36.167 -54.5 64.5s-21.5 60.833 -21.5 97.5c0 66 22 119.833 66 161.5s105.667 62.5 185 62.5c63.333 0 116.833 -20.667 160.5 -62s70.167 -97 79.5 -167
c6 -33.333 8.33301 -67.666 7 -102.999s-4.33301 -69.833 -9 -103.5s-14.167 -65.167 -28.5 -94.5s-31.5 -55 -51.5 -77s-46.333 -39.167 -79 -51.5s-69.334 -17.833 -110.001 -16.5c-46.667 2 -87.334 12.167 -122.001 30.5s-63.334 50.833 -86.001 97.5l130 62
c16 -34 43.667 -51 83 -51c23.333 0 43.333 5.83301 60 17.5s29.167 27.167 37.5 46.5s14.5 38.333 18.5 57s6 38 6 58c-4 -16 -18.167 -32.167 -42.5 -48.5s-57.5 -24.5 -99.5 -24.5zM364.003 256.999c0 22 -7.49805 40.667 -22.498 56s-34.833 23 -59.5 23
s-44.834 -7.66699 -60.501 -23s-23.5 -34 -23.5 -56c0 -19.333 7.66699 -36.833 23 -52.5s35.666 -23.5 60.999 -23.5c23.333 0 42.833 7.83301 58.5 23.5s23.5 33.167 23.5 52.5z" />
    <glyph glyph-name="Lslash.sc" horiz-adv-x="455" 
d="M443 132v-132h-362v214l-64 -39v86l64 39v290h154v-195l86 55v-86l-86 -56v-176h208z" />
    <glyph glyph-name="Zcaron.sc" horiz-adv-x="536" 
d="M446 788l-96 -153h-140l-96 153h98l68 -76l68 76h98zM43 110l244 348h-233v132h433v-111l-249 -347h249v-132h-444v110z" />
    <glyph glyph-name="exclam.sc" horiz-adv-x="305" 
d="M93 204l-15 386h149l-14 -386h-120zM67 77c0 23.333 8.16895 42.666 24.502 57.999s36.166 23 59.499 23c24 0 44.333 -7.66699 61 -23s25 -34.666 25 -57.999c0 -24 -8.33301 -44 -25 -60s-37 -24 -61 -24c-22.667 0 -42.334 8 -59.001 24s-25 36 -25 60z" />
    <glyph glyph-name="ampersand.sc" horiz-adv-x="622" 
d="M357 234v2h-81c-26.667 0 -45.334 -10.667 -56.001 -32c-7.33301 -16 -5.66602 -32 5.00098 -48s30 -24 58 -24c5.33301 0 11.333 1.16699 18 3.5s14.667 6.5 24 12.5s17 16.5 23 31.5s9 33.167 9 54.5zM231 -8c-56.667 0 -101.001 15.6689 -133.001 47.002
s-48 72.333 -48 123c0 35.333 9.16699 65.166 27.5 89.499s40.833 41.166 67.5 50.499c-22.667 7.33301 -42.167 23.666 -58.5 48.999s-24.5 53.666 -24.5 84.999c0 43.333 16.667 79.833 50 109.5s77.333 46.834 132 51.501c36.667 2.66699 71 -2.66602 103 -15.999
s59 -32.333 81 -57l-106 -91c-11.333 16.667 -25.666 25 -42.999 25c-18.667 0 -32.834 -5.16699 -42.501 -15.5s-14.5 -20.5 -14.5 -30.5c0 -36 21.667 -54 65 -54h70v58h132v-64h75v-105h-75v-63c0 -57.333 12.333 -86 37 -86c12 0 31 9 57 27v-105
c-39.333 -18 -73.666 -27 -102.999 -27c-54 0 -87.333 23.667 -100 71c-14 -22 -35.5 -39.5 -64.5 -52.5s-57.167 -19.5 -84.5 -19.5z" />
    </font>
</defs>
</svg>
