<svg width="38" height="38" viewBox="0 0 38 38" fill="none" xmlns="http://www.w3.org/2000/svg">
<path d="M19 0C13.7543 0 9.27625 1.85387 5.56575 5.56161C1.85525 9.26935 0 13.7441 0 18.9859C0 24.2465 1.85525 28.7307 5.56575 32.4384C9.27625 36.1461 13.7543 38 19 38C24.2472 38 28.7261 36.1461 32.4366 32.4384C36.1455 28.7307 38 24.2465 38 18.9859C38 13.7441 36.1455 9.26935 32.4366 5.56161C28.7261 1.85387 24.2472 0 19 0ZM11.3698 11.8894C12.8185 10.6541 13.8872 10.0104 14.5762 9.95856C16.2545 9.79824 17.2879 10.9456 17.6764 13.4007C18.0649 15.9595 18.3472 17.6012 18.5234 18.3257C19.0362 20.5324 19.5749 21.6358 20.1396 21.6358C20.5816 21.6358 21.2532 20.9207 22.1545 19.4904C23.0731 18.0774 23.5591 16.9913 23.6126 16.2322C23.7541 14.9968 23.2681 14.3791 22.1545 14.3791C21.6779 14.3791 21.1478 14.5025 20.5643 14.7492C21.6244 11.2725 23.6472 9.58684 26.6326 9.69214C28.8409 9.74558 29.8924 11.1759 29.787 13.983C29.6801 16.1017 28.2133 18.9788 25.3868 22.6142C22.4549 26.41 19.9728 28.3079 17.9406 28.3079C16.6697 28.3079 15.6096 27.1518 14.7602 24.8398L13.0119 18.4577C12.3765 16.1457 11.6789 14.9897 10.9192 14.9897C10.7776 14.9897 10.2208 15.3245 9.24873 15.994L8.21532 14.6974C8.53305 14.4333 9.58454 13.4973 11.3698 11.8894Z" fill="#80A1EC"/>
</svg>
