<svg width="38" height="38" viewBox="0 0 38 38" fill="none" xmlns="http://www.w3.org/2000/svg">
<path d="M18.9682 0C13.7274 0 9.26684 1.86217 5.5865 5.5865C1.86217 9.31084 0 13.7926 0 19.0318C0 24.2726 1.86217 28.7332 5.5865 32.4135C9.26684 36.1378 13.7274 38 18.9682 38C24.2074 38 28.6892 36.1378 32.4135 32.4135C36.1378 28.7332 38 24.2726 38 19.0318C38 13.7926 36.1378 9.31084 32.4135 5.5865C28.7332 1.86217 24.2514 0 18.9682 0ZM18.6429 13.3817C18.9022 13.685 19.097 14.0527 19.2275 14.4848C19.4003 14.8746 19.4868 15.3075 19.4868 15.7836C19.4868 16.3902 19.3139 16.9968 18.9682 17.6034C18.6209 18.21 18.1227 18.6429 17.4737 18.9022C18.3396 19.2055 18.9674 19.6384 19.3571 20.201C19.8333 20.8076 20.0713 21.5438 20.0713 22.4097C20.0713 23.0162 19.9417 23.5364 19.6824 23.9701C19.4655 24.3598 19.1623 24.7275 18.7725 25.0733C18.166 25.4205 17.6898 25.6374 17.3441 25.7238C16.6511 25.8967 16.0877 25.9831 15.654 25.9831H9.02798V12.2762H16.3706C16.9331 12.2762 17.3441 12.3846 17.6034 12.6015C17.9507 12.7743 18.2972 13.0344 18.6429 13.3817ZM29.0357 12.9267V14.5508H22.5417V12.9267H29.0357ZM27.9962 16.2386C30.0327 17.1484 31.0078 18.8377 30.9214 21.3065L30.8554 21.6954H23.3195C23.3195 21.9987 23.406 22.324 23.5788 22.6713C23.7092 23.017 23.9049 23.2763 24.1657 23.4492C24.3386 23.6236 24.5979 23.7972 24.9436 23.9701L25.9195 24.0997C26.3956 24.0997 26.8498 23.9913 27.2819 23.7745C27.7581 23.5152 28.0614 23.1907 28.1918 22.8009L30.3368 23.3855C30.0335 24.121 29.4702 24.7268 28.6467 25.2029C27.8673 25.723 26.9142 25.9831 25.7875 25.9831C25.096 25.9831 24.4038 25.8315 23.7108 25.5282C22.4112 25.0096 21.5234 24.1217 21.0472 22.8646C20.7863 22.2156 20.6559 21.5666 20.6559 20.9176C20.6559 20.267 20.7643 19.6172 20.9812 18.9682C21.5014 17.6686 22.3892 16.7587 23.6448 16.2386C24.2514 15.9353 24.9876 15.7836 25.8535 15.7836C26.6769 15.7836 27.3911 15.9353 27.9962 16.2386ZM28.3214 20.0713C28.279 19.3359 28.0197 18.7301 27.5436 18.254C27.0234 17.8202 26.4381 17.6034 25.7875 17.6034L24.814 17.799C24.4682 17.9719 24.2302 18.1447 24.0997 18.3176C23.8405 18.4905 23.6456 18.7285 23.5152 19.0318L23.2559 20.0713H28.3214ZM16.3706 20.267C16.2401 20.1365 16.0445 20.0713 15.7836 20.0713H11.6916V23.7108H15.654L16.3046 23.5788L16.8891 23.1899C17.062 22.8866 17.1704 22.6917 17.2144 22.6053C17.3009 22.4749 17.3441 22.2368 17.3441 21.8911C17.3441 21.5878 17.3009 21.3709 17.2144 21.2405C17.1704 21.0252 17.062 20.8303 16.8891 20.6559C16.7587 20.4831 16.5859 20.3534 16.3706 20.267ZM16.8231 16.2386C16.8231 15.7624 16.6935 15.3515 16.4342 15.0058C16.1309 14.7025 15.7632 14.5508 15.3311 14.5508H11.6916V17.9923H15.1991C15.6768 17.9923 16.0673 17.8414 16.3706 17.5397C16.6723 17.2364 16.8231 16.8027 16.8231 16.2386Z" fill="#80A1EC"/>
</svg>
