<svg width="130" height="59" viewBox="0 0 130 59" fill="none" xmlns="http://www.w3.org/2000/svg">
<path fill-rule="evenodd" clip-rule="evenodd" d="M34.8913 14.9872C34.2516 19.5681 35.0954 20.0784 37.4226 16.5182C39.7498 12.958 40.421 9.68151 39.4363 6.6888C38.3085 3.2878 35.2637 1.15656 30.3022 0.295084C25.3406 -0.566394 20.804 0.458397 16.6925 3.36946C12.5768 6.27235 10.5862 10.4083 10.7209 15.7772C10.8513 21.142 14.5589 25.0411 21.8435 27.4745C29.128 29.9038 32.2716 33.7355 31.2743 38.9697C30.2769 44.1998 26.906 47.6029 21.1617 49.1788C15.4174 50.7589 11.5289 50.569 9.49627 48.6093C7.46366 46.6454 8.82294 44.3488 13.5741 41.7195C20.6146 37.8204 22.4936 34.1213 19.2112 30.6224C18.3232 29.6833 18.0665 29.7201 18.441 30.7326C18.9629 32.1453 18.2432 33.6498 16.2822 35.2462C13.7404 37.3121 10.0455 39.5209 5.19749 41.8726C0.353724 44.2202 -1.10445 47.905 0.82295 52.9269C2.75036 57.9488 8.52205 59.8146 18.138 58.5244C27.754 57.2343 33.8329 53.4331 36.3747 47.1211C36.6134 46.5288 36.8324 45.9511 37.0317 45.3878C36.9998 46.6617 36.9807 47.9356 36.9744 49.2095C36.966 51.0345 37.0123 52.8554 37.1133 54.6723C37.1596 55.5583 37.2459 56.4443 37.3721 57.3302C37.5026 58.257 38.1043 58.7694 39.1775 58.8674C40.078 58.9491 40.8397 58.7225 41.4626 58.1876C41.6688 58.0202 41.7929 57.8202 41.835 57.5875C42.0286 56.4769 42.1296 55.3623 42.138 54.2436C42.1506 52.4308 42.2474 50.616 42.4284 48.7992C42.5546 47.5049 42.7082 46.2086 42.8892 44.9103C43.2679 45.0001 43.6656 45.0858 44.0822 45.1675C44.8987 45.3185 45.7845 45.4431 46.7398 45.5411C47.0175 45.5696 47.3016 45.5982 47.592 45.6268L47.3837 45.6023C48.6377 45.7248 49.6246 45.8105 50.3442 45.8595L51.7519 45.8228C51.7224 46.9905 51.7056 48.1581 51.7014 49.3258C51.693 51.1509 51.7372 52.9718 51.834 54.7887C51.8802 55.6746 51.9686 56.5606 52.0991 57.4466C52.2295 58.3734 52.8292 58.8858 53.8981 58.9838C54.7987 59.0654 55.5625 58.8388 56.1895 58.304C56.3915 58.1366 56.5136 57.9365 56.5557 57.7038C56.7493 56.5933 56.8503 55.4787 56.8587 54.36C56.8696 53.2577 57.093 50.7908 57.529 46.9591C57.7847 47.5227 58.1188 48.0503 58.5314 48.5419C60.5556 50.9548 63.3983 52.0654 67.0595 51.8735H67.0721C69.1931 51.7632 71.0048 51.2406 72.5072 50.3057C73.7402 49.5258 74.525 48.5725 74.8617 47.4456C74.988 46.972 75.0237 46.5862 74.969 46.2882C74.9017 45.9534 74.7817 45.7308 74.6092 45.6206C74.3735 45.5145 74.0474 45.5818 73.6308 45.8227L73.1321 46.0922C73.1237 46.0922 73.1174 46.0963 73.1132 46.1044C72.3977 46.4311 71.737 46.6495 71.131 46.7597C70.7691 46.8128 70.4325 46.8353 70.121 46.8271H70.1084C68.8628 46.7332 67.8465 46.4311 67.0595 45.9207C66.7186 45.6961 66.4198 45.4328 66.1631 45.1307C65.3046 44.1263 64.9448 42.6993 65.0837 40.8498C65.1594 39.7475 65.3593 38.5287 65.6834 37.1936C65.675 37.1773 65.6729 37.1671 65.6771 37.163C65.7907 36.6282 65.919 36.0974 66.0621 35.5707C66.3988 34.354 66.8154 33.1414 67.312 31.9329C67.3162 31.9207 67.3225 31.9125 67.3309 31.9084C68.4335 29.275 69.6245 27.797 70.9038 27.4745C71.1815 27.4091 71.4256 27.4091 71.636 27.4745C71.817 27.5153 71.979 27.599 72.1221 27.7256C72.5892 28.1093 72.7575 28.9892 72.6271 30.3651C72.5008 31.5736 72.2315 32.8495 71.8191 34.1928C71.4656 35.3033 71.0511 36.3056 70.5755 37.1998C70.483 37.3631 70.3925 37.5264 70.3041 37.6897V37.6713C69.5045 39.2555 68.4651 40.6049 67.1858 41.7195C67.1731 41.7195 67.1647 41.7215 67.1605 41.7256C67.0132 41.8522 66.8743 41.9767 66.7439 42.0992C66.4745 42.3156 66.4156 42.5769 66.5671 42.8831C66.6723 43.1158 66.9417 43.2199 67.3751 43.1954C67.7875 43.1832 68.301 43.079 68.9154 42.8831C68.9196 42.8749 68.9301 42.8708 68.9469 42.8708C69.4098 42.7116 69.8833 42.5217 70.3672 42.3013C71.251 41.8767 72.16 41.3459 73.0942 40.709C73.0918 40.7042 73.0915 40.7016 73.0932 40.7009C73.0946 40.7005 73.097 40.7011 73.1005 40.7028C74.8259 39.5556 76.1831 38.2695 77.1721 36.8446C77.1721 36.8364 77.1742 36.8323 77.1784 36.8323C77.2307 36.7536 77.2818 36.6748 77.3317 36.5959C77.2098 38.4727 77.1124 40.2745 77.0395 42.0013C76.7828 47.9786 76.8186 53.0576 77.1468 57.2385C77.2436 58.4715 77.9632 59.0512 79.3057 58.9777C80.6019 58.9165 81.2857 58.2939 81.3572 57.1098C81.3699 56.922 81.3762 56.7118 81.3762 56.4791C81.4477 51.7675 81.9254 46.9416 82.8091 42.0013C82.9101 41.442 83.0153 40.8806 83.1247 40.3172C83.9496 36.1404 85.3404 31.833 87.2973 27.395C87.6718 26.5417 88.0674 25.6843 88.484 24.8228C89.1573 23.4306 89.8854 22.0261 90.6681 20.6093C91.3415 19.3927 92.0085 18.2964 92.6692 17.3206C93.2205 16.504 93.7697 15.7691 94.3167 15.1159C96.7996 12.1518 99.2047 10.9187 101.532 11.4168C104.978 12.1477 106.857 14.9587 107.169 19.8499C107.283 21.6341 106.933 23.549 106.121 25.5945C105.877 26.2028 105.618 26.803 105.345 27.395C104.793 28.5709 104.175 29.7141 103.489 30.8246C101.199 34.544 98.1421 37.9267 94.3167 40.9725C93.9759 41.246 93.6287 41.5155 93.2752 41.7809C92.3788 42.4545 91.5456 43.0567 90.7754 43.5875C89.9674 44.1305 89.2036 44.6286 88.484 45.0818C88.4672 45.09 88.4524 45.0982 88.4398 45.1063C86.0201 46.5802 84.8123 48.4665 84.8165 50.7651C84.8081 51.4592 84.9217 52.186 85.1573 52.9454C85.5361 54.1743 86.2242 55.2542 87.2215 56.1851C87.6129 56.5525 88.0337 56.8771 88.484 57.1588C88.9764 57.4691 89.5024 57.7304 90.0621 57.9427C91.3372 58.4164 92.7555 58.6185 94.3167 58.549C94.7207 58.5286 95.1331 58.4919 95.554 58.4388C96.8712 58.2878 98.0369 57.8611 99.0511 57.1588C99.9769 56.4974 100.581 55.6911 100.863 54.7398C100.968 54.3397 101.004 54.013 100.97 53.7599C100.928 53.4782 100.844 53.2904 100.718 53.1965C100.549 53.1066 100.307 53.1638 99.9916 53.3679L99.6129 53.5945C99.6089 53.5945 99.6059 53.5954 99.6038 53.5973C99.6014 53.5993 99.6003 53.6025 99.6003 53.6068C99.2341 53.7905 98.8764 53.9599 98.5271 54.1151C98.0558 54.3274 97.5382 54.4825 96.9743 54.5805C96.4188 54.6581 95.8717 54.7153 95.333 54.752C94.9711 54.7683 94.6324 54.7683 94.3167 54.752C91.8549 54.6214 90.7712 53.5394 91.0658 51.5062C91.1668 50.8121 91.7307 50.1282 92.7576 49.4545C93.292 49.0993 93.8117 48.7462 94.3167 48.395C96.5345 46.8599 98.4956 45.3615 100.2 43.8998C103.507 40.9638 106.424 37.8801 108.949 34.6486C108.93 34.7048 108.911 34.7611 108.892 34.8176C108.539 35.8873 108.286 37.01 108.135 38.1859C107.794 40.8438 108.036 43.22 108.861 45.3145C109.181 46.1352 109.591 46.9109 110.092 47.6417C111.884 50.2548 114.275 51.5613 117.263 51.5613C120.259 51.5613 122.988 50.2548 125.45 47.6417C126.14 46.9109 126.752 46.1352 127.287 45.3145C127.99 44.2367 128.56 43.0812 128.997 41.8482C129.401 40.6928 129.686 39.472 129.85 38.1859C130.325 34.4869 129.673 31.3329 127.893 28.7239C127.636 28.3442 127.367 27.9931 127.085 27.6706C126.895 27.4583 126.702 27.2562 126.504 27.0643C124.926 25.5618 123.001 24.8106 120.728 24.8106C118.451 24.8106 116.33 25.5618 114.365 27.0643C114.117 27.2562 113.873 27.4583 113.633 27.6706C113.622 27.6803 113.611 27.6901 113.599 27.6998C113.655 27.5983 113.711 27.4966 113.765 27.395C114.199 26.5907 114.601 25.7864 114.971 24.982C118.014 18.3352 117.856 12.1109 114.498 6.30922C111.135 0.503432 106.302 -1.21136 99.9979 1.16485C97.9317 1.94467 96.0379 3.00213 94.3167 4.33721C93.8749 4.68017 93.4435 5.0415 93.0227 5.4212C91.3183 6.96451 89.8054 8.80995 88.484 10.9575C87.5414 12.4886 86.6955 14.1748 85.9464 16.0162C86.7334 13.248 87.2383 10.9412 87.4614 9.09575C87.4909 8.85895 87.514 8.63235 87.5308 8.41596C87.7917 5.1252 86.8743 3.73703 84.7786 4.25147C83.5287 4.57402 82.4262 5.96218 81.4709 8.41596C80.2421 11.5638 79.2531 16.4632 78.504 23.1142C78.4072 23.9348 78.3167 24.782 78.2326 25.6557C78.1737 26.2396 78.119 26.8193 78.0685 27.395L78.0109 28.0157C77.9995 27.9967 77.988 27.9777 77.9765 27.9587C77.9714 27.9504 77.9662 27.9421 77.9611 27.9338C77.9527 27.9215 77.9464 27.9154 77.9422 27.9154C77.8243 27.7317 77.6981 27.5582 77.5634 27.3948C76.8102 26.4803 75.8002 25.827 74.5335 25.4351C74.4409 25.4065 74.3441 25.38 74.2431 25.3555C73.5992 25.2412 73.1068 25.1758 72.766 25.1595C72.2105 25.1309 71.6339 25.1534 71.0364 25.2269C69.1805 25.48 67.6024 25.9781 66.302 26.7212C66.2894 26.7253 66.2768 26.7334 66.2641 26.7457C65.9106 26.9498 65.5676 27.1662 65.2352 27.3948C65.1594 27.4438 65.0858 27.4949 65.0143 27.548C63.2552 28.7891 61.7676 30.3324 60.5514 32.1779C60.022 32.9724 59.5484 33.7974 59.1306 34.6528C59.2778 33.6393 59.4274 32.6265 59.5793 31.6145C59.815 30.0794 60.0486 28.5483 60.28 27.0213C60.5451 25.2861 60.8166 23.553 61.0943 21.8218C61.3763 20.0662 61.7066 18.3249 62.0854 16.5979C62.4726 14.8463 62.8555 13.0927 63.2343 11.3371C63.5835 9.74074 63.714 8.13619 63.6256 6.52347C63.592 5.93554 63.39 5.40478 63.0196 4.93117C62.4305 4.18809 61.6077 3.95741 60.5515 4.23913C59.9665 4.40652 59.4762 4.6862 59.0807 5.07815C58.9881 5.17205 58.8955 5.268 58.8029 5.36599C57.7845 6.45202 57.0354 7.66666 56.5557 9.00991C55.916 10.79 55.3963 12.6008 54.9965 14.4421C54.6262 16.1406 54.3042 17.8452 54.0307 19.5559C53.7782 21.1523 53.5573 22.7527 53.3679 24.3573C53.1911 25.872 53.0291 27.3827 52.8818 28.8892C52.7387 30.3345 52.6062 31.7819 52.4841 33.2313C52.3915 34.3459 52.3053 35.4626 52.2253 36.5813C52.1875 37.0508 52.1538 37.5224 52.1243 37.996L52.0738 38.6574C52.0696 38.7105 52.0275 39.4331 51.9476 40.8254C50.2011 40.56 47.5793 40.0986 44.0822 39.4413C43.9602 39.4168 43.834 39.3923 43.7035 39.3678C43.7708 38.9065 43.8382 38.4471 43.9055 37.9899C43.9097 37.9531 43.916 37.9164 43.9244 37.8796C43.9707 37.5285 44.0212 37.1794 44.0759 36.8324C44.0801 36.816 44.0822 36.7997 44.0822 36.7834C44.0949 36.6772 44.1117 36.5711 44.1327 36.4649C44.3684 34.8073 44.6104 33.1517 44.8587 31.4982C45.0943 29.963 45.3279 28.4319 45.5594 26.905C45.8245 25.1698 46.0959 23.4366 46.3737 21.7055C46.6556 19.9499 46.9839 18.2085 47.3584 16.4815C47.7456 14.73 48.1306 12.9764 48.5136 11.2208C48.8629 9.62438 48.9912 8.01983 48.8987 6.40711C48.8692 5.81918 48.6672 5.28841 48.2927 4.81481C47.7035 4.07173 46.8808 3.84105 45.8245 4.12277C45.2437 4.29016 44.7535 4.56984 44.3537 4.96179C44.2611 5.05569 44.1706 5.15164 44.0822 5.24963C43.0638 6.33566 42.3148 7.5503 41.835 8.89355C41.1911 10.6737 40.6693 12.4844 40.2695 14.3258C39.9034 16.0242 39.5836 17.7288 39.31 19.4395C39.0533 21.0359 38.8324 22.6364 38.6472 24.2409C38.4663 25.7556 38.3021 27.2663 38.1548 28.7729C38.016 30.2182 37.8855 31.6656 37.7635 33.115L37.7403 33.3841C36.6164 30.5644 34.3201 28.3598 30.8513 26.7702C25.4479 24.3001 22.0034 21.5932 20.5178 18.6495C19.0281 15.7017 19.0807 12.9559 20.6756 10.4123C22.2706 7.86057 25.1975 6.83986 29.4563 7.35022C33.7151 7.85649 35.5268 10.4021 34.8913 14.9872ZM66.2516 41.0581L66.2895 41.1928C66.0033 40.0374 65.9907 39.9925 66.2516 41.0581ZM124.44 29.6426V29.6487C123.825 28.7831 123.087 28.1789 122.224 27.8359C122.064 27.7706 121.9 27.7155 121.732 27.6706C121.328 27.5603 120.901 27.5032 120.45 27.4991H120.431C119.977 27.5113 119.535 27.5685 119.106 27.6706C118.912 27.7155 118.721 27.7706 118.531 27.8359C117.446 28.2075 116.429 28.8852 115.482 29.8692V29.8631C114.696 30.6715 114.062 31.5554 113.582 32.5149C113.507 32.6659 113.435 32.8211 113.368 32.9803C113.321 33.0864 113.277 33.1946 113.235 33.3049L113.185 33.4764C113.113 33.6683 113.05 33.8622 112.995 34.0582V34.0704C112.924 34.3031 112.859 34.5461 112.8 34.7992V34.7931C112.749 35.0176 112.705 35.2503 112.667 35.4912C112.663 35.4953 112.661 35.5014 112.661 35.5096C112.623 35.726 112.589 35.9444 112.56 36.1649V36.1833C112.547 36.2976 112.535 36.4078 112.522 36.514C112.518 36.5589 112.516 36.6018 112.516 36.6426L112.572 38.3635C112.749 39.5884 113.159 40.6948 113.803 41.6829C113.816 41.7033 113.829 41.7278 113.841 41.7563C114.83 43.2221 116.143 43.9631 117.78 43.9794H117.793C119.598 43.9386 121.252 43.0935 122.754 41.444H122.748C123.405 40.7213 123.96 39.9313 124.415 39.0739C124.427 39.0494 124.442 39.027 124.459 39.0066C124.657 38.6064 124.831 38.1982 124.983 37.7817V37.794C125.088 37.5 125.185 37.2019 125.273 36.8998C125.29 36.8467 125.305 36.7957 125.317 36.7467V36.7528C125.473 36.1649 125.591 35.5525 125.671 34.9156C125.692 34.74 125.711 34.5685 125.728 34.4011L125.658 32.8884C125.511 31.684 125.105 30.602 124.44 29.6426Z" fill="#80A1EC"/>
</svg>
