<svg width="55" height="25" viewBox="0 0 55 25" fill="none" xmlns="http://www.w3.org/2000/svg">
<path fill-rule="evenodd" clip-rule="evenodd" d="M14.4996 6.27667C14.2338 8.19519 14.5844 8.40893 15.5515 6.91789C16.5186 5.42685 16.7976 4.05465 16.3883 2.80129C15.9197 1.37694 14.6544 0.484372 12.5925 0.123582C10.5306 -0.237208 8.64541 0.191978 6.93681 1.41114C5.22646 2.62688 4.39926 4.35902 4.45523 6.60754C4.50944 8.85435 6.05016 10.4873 9.07737 11.5064C12.1046 12.5238 13.411 14.1286 12.9965 16.3207C12.582 18.511 11.1812 19.9362 8.79406 20.5963C6.40692 21.258 4.791 21.1785 3.94632 20.3577C3.10164 19.5353 3.66651 18.5735 5.64093 17.4723C8.56672 15.8393 9.34757 14.2901 7.98348 12.8248C7.61448 12.4315 7.5078 12.4469 7.66345 12.8709C7.8803 13.4625 7.58125 14.0926 6.7663 14.7612C5.71001 15.6264 4.17454 16.5515 2.15989 17.5364C0.146995 18.5196 -0.458973 20.0628 0.341989 22.166C1.14295 24.2691 3.54147 25.0506 7.53753 24.5102C11.5336 23.9699 14.0598 22.378 15.1161 19.7345C15.2153 19.4864 15.3063 19.2445 15.3891 19.0086C15.3758 19.5421 15.3679 20.0756 15.3653 20.6091C15.3618 21.3734 15.381 22.136 15.423 22.897C15.4422 23.268 15.4781 23.6391 15.5305 24.0101C15.5847 24.3983 15.8348 24.6128 16.2808 24.6539C16.655 24.6881 16.9716 24.5932 17.2304 24.3692C17.3161 24.2991 17.3677 24.2153 17.3852 24.1178C17.4656 23.6527 17.5076 23.1859 17.5111 22.7174C17.5163 21.9582 17.5565 21.1982 17.6317 20.4373C17.6842 19.8952 17.748 19.3523 17.8232 18.8086C17.9806 18.8462 18.1459 18.8821 18.319 18.9163C18.6583 18.9796 19.0264 19.0317 19.4234 19.0728C19.5388 19.0847 19.6569 19.0967 19.7776 19.1087L19.691 19.0984C20.2121 19.1497 20.6222 19.1856 20.9213 19.2061L21.5063 19.1907C21.494 19.6798 21.487 20.1688 21.4853 20.6578C21.4818 21.4222 21.5001 22.1848 21.5404 22.9457C21.5596 23.3167 21.5963 23.6878 21.6505 24.0588C21.7048 24.447 21.954 24.6616 22.3982 24.7026C22.7724 24.7368 23.0898 24.6419 23.3504 24.4179C23.4344 24.3478 23.4851 24.264 23.5026 24.1666C23.583 23.7015 23.625 23.2347 23.6285 22.7661C23.633 22.3045 23.7259 21.2714 23.907 19.6666C24.0133 19.9027 24.1521 20.1236 24.3236 20.3295C25.1648 21.3401 26.3461 21.8052 27.8676 21.7248H27.8728C28.7542 21.6786 29.5071 21.4598 30.1314 21.0682C30.6438 20.7416 30.97 20.3423 31.1099 19.8704C31.1624 19.6721 31.1772 19.5105 31.1545 19.3856C31.1265 19.2454 31.0767 19.1522 31.005 19.1061C30.907 19.0616 30.7715 19.0898 30.5984 19.1907L30.3911 19.3036C30.3876 19.3036 30.385 19.3053 30.3833 19.3087C30.086 19.4455 29.8114 19.537 29.5596 19.5831C29.4092 19.6054 29.2693 19.6148 29.1398 19.6114H29.1346C28.617 19.572 28.1946 19.4455 27.8676 19.2318C27.7259 19.1377 27.6018 19.0274 27.4951 18.9009C27.1383 18.4802 26.9888 17.8826 27.0465 17.1081C27.078 16.6464 27.1611 16.136 27.2957 15.5768C27.2922 15.57 27.2913 15.5657 27.2931 15.564C27.3403 15.34 27.3936 15.1177 27.4531 14.8971C27.593 14.3876 27.7661 13.8798 27.9725 13.3736C27.9743 13.3685 27.9769 13.3651 27.9804 13.3634C28.4386 12.2605 28.9335 11.6415 29.4651 11.5064C29.5806 11.479 29.682 11.479 29.7694 11.5064C29.8446 11.5235 29.912 11.5586 29.9714 11.6116C30.1655 11.7723 30.2355 12.1408 30.1813 12.717C30.1288 13.2231 30.0169 13.7575 29.8455 14.3201C29.6986 14.7851 29.5263 15.2049 29.3287 15.5794C29.2902 15.6478 29.2526 15.7162 29.2159 15.7846V15.7769C28.8836 16.4403 28.4517 17.0055 27.92 17.4723C27.9148 17.4723 27.9113 17.4731 27.9095 17.4748C27.8483 17.5278 27.7906 17.58 27.7364 17.6313C27.6245 17.7219 27.6 17.8313 27.663 17.9596C27.7067 18.057 27.8186 18.1007 27.9987 18.0904C28.1701 18.0853 28.3835 18.0417 28.6388 17.9596C28.6406 17.9562 28.6449 17.9545 28.6519 17.9545C28.8443 17.8878 29.041 17.8083 29.2422 17.7159C29.6094 17.5381 29.9872 17.3158 30.3754 17.0491C30.3744 17.0471 30.3742 17.046 30.375 17.0457C30.3755 17.0455 30.3765 17.0458 30.378 17.0465C31.095 16.566 31.659 16.0274 32.07 15.4306C32.07 15.4272 32.0709 15.4255 32.0726 15.4255C32.0944 15.3925 32.1156 15.3595 32.1363 15.3265C32.0857 16.1125 32.0452 16.8671 32.0149 17.5903C31.9082 20.0936 31.9231 22.2207 32.0595 23.9717C32.0997 24.4881 32.3988 24.7309 32.9567 24.7001C33.4953 24.6744 33.7795 24.4137 33.8092 23.9178C33.8145 23.8392 33.8171 23.7511 33.8171 23.6536C33.8468 21.6804 34.0453 19.6593 34.4126 17.5903C34.4545 17.3561 34.4983 17.1209 34.5437 16.885C34.8865 15.1357 35.4645 13.3318 36.2777 11.4731C36.4333 11.1158 36.5977 10.7567 36.7709 10.3959C37.0507 9.81281 37.3532 9.2246 37.6785 8.63126C37.9583 8.12171 38.2355 7.6626 38.5101 7.25394C38.7392 6.91195 38.9674 6.60417 39.1947 6.33059C40.2265 5.0892 41.226 4.57281 42.1931 4.78141C43.6254 5.08749 44.4062 6.26476 44.5356 8.31322C44.5829 9.06045 44.4377 9.8624 44.1002 10.7191C43.9988 10.9738 43.8912 11.2252 43.7775 11.4731C43.5484 11.9656 43.2914 12.4444 43.0063 12.9094C42.0549 14.4672 40.7844 15.8838 39.1947 17.1594C39.0531 17.274 38.9088 17.3868 38.7619 17.498C38.3894 17.7801 38.0431 18.0323 37.7231 18.2546C37.3873 18.482 37.0699 18.6906 36.7709 18.8804C36.7639 18.8839 36.7577 18.8873 36.7525 18.8907C35.7469 19.508 35.245 20.2979 35.2468 21.2606C35.2433 21.5513 35.2905 21.8557 35.3884 22.1737C35.5458 22.6884 35.8317 23.1407 36.2462 23.5305C36.4088 23.6844 36.5837 23.8203 36.7709 23.9383C36.9755 24.0683 37.1941 24.1777 37.4267 24.2666C37.9566 24.465 38.5459 24.5496 39.1947 24.5205C39.3626 24.512 39.534 24.4966 39.7089 24.4744C40.2563 24.4111 40.7407 24.2324 41.1622 23.9383C41.5469 23.6613 41.7979 23.3236 41.915 22.9252C41.9587 22.7576 41.9736 22.6208 41.9596 22.5148C41.9421 22.3969 41.9072 22.3182 41.8547 22.2789C41.7847 22.2412 41.6842 22.2652 41.553 22.3507L41.3956 22.4456C41.394 22.4456 41.3927 22.446 41.3918 22.4467C41.3909 22.4476 41.3904 22.4489 41.3904 22.4507C41.2382 22.5277 41.0896 22.5986 40.9444 22.6636C40.7486 22.7525 40.5335 22.8175 40.2991 22.8585C40.0683 22.891 39.8409 22.9149 39.6171 22.9303C39.4667 22.9372 39.3259 22.9372 39.1947 22.9303C38.1717 22.8756 37.7213 22.4225 37.8438 21.571C37.8857 21.2803 38.1201 20.9939 38.5468 20.7117C38.7689 20.563 38.9849 20.4151 39.1947 20.268C40.1164 19.6251 40.9313 18.9976 41.6396 18.3854C43.014 17.1558 44.226 15.8643 45.2755 14.5109C45.2675 14.5345 45.2596 14.5581 45.2518 14.5817C45.1049 15.0297 45 15.4999 44.937 15.9924C44.7954 17.1055 44.8959 18.1007 45.2387 18.9779C45.3716 19.3216 45.5421 19.6465 45.7502 19.9525C46.4952 21.0469 47.4886 21.594 48.7302 21.594C49.9754 21.594 51.1095 21.0469 52.1326 19.9525C52.4194 19.6465 52.6738 19.3216 52.8959 18.9779C53.188 18.5265 53.4249 18.0426 53.6068 17.5262C53.7747 17.0423 53.8927 16.531 53.9609 15.9924C54.1586 14.4432 53.8875 13.1223 53.1477 12.0297C53.0411 11.8707 52.9291 11.7236 52.812 11.5885C52.7333 11.4996 52.6528 11.415 52.5706 11.3346C51.9148 10.7054 51.1147 10.3907 50.1704 10.3907C49.2243 10.3907 48.3428 10.7054 47.5261 11.3346C47.423 11.415 47.3215 11.4996 47.2219 11.5885C47.2172 11.5926 47.2126 11.5967 47.2079 11.6008C47.2312 11.5582 47.2542 11.5157 47.2769 11.4731C47.4571 11.1363 47.6241 10.7994 47.778 10.4626C49.0424 7.67885 48.9768 5.0721 47.5812 2.64232C46.1839 0.210839 44.1754 -0.507321 41.5556 0.487844C40.697 0.814435 39.91 1.2573 39.1947 1.81644C39.0111 1.96007 38.8318 2.1114 38.657 2.27042C37.9487 2.91676 37.32 3.68964 36.7709 4.58905C36.3791 5.23026 36.0276 5.93645 35.7163 6.70762C36.0433 5.54831 36.2532 4.58221 36.3459 3.80933C36.3581 3.71016 36.3678 3.61526 36.3747 3.52463C36.4832 2.14645 36.1019 1.56508 35.231 1.78053C34.7116 1.91561 34.2534 2.49698 33.8564 3.52463C33.3458 4.84297 32.9348 6.89486 32.6235 9.68029C32.5833 10.024 32.5457 10.3788 32.5107 10.7447C32.4862 10.9892 32.4635 11.232 32.4425 11.4731L32.4186 11.7331C32.4139 11.7251 32.4091 11.7171 32.4043 11.7092C32.4022 11.7057 32.4 11.7022 32.3979 11.6988C32.3944 11.6936 32.3918 11.6911 32.39 11.6911C32.3411 11.6141 32.2886 11.5415 32.2326 11.4731C31.9196 11.09 31.4999 10.8165 30.9735 10.6523C30.935 10.6403 30.8948 10.6292 30.8528 10.619C30.5853 10.5711 30.3806 10.5437 30.239 10.5369C30.0081 10.5249 29.7686 10.5343 29.5202 10.5651C28.749 10.6711 28.0932 10.8797 27.5528 11.1909C27.5475 11.1926 27.5423 11.1961 27.5371 11.2012C27.3901 11.2867 27.2476 11.3773 27.1095 11.4731C27.078 11.4936 27.0474 11.515 27.0176 11.5372C26.2866 12.057 25.6684 12.7033 25.163 13.4762C24.943 13.809 24.7462 14.1545 24.5726 14.5127C24.6338 14.0882 24.6959 13.6641 24.7591 13.2403C24.857 12.5973 24.9541 11.9561 25.0503 11.3166C25.1604 10.5899 25.2732 9.86407 25.3887 9.13907C25.5058 8.40381 25.6431 7.67453 25.8005 6.95124C25.9614 6.21769 26.1205 5.48329 26.2779 4.74803C26.4231 4.07946 26.4773 3.40747 26.4406 2.73205C26.4266 2.48583 26.3426 2.26354 26.1888 2.06519C25.9439 1.75399 25.602 1.65738 25.1631 1.77536C24.92 1.84547 24.7162 1.9626 24.5518 2.12675C24.5134 2.16607 24.4749 2.20626 24.4364 2.24729C24.0132 2.70213 23.7019 3.21083 23.5026 3.77338C23.2367 4.5189 23.0208 5.27725 22.8546 6.04841C22.7007 6.75973 22.5669 7.47362 22.4533 8.19007C22.3483 8.85864 22.2565 9.52892 22.1778 10.2009C22.1044 10.8353 22.037 11.468 21.9758 12.0989C21.9164 12.7042 21.8613 13.3104 21.8106 13.9174C21.7721 14.3842 21.7362 14.8519 21.703 15.3204C21.6873 15.517 21.6733 15.7145 21.661 15.9129L21.6401 16.1899C21.6383 16.2121 21.6208 16.5147 21.5876 17.0978C20.8618 16.9867 19.7723 16.7935 18.319 16.5182C18.2683 16.5079 18.2159 16.4976 18.1616 16.4874C18.1896 16.2942 18.2176 16.1018 18.2456 15.9103C18.2473 15.8949 18.25 15.8795 18.2535 15.8641C18.2727 15.7171 18.2937 15.5709 18.3164 15.4255C18.3182 15.4187 18.319 15.4119 18.319 15.405C18.3243 15.3606 18.3313 15.3161 18.34 15.2716C18.438 14.5774 18.5385 13.8841 18.6417 13.1915C18.7396 12.5486 18.8367 11.9074 18.9329 11.2679C19.0431 10.5412 19.1558 9.81533 19.2713 9.09033C19.3884 8.35507 19.5249 7.6258 19.6805 6.90251C19.8414 6.16896 20.0014 5.43456 20.1606 4.6993C20.3057 4.03073 20.359 3.35873 20.3206 2.68332C20.3083 2.43709 20.2244 2.21481 20.0687 2.01646C19.8239 1.70526 19.482 1.60865 19.0431 1.72663C18.8017 1.79674 18.598 1.91386 18.4318 2.07801C18.3934 2.11734 18.3558 2.15752 18.319 2.19856C17.8958 2.6534 17.5845 3.16209 17.3852 3.72465C17.1176 4.47017 16.9007 5.22851 16.7346 5.99968C16.5825 6.711 16.4495 7.42489 16.3359 8.14134C16.2292 8.80991 16.1374 9.48019 16.0604 10.1522C15.9852 10.7866 15.917 11.4192 15.8558 12.0502C15.7981 12.6555 15.7439 13.2616 15.6932 13.8687L15.6835 13.9814C15.2165 12.8005 14.2622 11.8772 12.8207 11.2115C10.5752 10.177 9.14383 9.0433 8.52649 7.81046C7.90741 6.57591 7.92927 5.426 8.59207 4.36073C9.25488 3.29204 10.4712 2.86456 12.241 3.0783C14.0108 3.29033 14.7637 4.35645 14.4996 6.27667ZM27.5318 17.1953L27.5476 17.2517C27.4287 16.7678 27.4234 16.749 27.5318 17.1953ZM51.7128 12.4144V12.417C51.4575 12.0545 51.1506 11.8014 50.7921 11.6578C50.7256 11.6304 50.6574 11.6073 50.5875 11.5885C50.4196 11.5424 50.2421 11.5184 50.055 11.5167H50.0471C49.8582 11.5218 49.6746 11.5458 49.4962 11.5885C49.4158 11.6073 49.3362 11.6304 49.2575 11.6578C48.8063 11.8134 48.3839 12.0972 47.9905 12.5093V12.5068C47.6634 12.8453 47.4002 13.2155 47.2009 13.6173C47.1694 13.6806 47.1397 13.7456 47.1117 13.8123C47.0924 13.8567 47.0741 13.902 47.0566 13.9482L47.0356 14.02C47.0059 14.1004 46.9796 14.1816 46.9569 14.2637V14.2688C46.9272 14.3663 46.9001 14.468 46.8756 14.574V14.5715C46.8546 14.6655 46.8362 14.763 46.8205 14.8639C46.8187 14.8656 46.8179 14.8681 46.8179 14.8716C46.8021 14.9622 46.7881 15.0537 46.7759 15.146V15.1537C46.7707 15.2016 46.7654 15.2477 46.7602 15.2922C46.7584 15.311 46.7575 15.329 46.7575 15.3461L46.7812 16.0668C46.8546 16.5797 47.0251 17.0431 47.2927 17.4569C47.2979 17.4655 47.3032 17.4757 47.3084 17.4877C47.7194 18.1016 48.265 18.4119 48.9453 18.4187H48.9506C49.7008 18.4016 50.3881 18.0477 51.0124 17.3569H51.0098C51.2826 17.0542 51.5135 16.7234 51.7023 16.3643C51.7076 16.354 51.7137 16.3446 51.7207 16.3361C51.8029 16.1685 51.8755 15.9975 51.9384 15.8231V15.8282C51.9822 15.7051 52.0224 15.5803 52.0591 15.4538C52.0661 15.4315 52.0722 15.4102 52.0775 15.3897V15.3922C52.1422 15.146 52.1911 14.8895 52.2244 14.6228C52.2331 14.5492 52.241 14.4774 52.248 14.4073L52.2191 13.7738C52.1579 13.2694 51.9892 12.8162 51.7128 12.4144Z" fill="white"/>
</svg>
