<svg width="1200" height="263" viewBox="0 0 1200 263" fill="none" xmlns="http://www.w3.org/2000/svg">
<path d="M1199.56 262.339V230.132C1166.15 221.714 1133.31 203.091 1101.05 174.262C1011.59 93.9787 913.118 76.6801 805.615 122.366C711.647 162.268 637.823 160.278 584.144 116.398C524.352 65.7908 462.88 30.3206 399.73 9.98719C334.984 -11.6981 258.393 2.43137 169.958 52.3757C113.026 83.1068 56.373 68.4398 0 8.37482V51.5035C61.6787 107.461 124.228 116.888 187.647 79.7838C266.777 35.096 335.077 21.676 392.549 39.5238C451.533 58.6741 508.984 91.8994 564.901 139.2C626.973 193.189 712.154 197.181 820.444 151.177C915.263 110.881 1002.12 125.955 1081.02 196.4C1119.82 231.167 1159.34 253.147 1199.56 262.339Z" fill="url(#paint0_linear)" fill-opacity="0.7"/>
<defs>
<linearGradient id="paint0_linear" x1="22.5544" y1="-10.4812" x2="1132.27" y2="131.009" gradientUnits="userSpaceOnUse">
<stop stop-color="white"/>
<stop offset="0.32549" stop-color="#E194DD"/>
<stop offset="0.678431" stop-color="#446FED"/>
<stop offset="1" stop-color="#78ABFD"/>
</linearGradient>
</defs>
</svg>
