<svg width="183" height="8" viewBox="0 0 183 8" fill="none" xmlns="http://www.w3.org/2000/svg">
<path d="M0 5.64639C0 6.77794 0.997471 8 2.55674 8C4.17333 8 5.05615 7.01556 5.23959 6.11033C5.45743 4.62801 4.43703 3.86987 3.16439 3.5983L2.08666 3.36068C0.974541 3.11174 0.825493 2.54597 0.825493 2.1273C0.825493 1.31259 1.66245 0.746817 2.54527 0.746817C3.51981 0.746817 4.26505 1.3239 4.26505 2.22914H5.02175C5.02175 0.871287 3.95549 0 2.54527 0C1.29557 0 0.0687911 0.859971 0.0687911 2.1273C0.0687911 2.78359 0.275164 3.72277 1.92615 4.08487L2.99241 4.32249C3.87523 4.53748 4.6434 5.01273 4.49435 5.97454C4.36824 6.58557 3.73765 7.25318 2.55674 7.25318C1.45608 7.25318 0.756702 6.42716 0.756702 5.64639H0Z" fill="white"/>
<path d="M28.8977 0.0905235V0.837341H31.4315V7.88685H32.1882V0.837341H34.722V0.0905235H28.8977Z" fill="white"/>
<path d="M61.6813 7.25318C60.5692 7.25318 59.6405 6.47242 59.6405 5.25035V0.0905235H58.8838V5.25035C58.8838 6.92504 60.1565 8 61.6813 8C63.2062 8 64.4789 6.92504 64.4789 5.25035V0.0905235H63.7221V5.25035C63.7221 6.47242 62.7935 7.25318 61.6813 7.25318Z" fill="white"/>
<path d="M92.4175 7.88685C94.6647 7.88685 95.9144 6.22348 95.9144 4.00566C95.9144 1.78784 94.6647 0.0905235 92.4175 0.0905235H89.4481V7.88685H92.4175ZM90.2048 0.837341H92.4175C94.2405 0.837341 95.1577 2.20651 95.1577 4.00566C95.1577 5.80481 94.2405 7.14003 92.4175 7.14003H90.2048V0.837341Z" fill="white"/>
<path d="M121.237 0.0905235H120.481V7.88685H121.237V0.0905235Z" fill="white"/>
<path d="M145.757 4.00566C145.757 6.22348 147.477 8 149.724 8C151.971 8 153.702 6.22348 153.702 4.00566C153.702 1.79915 151.971 0 149.724 0C147.477 0 145.757 1.79915 145.757 4.00566ZM146.514 4.00566C146.514 2.19519 147.901 0.746817 149.724 0.746817C151.547 0.746817 152.946 2.19519 152.946 4.00566C152.946 5.80481 151.547 7.25318 149.724 7.25318C147.901 7.25318 146.514 5.80481 146.514 4.00566Z" fill="white"/>
<path d="M177.731 5.64639C177.731 6.77794 178.728 8 180.288 8C181.904 8 182.787 7.01556 182.971 6.11033C183.188 4.62801 182.168 3.86987 180.895 3.5983L179.818 3.36068C178.705 3.11174 178.556 2.54597 178.556 2.1273C178.556 1.31259 179.393 0.746817 180.276 0.746817C181.251 0.746817 181.996 1.3239 181.996 2.22914H182.753C182.753 0.871287 181.686 0 180.276 0C179.027 0 177.8 0.859971 177.8 2.1273C177.8 2.78359 178.006 3.72277 179.657 4.08487L180.723 4.32249C181.606 4.53748 182.374 5.01273 182.225 5.97454C182.099 6.58557 181.469 7.25318 180.288 7.25318C179.187 7.25318 178.488 6.42716 178.488 5.64639H177.731Z" fill="white"/>
</svg>
