<svg width="224" height="103" viewBox="0 0 224 103" fill="none" xmlns="http://www.w3.org/2000/svg">
<path fill-rule="evenodd" clip-rule="evenodd" d="M60.1204 26.164C59.0182 34.1612 60.4721 35.0522 64.482 28.8369C68.492 22.6216 69.6485 16.9016 67.9517 11.6771C66.0084 5.73972 60.7621 2.01908 52.2129 0.515147C43.6637 -0.988789 35.8469 0.800253 28.7624 5.88227C21.6707 10.95 18.2409 18.1703 18.4729 27.5432C18.6977 36.909 25.0861 43.7159 37.6379 47.964C50.1898 52.2049 55.6065 58.8942 53.888 68.0319C52.1694 77.1624 46.3612 83.1033 36.4632 85.8546C26.5653 88.613 19.8652 88.2815 16.3628 84.8603C12.8605 81.4319 15.2026 77.4225 23.3893 72.8323C35.5206 66.0254 38.7583 59.5678 33.1023 53.4594C31.5723 51.82 31.13 51.8842 31.7753 53.6518C32.6745 56.118 31.4345 58.7445 28.0554 61.5314C23.6757 65.138 17.3091 68.9941 8.95567 73.0996C0.609494 77.198 -1.90306 83.6307 1.41801 92.3978C4.73907 101.165 14.6841 104.422 31.2532 102.17C47.8223 99.9174 58.2967 93.2816 62.6765 82.2622C63.0877 81.2283 63.4651 80.2197 63.8085 79.2364C63.7535 81.4603 63.7206 83.6842 63.7098 85.9081C63.6953 89.0941 63.775 92.2731 63.949 95.4449C64.0288 96.9916 64.1775 98.5383 64.395 100.085C64.6198 101.703 65.6567 102.597 67.5058 102.769C69.0575 102.911 70.37 102.516 71.4432 101.582C71.7985 101.29 72.0124 100.94 72.0849 100.534C72.4185 98.5953 72.5925 96.6494 72.607 94.6965C72.6288 91.5318 72.7956 88.3635 73.1074 85.1917C73.3249 82.9323 73.5896 80.6692 73.9014 78.4027C74.554 78.5595 75.2392 78.7091 75.9571 78.8517C77.3638 79.1154 78.8902 79.3328 80.5363 79.5039C81.0148 79.5538 81.5043 79.6037 82.0046 79.6535L81.6457 79.6108C83.8066 79.8246 85.507 79.9743 86.7469 80.0598L89.1725 79.9957C89.1217 82.0342 89.0927 84.0727 89.0855 86.1112C89.071 89.2973 89.1471 92.4762 89.3139 95.648C89.3936 97.1947 89.5459 98.7414 89.7707 100.288C89.9955 101.906 91.0288 102.801 92.8706 102.972C94.4224 103.114 95.7385 102.719 96.8189 101.785C97.167 101.493 97.3773 101.143 97.4498 100.737C97.7833 98.7984 97.9574 96.8526 97.9719 94.8996C97.9906 92.9754 98.3756 88.6686 99.1269 81.9794C99.5675 82.9633 100.143 83.8843 100.854 84.7426C104.342 88.955 109.24 90.8938 115.549 90.5588H115.57C119.225 90.3663 122.347 89.454 124.935 87.8218C127.06 86.4604 128.412 84.7961 128.992 82.8288C129.21 82.002 129.272 81.3285 129.177 80.8081C129.061 80.2237 128.855 79.8352 128.557 79.6428C128.151 79.4574 127.589 79.5751 126.871 79.9956L126.012 80.466C125.998 80.466 125.987 80.4731 125.98 80.4874C124.747 81.0576 123.608 81.4389 122.564 81.6314C121.941 81.724 121.361 81.7632 120.824 81.749H120.802C118.656 81.585 116.905 81.0576 115.549 80.1666C114.961 79.7746 114.446 79.3149 114.004 78.7874C112.525 77.034 111.905 74.5429 112.144 71.3141C112.275 69.3896 112.619 67.262 113.178 64.9313C113.163 64.9028 113.159 64.8849 113.167 64.8778C113.362 63.9441 113.584 63.0175 113.83 62.098C114.41 59.974 115.128 57.8571 115.984 55.7473C115.991 55.7259 116.002 55.7117 116.016 55.7045C117.916 51.1072 119.968 48.527 122.173 47.9639C122.651 47.8499 123.072 47.8499 123.434 47.9639C123.746 48.0352 124.025 48.1813 124.272 48.4022C125.077 49.0722 125.367 50.6083 125.142 53.0103C124.925 55.1201 124.46 57.3475 123.75 59.6925C123.141 61.6312 122.426 63.381 121.607 64.942C121.448 65.2271 121.292 65.5122 121.139 65.7973V65.7652C119.762 68.5307 117.971 70.8864 115.766 72.8323C115.744 72.8323 115.73 72.8358 115.723 72.843C115.469 73.0639 115.23 73.2813 115.005 73.4952C114.541 73.8729 114.439 74.3291 114.7 74.8637C114.882 75.2699 115.346 75.4517 116.093 75.4089C116.803 75.3876 117.688 75.2058 118.746 74.8637C118.754 74.8494 118.772 74.8423 118.801 74.8423C119.598 74.5643 120.414 74.2329 121.248 73.848C122.771 73.1067 124.337 72.1801 125.947 71.0682C125.943 71.0599 125.942 71.0553 125.945 71.0542C125.948 71.0534 125.952 71.0545 125.958 71.0575C128.931 69.0546 131.269 66.8094 132.973 64.3219C132.973 64.3076 132.977 64.3005 132.984 64.3005C133.074 64.163 133.162 64.0254 133.248 63.8877C133.038 67.1642 132.871 70.3098 132.745 73.3244C132.303 83.7592 132.364 92.6261 132.93 99.9248C133.097 102.077 134.337 103.089 136.65 102.961C138.883 102.854 140.062 101.767 140.185 99.7002C140.207 99.3724 140.217 99.0053 140.217 98.599C140.341 90.3737 141.164 81.9488 142.686 73.3244C142.861 72.3479 143.042 71.3678 143.23 70.3842C144.652 63.0926 147.048 55.5729 150.42 47.8252C151.065 46.3355 151.747 44.8387 152.465 43.3348C153.625 40.9042 154.879 38.4523 156.228 35.979C157.388 33.855 158.538 31.9412 159.676 30.2377C160.626 28.8122 161.572 27.5292 162.515 26.3888C166.793 21.2141 170.937 19.0615 174.947 19.9311C180.886 21.2069 184.124 26.1143 184.66 34.6533C184.856 37.7681 184.254 41.1109 182.855 44.6819C182.434 45.7439 181.988 46.7917 181.517 47.8252C180.567 49.8779 179.501 51.8737 178.319 53.8124C174.374 60.3057 169.106 66.211 162.515 71.5282C161.928 72.0057 161.329 72.4762 160.72 72.9395C159.176 74.1155 157.74 75.1669 156.413 76.0935C155.021 77.0414 153.705 77.911 152.465 78.7022C152.436 78.7164 152.41 78.7307 152.389 78.7449C148.219 81.318 146.138 84.611 146.145 88.6239C146.131 89.8356 146.327 91.1043 146.733 92.43C147.385 94.5755 148.571 96.4607 150.289 98.0858C150.964 98.7273 151.689 99.294 152.465 99.7858C153.313 100.327 154.22 100.784 155.184 101.154C157.381 101.981 159.825 102.334 162.515 102.213C163.211 102.177 163.922 102.113 164.647 102.02C166.916 101.757 168.925 101.012 170.673 99.7858C172.268 98.6311 173.308 97.2234 173.794 95.5626C173.976 94.8641 174.037 94.2939 173.979 93.852C173.907 93.3602 173.762 93.0323 173.544 92.8684C173.254 92.7116 172.837 92.8114 172.293 93.1677L171.641 93.5633C171.634 93.5633 171.629 93.5649 171.625 93.5681C171.621 93.5716 171.619 93.5772 171.619 93.5847C170.988 93.9055 170.372 94.2013 169.77 94.4721C168.958 94.8428 168.066 95.1136 167.094 95.2847C166.137 95.4201 165.194 95.5199 164.266 95.584C163.643 95.6125 163.059 95.6125 162.515 95.584C158.273 95.3559 156.406 93.4671 156.913 89.9175C157.087 88.7058 158.059 87.512 159.828 86.3359C160.749 85.7158 161.645 85.0992 162.515 84.4863C166.336 81.8063 169.715 79.1904 172.652 76.6387C178.351 71.5131 183.376 66.1296 187.728 60.4882C187.695 60.5863 187.662 60.6846 187.63 60.7832C187.021 62.6507 186.586 64.6108 186.324 66.6635C185.737 71.3036 186.154 75.4519 187.575 79.1084C188.126 80.5411 188.833 81.8953 189.696 83.1712C192.785 87.7329 196.904 90.0137 202.052 90.0137C207.215 90.0137 211.918 87.7329 216.16 83.1712C217.349 81.8953 218.404 80.5411 219.325 79.1084C220.536 77.2267 221.518 75.2096 222.272 73.057C222.969 71.0399 223.458 68.9087 223.741 66.6635C224.56 60.2059 223.436 54.6998 220.369 50.1452C219.927 49.4823 219.463 48.8693 218.977 48.3063C218.651 47.9356 218.317 47.5828 217.976 47.2478C215.257 44.6248 211.939 43.3133 208.024 43.3133C204.101 43.3133 200.446 44.6248 197.06 47.2478C196.632 47.5828 196.212 47.9356 195.798 48.3063C195.779 48.3232 195.76 48.3403 195.741 48.3573C195.837 48.18 195.932 48.0026 196.027 47.8252C196.773 46.421 197.466 45.0169 198.104 43.6127C203.347 32.0089 203.075 21.1428 197.288 11.0144C191.495 0.878872 183.167 -2.11474 172.304 2.03355C168.744 3.39493 165.481 5.241 162.515 7.57174C161.754 8.17046 161.01 8.80126 160.285 9.46413C157.348 12.1584 154.742 15.3801 152.465 19.1292C150.84 21.8021 149.383 24.7458 148.092 27.9604C149.448 23.1278 150.318 19.1007 150.703 15.879C150.753 15.4656 150.793 15.07 150.822 14.6923C151.272 8.94738 149.691 6.52398 146.08 7.42206C143.926 7.98515 142.027 10.4085 140.381 14.6923C138.263 20.1877 136.559 28.7409 135.268 40.3518C135.102 41.7845 134.946 43.2635 134.801 44.7888C134.699 45.808 134.605 46.8202 134.518 47.8252L134.419 48.9088C134.399 48.8755 134.379 48.8424 134.359 48.8093C134.351 48.7948 134.342 48.7803 134.333 48.7658C134.319 48.7444 134.308 48.7337 134.3 48.7337C134.097 48.4129 133.88 48.11 133.648 47.8249C132.35 46.2283 130.609 45.0879 128.427 44.4036C128.267 44.3537 128.101 44.3074 127.927 44.2646C126.817 44.0651 125.969 43.951 125.381 43.9225C124.424 43.8726 123.431 43.9118 122.401 44.0401C119.203 44.482 116.484 45.3516 114.243 46.6488C114.222 46.656 114.2 46.6702 114.178 46.6916C113.569 47.048 112.978 47.4258 112.405 47.8249C112.275 47.9104 112.148 47.9995 112.025 48.0922C108.994 50.259 106.43 52.9533 104.335 56.175C103.422 57.562 102.606 59.0022 101.886 60.4956C102.14 58.7262 102.398 56.9581 102.66 55.1914C103.066 52.5114 103.468 49.8386 103.867 47.1728C104.324 44.1436 104.792 41.1179 105.27 38.0958C105.756 35.0309 106.325 31.9909 106.978 28.9759C107.645 25.9182 108.305 22.8568 108.957 19.7919C109.559 17.005 109.784 14.2039 109.632 11.3884C109.574 10.362 109.226 9.43545 108.588 8.60865C107.572 7.31141 106.155 6.9087 104.335 7.40051C103.327 7.69274 102.482 8.18099 101.801 8.86524C101.641 9.02918 101.481 9.19668 101.322 9.36774C99.5671 11.2637 98.2764 13.3842 97.4498 15.7292C96.3476 18.8368 95.4521 21.9979 94.7632 25.2125C94.1251 28.1776 93.5704 31.1534 93.099 34.1399C92.6639 36.9268 92.2833 39.7209 91.957 42.522C91.6524 45.1664 91.3732 47.8036 91.1194 50.4337C90.8729 52.9569 90.6445 55.4837 90.4342 58.014C90.2747 59.9598 90.126 61.9093 89.9883 63.8622C89.923 64.6819 89.865 65.5052 89.8142 66.332L89.7272 67.4866C89.7199 67.5793 89.6474 68.8409 89.5097 71.2714C86.5004 70.8081 81.9829 70.0027 75.9571 68.8552C75.7468 68.8124 75.5293 68.7696 75.3045 68.7269C75.4205 67.9214 75.5365 67.1196 75.6525 66.3213C75.6598 66.2571 75.6707 66.193 75.6852 66.1288C75.7649 65.5158 75.852 64.9064 75.9462 64.3006C75.9535 64.2721 75.9571 64.2436 75.9571 64.2151C75.9789 64.0297 76.0079 63.8444 76.0441 63.6591C76.4502 60.7653 76.8671 57.875 77.295 54.9883C77.701 52.3083 78.1035 49.6354 78.5023 46.9697C78.9591 43.9404 79.4268 40.9147 79.9054 37.8926C80.3912 34.8277 80.9568 31.7878 81.6022 28.7728C82.2693 25.715 82.9328 22.6537 83.5927 19.5888C84.1945 16.8019 84.4157 14.0007 84.2561 11.1853C84.2054 10.1589 83.8573 9.23232 83.212 8.40551C82.1968 7.10828 80.7792 6.70556 78.9591 7.19737C77.9584 7.4896 77.1137 7.97785 76.4248 8.6621C76.2653 8.82604 76.1094 8.99354 75.9571 9.1646C74.2023 11.0606 72.9116 13.181 72.0849 15.526C70.9755 18.6337 70.0763 21.7948 69.3875 25.0094C68.7566 27.9745 68.2055 30.9503 67.7342 33.9368C67.2919 36.7237 66.9112 39.5177 66.5921 42.3189C66.2803 44.9633 65.9975 47.6005 65.7437 50.2306C65.5044 52.7538 65.2797 55.2805 65.0694 57.8109L65.0294 58.2807C63.0929 53.3582 59.1361 49.5094 53.1592 46.7344C43.8486 42.4222 37.9135 37.6966 35.3538 32.5575C32.7869 27.4114 32.8775 22.618 35.6257 18.1775C38.3739 13.7227 43.4172 11.9408 50.7554 12.8317C58.0937 13.7156 61.2153 18.1597 60.1204 26.164ZM114.157 71.6777L114.222 71.9129C113.729 69.8958 113.707 69.8174 114.157 71.6777ZM214.419 51.7489V51.7596C213.361 50.2485 212.088 49.1936 210.602 48.5949C210.326 48.4809 210.043 48.3847 209.753 48.3063C209.057 48.1138 208.321 48.014 207.545 48.0069H207.513C206.729 48.0283 205.968 48.1281 205.228 48.3063C204.895 48.3847 204.565 48.4809 204.239 48.5949C202.368 49.2435 200.617 50.4267 198.985 52.1445V52.1338C197.629 53.5451 196.538 55.0882 195.711 56.7632C195.581 57.0269 195.457 57.2978 195.341 57.5758C195.262 57.7611 195.186 57.95 195.113 58.1424L195.026 58.4418C194.903 58.7768 194.794 59.1153 194.7 59.4575V59.4789C194.576 59.8851 194.464 60.3092 194.362 60.7511V60.7405C194.275 61.1325 194.199 61.5387 194.134 61.9593C194.127 61.9664 194.123 61.9771 194.123 61.9914C194.058 62.3691 194 62.7505 193.949 63.1353V63.1674C193.927 63.367 193.906 63.5594 193.884 63.7448C193.877 63.8232 193.873 63.898 193.873 63.9693L193.971 66.9736C194.275 69.1119 194.982 71.0435 196.092 72.7684C196.114 72.804 196.135 72.8468 196.157 72.8967C197.861 75.4555 200.124 76.7492 202.944 76.7777H202.966C206.077 76.7064 208.927 75.231 211.515 72.3514H211.504C212.636 71.0898 213.593 69.7106 214.376 68.2138C214.398 68.171 214.423 68.1318 214.452 68.0962C214.793 67.3977 215.094 66.6849 215.355 65.9579V65.9793C215.536 65.4661 215.703 64.9458 215.855 64.4183C215.884 64.3257 215.91 64.2366 215.931 64.151V64.1617C216.2 63.1353 216.403 62.0662 216.54 60.9543C216.577 60.6478 216.609 60.3484 216.638 60.0562L216.519 57.4154C216.265 55.3127 215.565 53.4239 214.419 51.7489Z" fill="white"/>
</svg>
