<svg width="38" height="38" viewBox="0 0 38 38" fill="none" xmlns="http://www.w3.org/2000/svg">
<path d="M19 0C13.7504 0 9.26034 1.86205 5.52976 5.58616C1.84325 9.26783 0 13.7501 0 19.033C0 24.2735 1.84325 28.7337 5.52976 32.4138C9.26034 36.1379 13.7504 38 19 38C24.2496 38 28.7176 36.1379 32.4041 32.4138C36.1347 28.7337 38 24.2735 38 19.033C38 13.7941 36.1347 9.31183 32.4041 5.58616C28.7176 1.86205 24.2496 0 19 0ZM11.3877 11.4339C13.5127 9.35504 16.0502 8.31559 19 8.31559C21.9498 8.31559 24.466 9.35504 26.5485 11.4339C28.631 13.5553 29.6723 16.0883 29.6723 19.033C29.6723 21.9777 28.631 24.4895 26.5485 26.5684C24.466 28.6473 21.9498 29.6868 19 29.6868C16.0502 29.6868 13.5127 28.6473 11.3877 26.5684C9.30521 24.4895 8.26395 21.9777 8.26395 19.033C8.26395 16.0883 9.30521 13.5553 11.3877 11.4339ZM24.2063 20.0065L22.3835 20.1384C23.1217 22.2598 23.7073 24.3599 24.1402 26.4388C26.2668 24.9664 27.5252 22.9959 27.9156 20.5274C27.0467 20.1801 25.8103 20.0065 24.2063 20.0065ZM21.0164 16.8905L21.7979 18.5781C22.7518 18.4917 23.446 18.4485 23.8805 18.4485C25.7457 18.4485 27.1341 18.6001 28.0455 18.9034C27.9589 16.782 27.286 14.9412 26.0267 13.3808C24.8131 14.8532 23.143 16.0231 21.0164 16.8905ZM15.2907 23.839C14.4674 24.6624 13.8606 25.4425 13.4702 26.1795C15.1608 27.435 17.0041 28.0628 19 28.0628C20.1711 28.0628 21.3422 27.8247 22.5134 27.3486C21.8633 24.4903 21.2124 22.2378 20.5607 20.591C18.4798 21.328 16.7231 22.4106 15.2907 23.839ZM9.95452 18.8374V19.033C9.95452 21.2847 10.714 23.2764 12.233 25.0081C12.754 24.0998 13.4695 23.2128 14.3793 22.347C15.9423 20.7866 17.6778 19.682 19.5856 19.033L19.9114 18.9694L19.196 17.5386C16.2461 18.4045 13.253 18.8374 10.2166 18.8374H9.95452ZM10.1505 17.1497H10.2166C12.9051 17.1497 15.6378 16.7813 18.4144 16.0443C17.1567 13.7925 16.0509 12.0821 15.0971 10.913C12.4069 12.1685 10.7581 14.2474 10.1505 17.1497ZM19 10.0032C18.2193 10.0032 17.5471 10.0904 16.9836 10.2649C18.2838 12.1269 19.3896 13.8585 20.301 15.4597C22.3394 14.6804 23.9009 13.6197 24.9855 12.2778C23.2508 10.7614 21.2557 10.0032 19 10.0032Z" fill="white"/>
</svg>
