<svg width="38" height="38" viewBox="0 0 38 38" fill="none" xmlns="http://www.w3.org/2000/svg">
<path d="M32.4041 5.52976C32.1149 5.24057 31.8206 4.96275 31.5211 4.69628C28.0115 1.56543 23.8378 0 19 0C14.1622 0 9.96966 1.56543 6.42227 4.69628C6.11991 4.96275 5.82241 5.24057 5.52976 5.52976C1.84325 9.26034 0 13.7504 0 19C0 24.248 1.84325 28.716 5.52976 32.4041C6.28355 33.1579 7.06823 33.8356 7.88381 34.4371C11.1057 36.8124 14.8111 38 19 38C23.1889 38 26.8801 36.8124 30.0737 34.4371C30.8824 33.8356 31.6592 33.1579 32.4041 32.4041C36.1347 28.716 38 24.248 38 19C38 13.7504 36.1347 9.26034 32.4041 5.52976ZM23.3917 7.79881C25.257 7.79881 26.8405 8.44969 28.1423 9.75146C29.4441 11.0532 30.0949 12.6368 30.0949 14.502V23.4153C30.0949 25.2806 29.4441 26.8633 28.1423 28.1635C26.8405 29.4653 25.257 30.1162 23.3917 30.1162H14.4784C12.6572 30.1162 11.0957 29.4653 9.79396 28.1635C8.49219 26.8633 7.84131 25.2806 7.84131 23.4153V14.502C7.84131 12.6368 8.49219 11.0532 9.79396 9.75146C11.0957 8.44969 12.6572 7.79881 14.4784 7.79881H23.3917ZM26.6453 11.2484C25.7339 10.337 24.6494 9.88132 23.3917 9.88132H14.4784C13.2207 9.88132 12.1362 10.337 11.2248 11.2484C10.3575 12.1582 9.92382 13.2428 9.92382 14.502V23.4153C9.92382 24.673 10.3575 25.7575 11.2248 26.6689C12.1362 27.5788 13.2207 28.0337 14.4784 28.0337H23.3917C24.6494 28.0337 25.7339 27.5788 26.6453 26.6689C27.5567 25.7575 28.0124 24.673 28.0124 23.4153V14.502C28.0124 13.2428 27.5567 12.1582 26.6453 11.2484ZM23.9773 12.1598C24.2386 11.8985 24.5424 11.7679 24.8887 11.7679C25.2365 11.7679 25.5403 11.8985 25.8 12.1598C26.0598 12.4195 26.1896 12.7225 26.1896 13.0688C26.1896 13.4592 26.0598 13.7851 25.8 14.0464C25.5403 14.3061 25.2365 14.4359 24.8887 14.4359C24.5424 14.4359 24.2386 14.3061 23.9773 14.0464C23.7175 13.7851 23.5877 13.4592 23.5877 13.0688C23.5877 12.7225 23.7175 12.4195 23.9773 12.1598ZM13.567 18.9906C13.567 17.4731 14.1093 16.1722 15.1939 15.0876C16.2359 14.0031 17.5156 13.4608 19.0331 13.4608C20.552 13.4608 21.853 14.0031 22.936 15.0876C24.0205 16.1722 24.5628 17.4731 24.5628 18.9906C24.5628 20.508 24.0205 21.7877 22.936 22.8298C21.853 23.9143 20.552 24.4566 19.0331 24.4566C17.5581 24.4566 16.2784 23.9143 15.1939 22.8298C14.1093 21.7877 13.567 20.508 13.567 18.9906ZM19.0331 15.4111C18.0792 15.4111 17.2551 15.7582 16.561 16.4523C15.8668 17.1906 15.5197 18.0367 15.5197 18.9906C15.5197 19.9445 15.8668 20.7685 16.561 21.4627C17.2551 22.1568 18.0792 22.5039 19.0331 22.5039C19.987 22.5039 20.811 22.1568 21.5052 21.4627C22.1993 20.7685 22.5464 19.9445 22.5464 18.9906C22.5464 17.9926 22.1993 17.1465 21.5052 16.4523C20.811 15.7582 19.987 15.4111 19.0331 15.4111Z" fill="white"/>
</svg>
