<svg width="38" height="36" viewBox="0 0 38 36" fill="none" xmlns="http://www.w3.org/2000/svg">
<path d="M25.3349 25.585L28.6071 22.4838C29.0478 22.0712 29.6054 21.7889 30.2122 21.6709C30.819 21.5529 31.4489 21.6045 32.0254 21.8192L36.0133 23.3283C36.5959 23.5524 37.0954 23.9349 37.449 24.4277C37.8025 24.9204 37.9943 25.5014 38 26.0972V33.0195C37.9966 33.4249 37.9067 33.8254 37.7357 34.1969C37.5647 34.5685 37.3161 34.9034 37.0049 35.1815C36.6938 35.4596 36.3264 35.6751 35.9251 35.8151C35.5237 35.9551 35.0965 36.0167 34.6694 35.9961C6.72448 34.3486 1.08583 11.9203 0.019454 3.33662C-0.0300479 2.9151 0.0151807 2.48842 0.152164 2.08466C0.289148 1.6809 0.514782 1.3092 0.814222 0.994014C1.11366 0.678831 1.48012 0.427309 1.8895 0.255994C2.29887 0.0846789 2.74187 -0.00254625 3.18937 5.65817e-05H10.245C10.8746 0.00182286 11.4893 0.182069 12.0099 0.51761C12.5306 0.853152 12.9334 1.32864 13.1666 1.88293L14.7588 5.66252C14.9929 6.20671 15.0526 6.8042 14.9305 7.38038C14.8084 7.95655 14.5099 8.48585 14.0723 8.90216L10.8001 12.0034C10.8001 12.0034 12.6845 24.0897 25.3349 25.585Z" fill="white"/>
</svg>
